<?xml version="1.0" standalone="no"?>
<!DOCTYPE svg PUBLIC "-//W3C//DTD SVG 20010904//EN"
 "http://www.w3.org/TR/2001/REC-SVG-20010904/DTD/svg10.dtd">
<svg version="1.0" xmlns="http://www.w3.org/2000/svg"
 width="512.000000pt" height="512.000000pt" viewBox="0 0 512.000000 512.000000"
 preserveAspectRatio="xMidYMid meet">
<metadata>
Created by potrace 1.16, written by Peter Selinger 2001-2019
</metadata>
<g transform="translate(0.000000,512.000000) scale(0.100000,-0.100000)"
fill="#000000" stroke="none">
<path d="M2540 5074 c-61 -52 -264 -234 -445 -399 -118 -108 -180 -161 -159
-137 6 7 8 32 4 62 l-6 50 33 -26 c47 -35 41 -15 -8 29 l-41 37 -74 -66 c-41
-37 -72 -69 -70 -72 3 -2 36 23 73 57 l68 61 5 -72 c3 -40 2 -77 -2 -82 -5 -6
-8 -14 -8 -19 0 -5 51 38 113 95 170 157 553 500 576 515 2 2 2 5 -1 8 -2 3
-29 -16 -58 -41z"/>
<path d="M2860 5010 c0 -60 3 -110 8 -110 9 0 252 208 252 217 0 9 -31 -16
-144 -115 -58 -50 -103 -86 -100 -78 3 8 32 37 65 66 53 46 59 55 59 91 l0 39
-70 0 -70 0 0 -110z"/>
<path d="M3036 5104 c-9 -24 -4 -25 23 -3 22 18 22 19 3 19 -11 0 -23 -7 -26
-16z"/>
<path d="M3173 5053 c-44 -38 -138 -117 -211 -177 l-132 -109 2 -146 c1 -93 3
-126 7 -91 l6 55 17 -42 c23 -55 33 -117 22 -140 -21 -48 -12 -53 31 -20 127
96 300 233 370 292 44 36 164 134 268 217 169 136 195 158 184 158 -2 0 -51
-36 -108 -80 -57 -43 -105 -77 -108 -75 -6 6 18 26 124 104 59 43 85 68 81 78
-3 8 -6 21 -6 29 0 12 -39 14 -234 14 l-235 0 -78 -67z m364 -15 c-3 -7 -5 -2
-5 12 0 14 2 19 5 13 2 -7 2 -19 0 -25z m-27 -63 c0 -98 -1 -101 -18 -98 -7 0
-11 -2 -8 -5 7 -7 -13 -32 -26 -32 -5 0 -6 6 -2 13 5 8 3 8 -9 -2 -9 -7 -15
-17 -12 -21 7 -12 -132 -129 -395 -333 -91 -71 -145 -109 -120 -87 43 41 45
45 51 114 l6 71 1 -68 2 -67 88 71 c48 39 89 73 92 76 3 3 8 48 11 101 l5 97
2 -94 c2 -93 2 -94 22 -76 17 15 20 31 20 95 0 62 4 83 19 101 l19 24 6 -45
c3 -25 7 -61 8 -80 l3 -35 45 41 44 42 -3 77 c-2 53 1 75 8 70 7 -3 11 3 12
17 1 19 3 18 9 -7 5 -21 8 -24 9 -10 1 11 22 35 46 54 31 23 45 41 45 57 0 13
5 24 10 24 6 0 10 -35 10 -85z"/>
<path d="M3991 5084 c0 -21 4 -59 9 -84 6 -34 7 -25 3 35 -6 84 -14 115 -12
49z"/>
<path d="M4090 5118 c0 -8 38 -195 41 -203 2 -6 -12 -26 -31 -44 l-35 -33 35
23 c28 19 314 232 329 245 2 2 2 6 0 8 -2 3 -60 -38 -129 -91 -155 -118 -159
-120 -152 -87 3 15 8 21 12 14 4 -7 31 7 76 42 54 42 70 60 72 83 l4 30 -34
-30 -33 -30 34 38 35 37 -112 0 c-62 0 -112 -1 -112 -2z m150 -71 c0 -2 -10
-12 -22 -23 l-23 -19 19 23 c18 21 26 27 26 19z"/>
<path d="M4500 4954 c-281 -197 -385 -276 -406 -310 -15 -23 -15 -28 1 -72 10
-26 28 -57 41 -70 20 -21 23 -22 27 -5 3 10 5 -15 6 -55 1 -47 5 -71 11 -67 6
4 8 10 5 14 -5 9 26 39 67 64 23 14 27 25 30 69 l3 53 5 -54 5 -54 -53 -35
c-29 -19 -50 -37 -48 -40 3 -2 96 58 208 135 112 77 311 212 443 301 272 184
280 190 273 197 -3 3 -16 -3 -29 -13 -13 -10 -141 -97 -284 -193 -143 -96
-313 -212 -378 -258 -65 -46 -120 -81 -123 -79 -2 3 11 17 31 32 25 20 35 34
34 54 -1 55 -23 79 -42 46 -5 -8 -12 -12 -18 -9 -5 4 -9 1 -9 -6 0 -7 -3 -9
-6 -6 -4 4 -20 -3 -35 -14 -16 -11 -29 -17 -29 -12 0 12 123 87 139 84 7 -1
10 2 7 8 -4 5 -1 13 5 17 8 5 9 3 4 -6 -5 -8 -3 -11 6 -8 8 3 14 10 14 15 0 6
4 15 9 20 5 5 6 3 2 -4 -12 -21 2 -15 77 35 93 63 102 68 94 55 -4 -6 -54 -41
-112 -78 l-105 -67 6 -41 c4 -23 8 -43 9 -44 0 -2 54 34 118 78 73 50 117 87
117 97 -1 9 -7 33 -13 52 -16 43 -7 54 93 120 36 24 67 47 68 52 7 17 21 7 25
-19 3 -16 4 -1 3 32 -1 47 2 60 14 60 10 0 19 -22 29 -74 11 -61 16 -70 23
-52 4 12 6 32 3 44 -5 18 3 27 43 49 27 15 52 25 56 21 8 -8 8 35 0 76 l-6 31
-112 0 -111 -1 -235 -165z m460 98 c0 -4 -10 -13 -22 -21 -23 -14 -23 -14 -4
8 20 22 26 25 26 13z m-265 -20 c-20 -17 -303 -211 -375 -257 -134 -85 -60
-29 160 119 192 131 244 164 215 138z"/>
<path d="M4991 5093 c0 -16 4 -46 8 -68 8 -37 9 -35 10 28 1 39 -3 67 -9 67
-5 0 -10 -12 -9 -27z"/>
<path d="M5096 5093 c11 -45 24 -51 24 -10 0 26 -4 37 -15 37 -12 0 -14 -7 -9
-27z"/>
<path d="M5071 5094 c0 -11 3 -14 6 -6 3 7 2 16 -1 19 -3 4 -6 -2 -5 -13z"/>
<path d="M4971 4984 c0 -11 3 -14 6 -6 3 7 2 16 -1 19 -3 4 -6 -2 -5 -13z"/>
<path d="M2509 4867 c-53 -45 -206 -179 -340 -297 l-244 -214 -8 -84 c-5 -46
-6 -86 -3 -89 4 -4 423 351 659 559 l38 33 -3 87 -3 86 -96 -81z"/>
<path d="M4011 4942 c-2 -24 30 -266 36 -272 3 -3 2 29 -2 70 -7 79 -32 225
-34 202z"/>
<path d="M4707 4868 c-46 -30 -47 -31 -41 -72 4 -22 8 -42 8 -43 1 -1 25 13
53 32 l52 35 -11 37 c-5 21 -11 39 -12 40 -1 1 -23 -12 -49 -29z"/>
<path d="M3559 4725 c-166 -129 -697 -516 -718 -523 -5 -2 -11 9 -14 25 -2 15
-5 -3 -6 -42 0 -38 -3 -113 -5 -165 -2 -56 -1 -73 3 -42 6 52 6 52 29 37 15
-11 22 -26 22 -51 0 -24 5 -34 15 -34 21 0 30 4 28 12 -2 4 11 16 27 28 28 20
30 25 30 89 0 68 7 84 45 111 17 12 18 12 8 0 -15 -16 -18 -44 -4 -35 5 3 16
-1 24 -9 12 -13 15 -7 20 46 6 63 27 106 27 55 0 -15 3 -27 6 -27 3 0 22 14
43 31 26 20 37 36 34 48 -2 10 3 23 11 30 11 10 16 10 16 2 0 -6 15 5 33 25
l32 38 6 -80 5 -79 2 80 c2 51 8 87 17 99 13 17 15 10 18 -65 l3 -84 2 91 c2
71 5 93 17 98 13 4 15 -8 15 -80 l0 -85 68 47 c37 26 86 63 110 81 l42 34 0
95 c0 61 4 93 10 89 6 -3 10 -36 10 -73 0 -83 11 -104 34 -71 9 13 19 22 22
20 3 -2 26 11 50 30 l44 33 0 153 c0 84 -2 153 -4 153 -1 0 -81 -61 -177 -135z
m141 -28 c0 -2 -10 -12 -22 -23 l-23 -19 19 23 c18 21 26 27 26 19z m-260
-201 c0 -2 -8 -10 -17 -17 -16 -13 -17 -12 -4 4 13 16 21 21 21 13z"/>
<path d="M4621 4814 c0 -11 3 -14 6 -6 3 7 2 16 -1 19 -3 4 -6 -2 -5 -13z"/>
<path d="M4632 4755 c0 -16 2 -22 5 -12 2 9 2 23 0 30 -3 6 -5 -1 -5 -18z"/>
<path d="M2579 4733 c-8 -9 -66 -60 -129 -114 -63 -53 -181 -153 -262 -221
-167 -142 -284 -248 -274 -248 4 0 69 53 144 118 75 65 230 198 345 296 114
97 207 179 207 182 0 10 -19 3 -31 -13z"/>
<path d="M4975 4605 c-77 -51 -252 -164 -390 -251 -275 -173 -410 -263 -409
-273 0 -3 6 -19 13 -36 7 -16 18 -62 24 -102 6 -48 14 -70 21 -66 6 4 5 -1 -3
-10 -19 -24 -2 -21 39 7 53 35 283 172 385 229 133 73 465 281 465 290 0 10
-9 5 -219 -127 -85 -54 -189 -116 -230 -138 -71 -39 -319 -183 -368 -216 -13
-8 -23 -10 -23 -6 0 5 36 31 80 58 85 52 84 51 74 130 -6 42 -9 47 -28 42 -30
-7 21 34 106 84 70 42 90 61 70 68 -8 2 -8 8 2 18 19 18 36 18 36 -1 0 -24 12
-19 117 45 l98 59 7 -27 c3 -15 9 -48 13 -74 3 -27 9 -48 13 -48 4 1 61 36
127 78 l120 78 2 142 c1 78 1 142 0 141 -1 0 -65 -42 -142 -94z m5 -79 c0 -2
-18 -15 -40 -30 -22 -14 -40 -24 -40 -22 0 5 71 56 77 56 2 0 3 -2 3 -4z
m-431 -267 c-16 -10 -23 -4 -14 10 3 6 11 8 17 5 6 -4 5 -9 -3 -15z m-287
-306 c1 -34 0 -65 -5 -69 -4 -4 -7 6 -7 23 0 17 -3 52 -6 79 -5 34 -3 46 4 39
6 -5 12 -38 14 -72z"/>
<path d="M4052 4630 c0 -19 2 -27 5 -17 2 9 2 25 0 35 -3 9 -5 1 -5 -18z"/>
<path d="M2475 4519 c-71 -60 -188 -156 -260 -211 -71 -56 -167 -133 -212
-172 l-82 -71 2 -165 c0 -107 3 -141 6 -97 3 37 9 66 13 65 9 -4 55 31 223
172 83 70 213 177 290 239 77 62 142 118 144 125 5 13 4 12 -149 -113 -63 -52
-105 -83 -92 -70 17 20 22 39 24 85 l1 59 6 -55 6 -55 48 44 c46 43 47 45 47
103 0 57 -1 59 -20 45 -11 -8 -41 -34 -67 -58 -25 -23 -44 -38 -42 -32 5 13
107 102 186 161 53 40 62 52 63 80 0 17 -1 32 -2 32 -2 0 -61 -50 -133 -111z
m-125 -173 c0 -2 -21 -20 -47 -41 l-48 -37 45 41 c45 41 50 45 50 37z m-100
-79 c0 -2 -10 -12 -22 -23 l-23 -19 19 23 c18 21 26 27 26 19z m-58 -49 c-7
-7 -12 -40 -12 -76 l0 -64 58 48 c31 26 66 55 77 63 l20 15 -20 -20 c-17 -18
-297 -253 -347 -293 -10 -7 -18 -10 -18 -5 0 5 19 22 41 38 23 16 72 56 110
88 l69 60 0 67 c0 59 10 91 29 91 3 0 0 -5 -7 -12z"/>
<path d="M4062 4540 c0 -19 2 -27 5 -17 2 9 2 25 0 35 -3 9 -5 1 -5 -18z"/>
<path d="M2542 4505 c-28 -24 -48 -47 -42 -50 5 -3 10 -26 10 -51 l0 -45 43
33 c23 18 43 33 43 33 6 0 13 125 7 124 -4 0 -32 -20 -61 -44z"/>
<path d="M3614 4444 c-111 -83 -304 -221 -531 -380 -63 -45 -80 -53 -67 -32 4
7 3 8 -5 4 -6 -4 -9 -11 -6 -16 3 -5 -15 -23 -40 -41 -25 -18 -43 -34 -41 -36
6 -6 422 286 701 492 143 105 129 94 124 100 -3 2 -63 -39 -135 -91z"/>
<path d="M4073 4435 c0 -27 2 -38 4 -22 2 15 2 37 0 50 -2 12 -4 0 -4 -28z"/>
<path d="M4085 4295 c2 -49 15 -234 29 -410 14 -176 28 -405 33 -510 4 -104 9
-161 11 -125 6 121 -32 727 -63 1010 -13 115 -14 118 -10 35z"/>
<path d="M4730 4323 c-56 -35 -84 -60 -84 -71 5 -53 16 -112 21 -112 6 0 69
38 139 83 30 20 30 20 22 85 -4 36 -9 66 -10 67 -2 1 -41 -22 -88 -52z"/>
<path d="M3680 4298 c-30 -21 -207 -138 -394 -260 -243 -157 -341 -217 -349
-209 -17 17 -51 13 -67 -7 -19 -23 -21 -33 -26 -112 -3 -36 -7 -71 -9 -77 -2
-7 1 -13 8 -13 7 0 2 -8 -11 -18 -22 -17 -22 -23 -22 -172 0 -85 1 -169 3
-185 l2 -31 49 24 c26 13 50 21 53 18 3 -2 13 4 24 15 15 15 19 33 19 85 0 41
4 63 10 59 6 -3 10 -31 10 -61 0 -57 4 -62 33 -40 19 14 23 36 7 36 -17 0 -11
26 9 44 11 10 23 32 28 50 7 28 8 25 14 -29 l6 -60 1 51 c2 51 3 53 52 84 45
29 49 34 39 53 -9 18 -9 20 2 10 18 -18 26 -16 31 5 3 9 23 26 46 37 23 11 45
29 51 40 7 15 10 0 10 -58 l1 -77 25 16 c24 15 25 21 25 111 0 89 -1 95 -17
82 -10 -7 -13 -8 -8 -2 6 6 75 59 155 118 127 94 256 192 285 217 5 5 3 8 -6
8 -8 0 -55 -33 -104 -73 -140 -115 -329 -249 -333 -237 -2 6 3 19 12 29 12 14
16 40 16 114 0 53 4 97 9 97 5 0 12 -38 16 -85 4 -47 10 -85 12 -85 12 0 143
103 143 111 0 6 -17 -2 -37 -17 l-38 -26 37 32 37 31 -6 77 -5 77 63 46 c77
55 103 69 69 38 -23 -22 -25 -29 -20 -96 l5 -72 52 40 52 41 -6 66 c-3 37 -7
69 -9 71 -2 2 -12 -2 -22 -10 -10 -8 -8 -5 4 7 19 19 41 115 25 113 -3 0 -31
-19 -61 -41z m-378 -610 c-6 -6 -30 1 -60 16 -45 23 -51 30 -55 63 -2 21 -3
12 -1 -19 l4 -57 -128 -85 c-147 -98 -223 -140 -232 -129 -4 5 -5 31 -1 58 l6
50 179 121 c98 67 181 125 185 130 3 5 15 16 25 24 19 14 19 13 13 -40 -3 -34
-2 -47 3 -35 5 11 9 37 9 58 1 30 6 40 26 49 14 6 26 16 27 22 1 6 4 -40 5
-103 2 -63 0 -118 -5 -123z m128 168 c0 -2 -8 -10 -17 -17 -16 -13 -17 -12 -4
4 13 16 21 21 21 13z m-274 -31 c-31 -29 -206 -148 -206 -141 0 3 33 28 73 56
39 28 90 64 111 80 48 37 59 39 22 5z m-216 -119 c0 -28 -6 -38 -41 -60 -22
-15 -43 -25 -46 -23 -2 3 14 15 36 28 35 19 41 27 41 56 0 18 2 33 5 33 3 0 5
-15 5 -34z"/>
<path d="M3261 3803 c0 -34 2 -64 7 -66 4 -3 6 16 4 41 -5 80 -9 90 -11 25z"/>
<path d="M2360 4073 c-118 -96 -265 -215 -326 -264 -128 -102 -125 -95 -122
-263 l2 -111 6 100 c3 55 7 93 8 84 1 -9 8 -22 16 -28 8 -7 15 -27 15 -44 0
-90 3 -123 14 -136 9 -12 9 -13 0 -7 -9 5 -11 2 -7 -8 5 -12 45 11 177 101 95
64 177 120 182 126 22 21 -42 -18 -160 -99 l-124 -85 3 66 c2 65 2 66 59 123
l57 58 1 64 c0 36 4 83 8 105 8 35 9 29 11 -45 1 -47 2 -88 1 -92 -2 -17 17
-5 123 75 61 46 148 110 193 141 45 31 86 62 90 69 8 13 -25 -7 -92 -56 l-40
-29 -3 38 c-7 77 5 101 73 156 62 49 65 54 65 95 0 24 -3 43 -7 42 -5 -1 -105
-80 -223 -176z m64 -174 c-9 -11 -20 -19 -23 -19 -3 0 -5 37 -3 82 3 60 8 88
20 102 16 17 17 14 20 -64 2 -66 0 -86 -14 -101z m-39 -16 c-1 -12 -177 -153
-191 -153 -4 0 -3 5 4 12 7 7 12 39 12 75 l0 63 83 65 82 66 6 -58 c3 -32 5
-63 4 -70z"/>
<path d="M4582 4200 c0 -19 2 -27 5 -17 2 9 2 25 0 35 -3 9 -5 1 -5 -18z"/>
<path d="M4522 4191 l-43 -26 7 -50 c3 -27 9 -53 13 -56 3 -4 23 4 44 17 39
26 42 37 29 105 l-7 36 -43 -26z"/>
<path d="M1625 4058 c-82 -71 -173 -150 -202 -175 l-52 -44 -31 16 c-31 16
-32 16 -86 -26 -68 -52 -84 -75 -20 -28 25 19 53 38 60 43 16 11 30 5 114 -44
28 -17 52 -26 52 -20 0 6 -16 18 -35 27 -19 9 -35 19 -35 23 0 6 275 246 357
311 39 32 53 50 36 48 -5 0 -75 -59 -158 -131z"/>
<path d="M4592 4135 c0 -16 2 -22 5 -12 2 9 2 23 0 30 -3 6 -5 -1 -5 -18z"/>
<path d="M3578 4117 c-26 -21 -28 -27 -28 -105 0 -45 2 -82 5 -82 2 0 20 16
40 37 31 32 35 42 35 89 0 53 -7 84 -19 84 -3 -1 -18 -11 -33 -23z"/>
<path d="M5070 4046 c-19 -13 -127 -74 -240 -136 -113 -62 -295 -164 -406
-227 l-201 -115 9 -42 c17 -82 31 -220 22 -223 -23 -8 -76 -45 -71 -50 6 -5
109 48 697 360 129 69 236 131 239 138 2 6 -21 -2 -50 -18 -56 -32 -483 -258
-649 -345 -142 -73 -77 -28 95 66 l150 82 2 42 c2 23 -1 42 -5 42 -4 0 -8 39
-10 88 -1 60 1 82 8 72 8 -13 10 -13 10 1 0 9 6 19 13 22 11 4 17 -21 27 -109
7 -63 17 -114 22 -114 11 0 138 64 161 82 17 12 17 19 4 100 l-14 86 49 23
c26 12 48 28 48 34 0 31 30 67 83 96 36 21 57 39 57 51 0 23 -7 22 -50 -6z
m-141 -130 c-10 -9 -69 -36 -69 -32 0 7 52 35 64 36 5 0 7 -2 5 -4z m-592
-428 c-2 -13 -4 -5 -4 17 -1 22 1 32 4 23 2 -10 2 -28 0 -40z m10 -85 c-3 -10
-5 -2 -5 17 0 19 2 27 5 18 2 -10 2 -26 0 -35z"/>
<path d="M1732 3969 c-28 -22 -52 -42 -52 -45 0 -3 21 11 46 30 25 19 51 37
57 39 7 2 10 7 7 10 -3 3 -29 -12 -58 -34z"/>
<path d="M5072 3992 c-26 -13 -32 -21 -28 -38 3 -12 11 -55 17 -96 13 -91 21
-107 43 -89 13 11 16 36 16 127 0 63 -3 114 -7 113 -5 0 -23 -8 -41 -17z"/>
<path d="M3708 3897 l-68 -52 0 -68 c0 -41 4 -66 9 -62 6 3 8 29 5 58 -2 29
-1 45 2 37 18 -42 29 -44 34 -4 3 26 12 42 26 49 12 6 20 19 19 32 -1 14 7 25
22 32 13 6 23 15 23 21 0 13 5 16 -72 -43z m17 -7 c-3 -5 -20 -19 -38 -30 -32
-22 -32 -22 3 9 37 32 45 37 35 21z"/>
<path d="M1639 3893 l-24 -28 28 24 c25 23 32 31 24 31 -2 0 -14 -12 -28 -27z"/>
<path d="M1638 3762 c-211 -174 -346 -282 -352 -282 -2 0 -6 10 -8 23 -2 12
-7 -25 -11 -82 -6 -69 -5 -107 2 -114 8 -8 6 -16 -6 -29 -9 -10 -14 -20 -12
-22 2 -1 17 13 34 33 17 21 21 30 10 21 -20 -15 -20 -14 -1 8 20 23 42 31 30
10 -4 -7 2 -4 14 6 26 23 29 34 5 15 -17 -13 -17 -12 -2 6 10 11 19 29 22 40
4 15 5 14 6 -7 1 -20 5 -26 16 -22 8 4 15 14 15 24 0 17 59 77 110 113 19 13
26 29 31 69 l6 53 2 -52 c0 -29 6 -53 11 -53 6 0 10 7 10 16 0 15 158 172 167
166 2 -1 15 10 28 24 21 23 25 37 25 90 0 35 -2 64 -4 64 -3 0 -69 -53 -148
-118z m142 35 c0 -2 -10 -12 -22 -23 l-23 -19 19 23 c18 21 26 27 26 19z m-70
-60 c0 -2 -10 -12 -22 -23 l-23 -19 19 23 c18 21 26 27 26 19z m-60 -50 c0 -2
-12 -14 -27 -28 l-28 -24 24 28 c23 25 31 32 31 24z m-130 -150 c0 -2 -12 -14
-27 -28 l-28 -24 24 28 c23 25 31 32 31 24z m-60 -50 c0 -2 -10 -12 -22 -23
l-23 -19 19 23 c18 21 26 27 26 19z"/>
<path d="M4957 3861 c-20 -12 -26 -22 -23 -36 2 -11 8 -47 12 -80 4 -33 9 -54
11 -47 3 6 8 10 12 7 5 -2 15 1 24 8 15 11 15 20 4 88 l-12 75 -28 -15z"/>
<path d="M1589 3853 c-13 -16 -12 -17 4 -4 9 7 17 15 17 17 0 8 -8 3 -21 -13z"/>
<path d="M3733 3815 c0 -22 2 -30 4 -17 2 12 2 30 0 40 -3 9 -5 -1 -4 -23z"/>
<path d="M4911 3834 c0 -11 3 -14 6 -6 3 7 2 16 -1 19 -3 4 -6 -2 -5 -13z"/>
<path d="M1544 3818 l-19 -23 23 19 c21 18 27 26 19 26 -2 0 -12 -10 -23 -22z"/>
<path d="M2803 3800 c0 -25 2 -35 4 -22 2 12 2 32 0 45 -2 12 -4 2 -4 -23z"/>
<path d="M2515 3764 c-38 -31 -94 -72 -122 -92 -52 -34 -59 -45 -47 -76 10
-26 27 -19 110 40 93 66 104 78 104 118 0 16 7 38 17 48 27 30 11 20 -62 -38z"/>
<path d="M3508 3759 c-37 -25 -64 -50 -60 -54 4 -5 2 -5 -4 -2 -6 3 -20 0 -32
-9 -18 -13 -20 -21 -15 -67 3 -28 7 -53 8 -55 3 -3 82 43 143 83 38 25 42 31
41 69 -2 86 -6 87 -81 35z"/>
<path d="M1499 3783 c-13 -16 -12 -17 4 -4 9 7 17 15 17 17 0 8 -8 3 -21 -13z"/>
<path d="M3740 3764 c-68 -51 -524 -344 -536 -344 -3 0 -3 4 1 9 3 5 0 13 -6
17 -8 5 -10 1 -7 -13 4 -15 -1 -24 -19 -32 -14 -7 -75 -44 -136 -84 -60 -39
-115 -72 -121 -72 -6 0 -21 -4 -33 -8 -27 -10 -31 -29 -5 -21 15 5 15 4 -1 -9
-11 -9 -26 -13 -35 -10 -13 4 -14 3 -4 -5 20 -14 -14 -25 -37 -13 -13 7 -18 6
-18 -4 0 -7 7 -11 16 -8 12 3 11 1 -3 -11 -10 -8 -24 -17 -30 -19 -6 -2 -9 -7
-5 -10 3 -4 70 37 150 90 79 53 223 143 319 201 183 109 545 345 556 363 13
21 -2 15 -46 -17z m-820 -528 c0 -2 -7 -7 -16 -10 -8 -3 -12 -2 -9 4 6 10 25
14 25 6z"/>
<path d="M4922 3770 c0 -14 2 -19 5 -12 2 6 2 18 0 25 -3 6 -5 1 -5 -13z"/>
<path d="M1460 3755 c-15 -18 -34 -20 -24 -2 5 8 2 7 -9 -2 -10 -8 -15 -16
-12 -19 7 -7 -25 -42 -38 -42 -5 0 -3 8 4 18 11 14 10 14 -8 -2 -13 -10 -20
-22 -18 -26 2 -4 -4 -15 -15 -25 -21 -19 -28 -7 -8 13 8 8 8 12 1 12 -11 0
-45 -61 -38 -68 2 -2 39 26 82 63 97 84 109 95 101 95 -3 0 -11 -7 -18 -15z"/>
<path d="M4671 3714 c0 -11 3 -14 6 -6 3 7 2 16 -1 19 -3 4 -6 -2 -5 -13z"/>
<path d="M4932 3710 c0 -14 2 -19 5 -12 2 6 2 18 0 25 -3 6 -5 1 -5 -13z"/>
<path d="M2792 3665 c0 -16 2 -22 5 -12 2 9 2 23 0 30 -3 6 -5 -1 -5 -18z"/>
<path d="M2469 3592 c-57 -37 -146 -94 -197 -126 l-93 -58 2 -107 2 -106 -67
-44 c-36 -24 -64 -46 -62 -48 2 -2 118 71 257 164 299 198 275 181 268 187 -3
3 -23 -7 -45 -24 -21 -16 -43 -30 -48 -30 -5 0 -5 36 -2 81 l8 81 -46 -33
c-37 -26 -46 -38 -47 -63 0 -17 -2 -50 -5 -73 -2 -24 -1 -43 3 -43 3 0 21 12
40 26 19 14 37 24 39 21 3 -3 -35 -33 -85 -66 l-91 -62 0 90 c0 68 3 89 13 86
6 -3 30 11 52 31 22 20 79 66 128 101 72 55 101 83 84 83 -2 0 -50 -30 -108
-68z m-179 -245 l0 -82 -45 -28 c-25 -15 -48 -27 -50 -27 -3 0 -4 21 -3 48 1
43 2 44 5 10 5 -42 6 -43 33 -28 21 11 29 41 32 120 1 45 10 69 26 70 1 0 2
-37 2 -83z m-60 49 c0 -2 -8 -10 -17 -17 -16 -13 -17 -12 -4 4 13 16 21 21 21
13z"/>
<path d="M2129 3623 c-13 -16 -12 -17 4 -4 9 7 17 15 17 17 0 8 -8 3 -21 -13z"/>
<path d="M1655 3519 c-66 -56 -151 -131 -190 -168 -38 -37 -105 -98 -147 -135
l-78 -68 1 -57 c1 -41 3 -49 8 -31 l7 25 22 -34 c11 -19 19 -38 16 -42 -6 -10
24 -5 33 6 4 4 1 5 -7 0 -22 -12 -2 6 45 40 22 16 44 35 48 42 5 7 12 11 16 9
4 -3 52 29 106 70 98 74 123 95 95 79 -13 -8 -13 -7 -1 8 15 18 26 23 16 7
-10 -16 11 -12 25 5 7 8 9 15 5 15 -4 0 -1 7 6 16 7 9 16 37 20 63 l6 46 2
-45 c0 -26 -4 -51 -11 -58 -7 -7 -8 -12 -2 -12 6 0 23 14 40 32 16 18 21 26
12 19 -16 -12 -18 -10 -18 18 0 21 8 40 25 55 24 23 26 29 23 110 l-3 85 -120
-100z m115 -2 c0 -2 -10 -12 -22 -23 l-23 -19 19 23 c18 21 26 27 26 19z m-50
-41 c0 -2 -8 -10 -17 -17 -16 -13 -17 -12 -4 4 13 16 21 21 21 13z m-120 -99
c0 -2 -10 -12 -22 -23 l-23 -19 19 23 c18 21 26 27 26 19z m-8 -92 c-1 -27 3
-43 8 -40 23 14 8 -5 -19 -24 l-28 -20 9 47 c6 26 12 58 14 71 8 37 17 17 16
-34z m-84 -109 l37 26 -35 -30 c-44 -40 -50 -40 -49 1 2 30 2 30 6 4 l4 -27
37 26z"/>
<path d="M2547 3602 c-13 -14 -17 -35 -15 -88 2 -67 2 -67 5 -14 3 41 10 61
29 81 13 14 21 28 17 32 -10 11 -19 8 -36 -11z"/>
<path d="M3530 3443 c-146 -84 -305 -175 -355 -202 -49 -27 -160 -90 -244
-140 -85 -50 -159 -91 -163 -91 -9 0 1 -228 11 -246 4 -8 35 5 91 37 82 47 85
50 91 91 5 38 6 39 7 11 3 -47 22 -41 22 6 0 35 4 42 38 62 20 13 48 30 62 38
l24 16 -18 -31 c-21 -35 -16 -67 9 -58 11 4 15 21 15 58 0 35 3 47 10 36 7
-11 11 -4 16 26 6 41 41 74 77 74 8 0 21 7 28 17 12 14 15 8 20 -53 l5 -69 2
93 c2 116 21 124 24 10 l2 -83 6 85 6 85 2 -79 c2 -58 5 -77 15 -73 6 3 53 27
102 54 l90 50 5 93 c3 62 9 95 18 98 9 3 12 -19 14 -85 2 -79 2 -81 5 -23 2
36 7 68 11 72 4 4 5 -22 4 -57 -2 -36 0 -65 4 -65 4 0 54 25 111 55 57 30 107
55 111 55 11 0 -117 -73 -265 -151 -172 -90 -478 -259 -645 -355 -69 -41 -128
-74 -131 -74 -2 0 -5 30 -6 67 -3 91 -11 94 -11 5 0 -39 5 -74 10 -77 6 -4 70
27 143 68 183 103 517 285 731 399 l180 95 -3 114 c-2 63 -6 132 -10 155 l-6
40 -265 -153z m135 -83 c-3 -5 -12 -10 -18 -10 -7 0 -6 4 3 10 19 12 23 12 15
0z m-40 -20 c-3 -5 -12 -10 -18 -10 -7 0 -6 4 3 10 19 12 23 12 15 0z"/>
<path d="M3221 3535 c1 -16 5 -43 9 -60 7 -27 8 -26 9 15 0 25 -4 52 -9 60 -7
11 -9 8 -9 -15z"/>
<path d="M2782 3525 c0 -16 2 -22 5 -12 2 9 2 23 0 30 -3 6 -5 -1 -5 -18z"/>
<path d="M4970 3456 c-74 -39 -243 -129 -375 -200 -132 -71 -276 -148 -320
-172 l-80 -42 3 -71 c2 -39 8 -71 13 -71 6 0 7 26 3 64 l-7 64 51 26 c28 14
53 26 56 26 2 0 7 -27 11 -59 l7 -60 70 37 c70 36 70 37 64 72 -3 19 -6 43 -6
53 0 17 -6 16 -54 -11 -30 -17 -56 -28 -60 -25 -3 4 36 30 87 59 102 59 105
58 106 -23 1 -23 6 -45 11 -48 7 -4 8 17 4 62 l-6 68 44 23 c23 13 92 50 151
83 59 32 112 59 117 59 4 0 13 -28 19 -62 l10 -63 -4 57 c-3 31 -7 62 -10 70
-3 9 36 34 120 76 69 35 125 68 125 73 0 15 -8 11 -150 -65z"/>
<path d="M1505 3450 c-21 -22 -35 -40 -29 -40 5 0 28 18 49 40 21 22 35 40 29
40 -5 0 -28 -18 -49 -40z"/>
<path d="M5070 3453 c-25 -14 -46 -27 -47 -27 0 -1 3 -24 9 -53 l10 -52 39 20
c39 19 39 20 39 79 0 33 -1 60 -2 60 -2 0 -23 -12 -48 -27z"/>
<path d="M2343 3446 c-31 -26 -33 -32 -33 -92 l0 -65 31 18 c39 23 41 27 37
103 l-3 63 -32 -27z"/>
<path d="M5002 3390 c0 -14 2 -19 5 -12 2 6 2 18 0 25 -3 6 -5 1 -5 -13z"/>
<path d="M2074 3342 c-49 -32 -97 -61 -106 -65 -20 -7 -24 -51 -8 -107 5 -19
11 -46 14 -60 2 -14 6 -31 8 -39 1 -7 -3 -16 -11 -19 -9 -3 -11 0 -6 8 5 9 4
11 -4 6 -6 -4 -9 -11 -6 -16 3 -5 -3 -13 -12 -19 -10 -5 -15 -12 -12 -15 8 -8
120 74 114 84 -3 5 21 27 54 50 l59 41 4 102 c3 56 4 103 3 105 -1 1 -42 -24
-91 -56z m-44 -247 c0 -2 -10 -9 -22 -15 -22 -11 -22 -10 -4 4 21 17 26 19 26
11z"/>
<path d="M2773 3325 c0 -27 2 -38 4 -22 2 15 2 37 0 50 -2 12 -4 0 -4 -28z"/>
<path d="M1038 3241 l-128 -106 2 -65 2 -65 3 61 4 62 81 63 c45 35 85 63 90
62 4 -2 7 1 6 7 -2 5 15 25 37 44 22 19 38 36 35 39 -3 3 -62 -43 -132 -102z"/>
<path d="M4788 3310 l-67 -34 6 -51 c3 -27 8 -52 10 -55 2 -2 34 12 72 30 l67
35 -10 55 -11 55 -67 -35z"/>
<path d="M5011 3324 c0 -11 3 -14 6 -6 3 7 2 16 -1 19 -3 4 -6 -2 -5 -13z"/>
<path d="M1903 3250 c0 -47 2 -66 4 -42 2 23 2 61 0 85 -2 23 -4 4 -4 -43z"/>
<path d="M2525 3271 c-16 -10 -79 -49 -140 -87 -60 -37 -150 -97 -200 -134
-49 -36 -129 -92 -177 -124 l-88 -58 7 -42 c3 -22 10 -51 14 -64 5 -13 9 -37
9 -53 0 -16 4 -29 9 -29 20 0 134 83 138 101 3 10 9 17 13 14 5 -3 11 -1 15 5
4 6 11 8 16 5 15 -10 29 42 29 111 0 39 4 64 11 64 7 0 9 -28 7 -84 l-4 -84
-100 -67 c-54 -37 -106 -74 -115 -81 -17 -15 -33 -19 -25 -5 3 4 -1 17 -9 27
-13 17 -14 17 -6 -11 4 -16 6 -37 3 -45 -3 -10 3 -8 19 7 27 24 315 213 492
322 65 40 116 75 113 78 -3 3 -45 -20 -95 -52 -49 -31 -95 -54 -101 -50 -6 3
-9 1 -8 -6 2 -6 -3 -14 -11 -17 -9 -3 -11 0 -6 8 5 9 4 11 -4 6 -6 -4 -9 -11
-6 -16 3 -4 -25 -26 -61 -49 -66 -41 -88 -51 -66 -29 7 7 12 40 12 80 0 64 2
70 33 97 l32 30 6 -77 6 -77 0 88 0 88 72 44 c39 24 71 41 71 38 0 -3 8 5 18
17 l18 22 0 -23 c0 -13 2 -53 4 -89 l4 -65 5 70 6 70 47 30 c44 28 47 33 47
73 1 48 -8 52 -54 23z m45 -25 c0 -2 -8 -10 -17 -17 -16 -13 -17 -12 -4 4 13
16 21 21 21 13z"/>
<path d="M4630 3224 c-25 -14 -47 -30 -48 -35 -2 -5 -8 -6 -14 -3 -7 5 -8 -9
-3 -42 4 -27 9 -51 11 -53 4 -5 114 50 120 61 7 11 -6 98 -15 98 -3 0 -26 -12
-51 -26z"/>
<path d="M1685 3169 c-164 -120 -371 -249 -400 -249 -3 0 -5 6 -5 14 0 8 -4
17 -8 20 -5 3 -9 -21 -10 -53 -1 -49 2 -60 17 -64 10 -2 29 4 42 15 13 11 18
16 10 12 -9 -5 -12 -3 -7 5 4 6 12 8 18 5 6 -4 20 4 30 17 11 13 17 17 13 9
-4 -8 3 -4 15 10 12 14 18 18 14 10 -7 -13 -5 -13 12 -1 10 8 30 26 43 40 13
14 20 19 16 11 -4 -8 3 -4 15 10 12 14 18 18 14 10 -7 -13 -4 -12 16 1 14 9
49 31 77 48 29 18 52 37 50 43 -1 6 4 12 11 14 7 1 9 1 5 -2 -5 -2 -7 -35 -5
-72 l4 -69 -99 -58 c-54 -32 -150 -92 -213 -132 -68 -43 -118 -69 -124 -63
-13 13 2 74 26 106 20 27 20 28 2 11 -11 -9 -24 -14 -29 -10 -4 5 -5 2 -1 -4
4 -7 2 -13 -3 -13 -12 0 -15 -82 -4 -94 4 -3 7 -14 8 -24 1 -9 12 -51 25 -92
23 -77 51 -120 76 -116 22 3 65 49 59 64 -2 7 0 10 5 7 6 -3 10 -1 10 5 0 6 4
9 9 6 12 -8 335 223 326 233 -3 2 -21 -9 -42 -25 -94 -70 -109 -79 -90 -58 11
13 17 37 17 65 0 51 5 59 78 118 28 24 52 48 52 54 0 7 -7 25 -15 41 -8 15
-15 40 -15 55 0 47 12 101 21 95 5 -3 9 18 9 45 0 28 -1 51 -3 51 -1 0 -34
-23 -72 -51z m-65 -103 c0 -3 -15 -14 -32 -26 l-33 -22 30 26 c31 27 35 29 35
22z m94 -69 c8 -13 7 -20 -4 -27 -24 -16 -30 -12 -30 21 0 33 16 36 34 6z
m-189 -374 c-38 -28 -72 -50 -74 -48 -2 3 -10 -3 -18 -13 -9 -11 -12 -11 -7
-2 6 12 4 13 -7 3 -22 -21 -28 -15 -17 20 5 17 11 42 13 54 4 26 13 43 24 43
12 0 20 -35 11 -51 -4 -8 -4 -23 0 -34 7 -18 8 -18 15 -3 4 10 5 37 4 62 -4
40 3 57 26 67 41 17 85 57 87 79 1 14 4 -9 7 -50 l6 -75 -70 -52z m-145 -116
c0 -2 -10 -12 -22 -23 l-23 -19 19 23 c18 21 26 27 26 19z"/>
<path d="M1428 2643 c7 -3 16 -2 19 1 4 3 -2 6 -13 5 -11 0 -14 -3 -6 -6z"/>
<path d="M1062 3145 c0 -16 2 -22 5 -12 2 9 2 23 0 30 -3 6 -5 -1 -5 -18z"/>
<path d="M4163 3105 c0 -27 2 -38 4 -22 2 15 2 37 0 50 -2 12 -4 0 -4 -28z"/>
<path d="M3557 3011 c-139 -70 -374 -190 -523 -265 l-271 -138 -7 -60 c-8 -84
-5 -1240 4 -1203 7 30 7 30 13 5 4 -14 8 -36 9 -50 4 -25 8 -27 43 -14 l20 7
-20 -17 c-13 -11 -15 -16 -5 -13 8 2 45 12 83 22 37 10 67 22 67 26 0 5 12 4
26 -2 38 -14 40 -5 4 13 -28 14 -29 16 -11 21 17 4 21 15 24 73 l3 69 2 -67
c2 -59 4 -67 20 -61 14 5 13 3 -3 -10 -50 -39 26 -20 134 33 24 12 65 23 90
25 46 2 173 42 245 76 22 11 46 19 53 19 7 0 13 5 13 11 0 7 9 9 21 6 12 -3
22 0 26 9 3 8 9 12 13 9 5 -3 11 -1 15 5 3 5 3 10 -2 10 -11 0 -224 -73 -308
-105 -38 -15 -85 -29 -104 -31 -18 -2 -41 -9 -51 -14 -26 -14 -40 -12 -35 3 3
6 1 45 -3 85 -6 54 -5 75 4 83 10 8 14 -2 18 -43 12 -106 14 -111 13 -28 l-2
84 38 15 c50 19 57 8 56 -82 -1 -37 1 -71 5 -74 3 -4 6 34 6 84 0 61 4 94 13
100 6 5 77 32 157 61 80 28 153 54 162 57 15 6 18 -3 21 -92 l3 -98 3 105 c3
102 3 104 16 65 8 -22 14 -66 14 -99 1 -42 4 -57 14 -53 6 2 58 19 115 38
l102 33 0 89 c0 67 -3 88 -12 84 -112 -42 -221 -77 -226 -73 -8 9 -7 9 116 56
l112 43 0 68 c0 38 -2 69 -4 69 -2 0 -68 -27 -147 -61 -290 -123 -370 -154
-649 -251 -157 -54 -292 -101 -301 -104 -12 -4 -18 3 -23 26 -3 18 -6 215 -6
439 1 361 2 402 15 373 8 -18 17 -55 21 -82 4 -28 10 -50 14 -50 3 0 42 19 86
43 213 116 274 151 274 159 0 12 -5 11 -80 -27 -38 -19 -72 -35 -75 -35 -3 0
-5 17 -5 38 0 29 3 34 11 22 8 -11 9 -3 5 33 -3 28 -2 47 4 47 6 0 10 -26 10
-58 l0 -59 60 30 60 30 0 68 c0 38 -2 69 -4 69 -3 0 -17 -5 -33 -10 l-28 -10
25 20 c14 11 35 20 47 20 19 0 22 -8 31 -72 l9 -73 2 81 1 82 98 55 c161 91
302 167 309 167 3 0 53 25 110 57 l103 56 0 69 c0 42 -4 68 -11 68 -6 0 -124
-58 -262 -129z m-565 -528 c6 -13 9 -26 5 -29 -3 -3 -2 -16 3 -28 7 -21 2 -26
-60 -58 -38 -20 -66 -39 -62 -43 3 -3 -2 -3 -12 1 -13 5 -17 4 -12 -4 3 -6 2
-13 -4 -17 -5 -3 -10 1 -10 9 0 8 28 29 65 47 l65 32 1 71 c0 39 3 64 6 56 2
-8 9 -25 15 -37z m127 -938 c-3 -2 -38 -18 -79 -35 -41 -17 -83 -35 -92 -40
-10 -6 -18 -6 -18 -1 0 5 39 25 88 44 81 34 112 43 101 32z m1 -164 c-8 -5
-26 -11 -40 -15 -21 -5 -20 -3 5 9 32 15 60 20 35 6z m-167 -52 c7 0 1 -5 -12
-10 -13 -5 -26 -7 -29 -4 -3 3 0 5 6 5 7 0 13 15 13 33 2 30 2 30 6 5 2 -16
10 -28 16 -29z"/>
<path d="M2358 3092 l-58 -37 2 -80 2 -80 3 67 4 66 50 32 c45 30 81 70 62 70
-4 0 -34 -17 -65 -38z"/>
<path d="M1110 3084 c-62 -49 -62 -49 -32 -51 56 -5 70 4 74 47 2 22 3 40 3
39 0 0 -20 -16 -45 -35z"/>
<path d="M3173 3040 c0 -30 2 -43 4 -27 2 15 2 39 0 55 -2 15 -4 2 -4 -28z"/>
<path d="M1019 3013 c-13 -16 -12 -17 4 -4 9 7 17 15 17 17 0 8 -8 3 -21 -13z"/>
<path d="M1893 2930 c0 -41 2 -58 4 -37 2 20 2 54 0 75 -2 20 -4 3 -4 -38z"/>
<path d="M4830 2876 c-151 -67 -347 -157 -434 -199 -87 -42 -165 -77 -172 -77
-7 0 -15 18 -19 43 -27 188 -33 222 -34 172 0 -65 23 -194 42 -231 10 -19 18
-75 22 -157 9 -148 24 -169 38 -52 3 23 4 20 6 -12 0 -24 6 -43 11 -43 6 0 33
11 60 25 l50 25 0 58 c0 31 -3 73 -6 93 l-6 37 -54 -24 c-104 -46 -53 -14 85
54 l140 68 6 -76 c10 -133 25 -147 20 -20 -3 114 -3 114 6 35 17 -137 28 -150
22 -25 l-6 116 99 46 c54 25 102 43 105 40 4 -4 12 -50 18 -102 7 -52 13 -96
15 -97 2 -2 11 -1 20 3 14 5 15 19 10 103 l-6 96 108 53 c60 29 116 57 124 61
16 9 28 111 13 111 -4 -1 -132 -56 -283 -124z"/>
<path d="M898 2967 c-16 -13 -28 -26 -28 -30 0 -12 59 25 64 40 8 19 -5 15
-36 -10z"/>
<path d="M1069 2963 c-13 -16 -12 -17 4 -4 9 7 17 15 17 17 0 8 -8 3 -21 -13z"/>
<path d="M4173 2935 c0 -27 2 -38 4 -22 2 15 2 37 0 50 -2 12 -4 0 -4 -28z"/>
<path d="M943 2955 c-3 -9 -3 -18 -1 -21 3 -3 8 4 11 16 6 23 -1 27 -10 5z"/>
<path d="M3736 2924 c-77 -40 -87 -48 -82 -67 3 -12 6 -47 6 -79 l0 -56 90 41
90 42 0 42 c0 76 -3 77 -91 33 -43 -22 -79 -37 -79 -32 0 4 36 26 80 47 56 27
80 44 80 57 0 10 -1 18 -2 17 -2 0 -43 -20 -92 -45z"/>
<path d="M1049 2923 c-13 -16 -12 -17 4 -4 9 7 17 15 17 17 0 8 -8 3 -21 -13z"/>
<path d="M1233 2895 c0 -27 2 -38 4 -22 2 15 2 37 0 50 -2 12 -4 0 -4 -28z"/>
<path d="M1009 2893 c-13 -16 -12 -17 4 -4 9 7 17 15 17 17 0 8 -8 3 -21 -13z"/>
<path d="M977 2780 c-87 -66 -153 -120 -147 -120 6 0 10 -32 10 -80 l0 -81 31
35 c16 19 36 33 43 30 9 -3 16 5 21 23 7 25 8 26 15 8 7 -18 9 -18 19 8 6 16
11 34 11 41 0 8 6 18 13 24 10 9 12 4 9 -25 -3 -25 -1 -34 7 -29 6 4 11 24 12
44 1 33 2 34 9 12 8 -23 8 -24 9 -3 1 29 48 72 72 66 23 -6 31 22 27 104 l-3
62 -158 -119z m123 -4 c0 -2 -8 -10 -17 -17 -16 -13 -17 -12 -4 4 13 16 21 21
21 13z"/>
<path d="M5076 2867 l-28 -12 5 -95 c5 -90 5 -91 -4 -30 -19 124 -9 115 -90
75 l-70 -36 6 -57 c11 -100 15 -114 33 -107 9 3 56 23 104 43 l88 37 0 98 c0
53 -3 97 -7 96 -5 -1 -21 -6 -37 -12z"/>
<path d="M919 2843 l-24 -28 28 24 c25 23 32 31 24 31 -2 0 -14 -12 -28 -27z"/>
<path d="M1710 2854 c0 -8 5 -12 10 -9 6 3 10 10 10 16 0 5 -4 9 -10 9 -5 0
-10 -7 -10 -16z"/>
<path d="M949 2843 c-13 -16 -12 -17 4 -4 9 7 17 15 17 17 0 8 -8 3 -21 -13z"/>
<path d="M2505 2828 c-27 -18 -130 -71 -227 -120 -98 -48 -215 -110 -260 -139
-46 -28 -93 -55 -105 -60 -20 -7 -22 -5 -26 34 -2 23 -4 2 -5 -48 -1 -61 1
-85 8 -75 8 12 10 11 10 -7 0 -13 4 -23 9 -23 6 0 13 -20 17 -45 6 -44 7 -45
40 -43 19 1 34 5 34 9 0 4 6 6 14 5 8 0 39 21 70 47 55 47 56 49 56 101 0 35
5 58 15 66 8 7 15 18 15 26 0 7 3 15 8 17 4 3 7 -39 7 -92 l1 -97 -98 -52
c-55 -29 -103 -50 -109 -47 -5 4 -8 1 -7 -6 2 -8 -13 -21 -32 -31 -19 -10 -30
-18 -23 -18 7 0 63 28 125 63 62 35 166 87 231 116 64 30 120 57 123 62 5 9
-31 -5 -125 -50 -62 -29 -98 -32 -69 -6 13 12 151 86 297 159 40 21 71 40 68
42 -3 3 -29 -8 -58 -24 -30 -17 -64 -33 -76 -37 -22 -6 -23 -4 -23 64 l0 70
53 34 52 34 6 -31 6 -31 2 32 c1 21 8 36 21 43 15 8 20 21 20 50 0 22 -3 40
-7 40 -5 0 -30 -15 -58 -32z m-103 -219 l3 -71 -87 -44 c-99 -50 -95 -48 -101
-31 -2 6 -3 4 -2 -5 2 -10 -1 -21 -6 -24 -5 -3 -9 23 -9 58 l0 63 90 53 c50
29 90 57 90 62 0 6 4 10 9 10 5 0 11 -32 13 -71z"/>
<path d="M3478 2792 l-128 -67 1 -75 c1 -59 3 -68 9 -40 7 32 7 32 9 7 l1 -27
111 56 c61 30 113 53 116 50 3 -3 -50 -33 -118 -67 -68 -33 -126 -63 -128 -65
-34 -32 173 61 225 101 32 24 32 25 32 110 -1 47 -1 85 -2 85 0 0 -58 -31
-128 -68z m22 -17 c0 -2 -13 -11 -30 -20 -38 -19 -40 -11 -2 9 31 17 32 18 32
11z m-70 -40 c0 -6 -56 -35 -67 -35 -4 1 8 9 27 20 39 22 40 22 40 15z"/>
<path d="M861 2804 c0 -11 3 -14 6 -6 3 7 2 16 -1 19 -3 4 -6 -2 -5 -13z"/>
<path d="M1668 2814 c-5 -4 -8 -23 -8 -43 0 -25 3 -32 11 -24 6 6 9 25 7 43
-2 17 -6 28 -10 24z"/>
<path d="M3735 2739 c-54 -27 -102 -53 -105 -57 -6 -9 -12 -12 -197 -111 -82
-43 -159 -81 -173 -85 -23 -6 -23 -6 -5 5 11 7 22 15 25 19 3 4 16 13 28 19
41 22 16 23 -32 2 -39 -17 -46 -24 -44 -45 1 -14 4 -26 7 -26 14 0 367 189
386 206 13 12 26 20 28 17 8 -7 187 86 187 97 0 12 12 17 -105 -41z"/>
<path d="M3632 2740 c0 -14 2 -19 5 -12 2 6 2 18 0 25 -3 6 -5 1 -5 -13z"/>
<path d="M4706 2706 l-88 -40 6 -51 c3 -27 6 -69 6 -92 0 -28 4 -43 13 -43 6
0 49 16 95 37 l83 37 -7 68 c-4 38 -9 81 -13 97 l-6 28 -89 -41z"/>
<path d="M3273 2677 l-43 -21 0 -68 0 -68 25 12 c14 6 26 20 26 32 1 17 2 18
6 4 4 -14 8 -16 24 -8 16 9 19 22 19 75 0 36 -3 65 -7 64 -5 0 -27 -10 -50
-22z"/>
<path d="M4845 2549 c-148 -66 -346 -154 -440 -195 -157 -69 -205 -94 -179
-94 5 0 201 85 434 188 234 104 433 191 443 195 13 5 26 28 15 27 -2 0 -124
-55 -273 -121z"/>
<path d="M1045 2604 c-33 -24 -99 -74 -146 -110 l-85 -65 8 -72 c5 -40 10 -76
12 -82 1 -5 -4 -16 -13 -23 -9 -7 -2 -6 15 3 17 10 41 26 55 37 l24 20 -29
-17 c-16 -9 -26 -13 -22 -7 3 5 23 20 43 32 31 18 35 19 23 3 -13 -17 -13 -17
4 -2 10 9 21 31 25 49 4 19 19 42 36 56 l30 23 -1 -28 c0 -15 -4 -33 -8 -39
-4 -7 13 0 37 16 l45 27 7 99 c4 55 9 105 12 113 9 22 -9 14 -72 -33z m8 -196
c-11 -21 -18 -4 -14 30 l5 37 6 -30 c4 -16 5 -33 3 -37z"/>
<path d="M1213 2615 c0 -22 2 -30 4 -17 2 12 2 30 0 40 -3 9 -5 -1 -4 -23z"/>
<path d="M1580 2533 c-91 -64 -200 -141 -243 -171 -43 -30 -81 -61 -84 -69 -6
-14 8 -129 20 -181 5 -17 2 -22 -11 -20 -9 2 -16 -3 -14 -9 2 -12 -11 -18 -33
-13 -5 1 -7 -2 -3 -6 4 -4 3 -13 -3 -20 -6 -7 27 12 73 42 46 29 83 58 83 63
0 5 4 13 9 18 5 5 6 2 1 -6 -5 -9 -3 -12 6 -9 8 3 14 10 14 15 0 6 4 15 9 20
5 5 6 3 2 -4 -4 -7 -4 -13 0 -13 15 0 344 205 344 214 0 3 -8 3 -17 -1 -17 -6
-17 -5 0 14 9 11 17 30 17 42 0 19 -3 20 -21 10 -16 -8 -20 -18 -17 -44 3 -24
-1 -36 -14 -44 -10 -6 -19 -11 -21 -11 -6 0 4 75 13 95 5 11 11 40 13 65 3 43
4 43 5 -10 2 -54 2 -54 21 -35 14 15 21 42 26 103 4 45 3 82 -1 82 -5 0 -83
-53 -174 -117z m82 -107 l2 -88 -85 -55 c-46 -30 -96 -60 -110 -68 -25 -14
-27 -13 -22 6 4 13 11 18 23 14 12 -4 19 1 23 16 4 14 11 20 21 16 8 -3 17 1
20 9 3 9 10 13 14 10 5 -3 8 3 8 12 0 9 2 58 4 107 3 82 4 85 10 40 l7 -50 2
50 c2 28 5 44 8 37 4 -10 10 -10 28 2 l24 16 4 -53 c3 -51 3 -51 5 12 3 91 11
71 14 -33z m-327 -292 c-26 -20 -55 -36 -55 -30 0 5 63 46 70 46 3 -1 -4 -8
-15 -16z"/>
<path d="M3785 2588 c-145 -74 -916 -428 -930 -428 -3 0 -5 22 -5 49 l0 49
108 64 c59 35 142 81 185 101 44 21 76 41 72 47 -3 5 -9 10 -12 10 -4 0 -3 -3
0 -7 4 -4 -30 -25 -75 -47 -46 -23 -135 -70 -199 -106 l-116 -65 5 -56 c4 -51
3 -57 -17 -64 -25 -8 -26 -15 -6 -92 13 -53 23 -139 24 -220 1 -22 6 -33 15
-33 8 0 16 -5 18 -11 3 -9 12 -9 34 -1 l29 10 -29 1 c-24 1 -27 4 -18 13 10
10 17 10 33 0 18 -11 31 -9 90 14 38 15 69 31 69 36 0 10 -18 6 -94 -23 -28
-10 -52 -17 -54 -15 -2 2 13 10 32 17 l36 13 2 91 2 90 5 -87 c5 -74 8 -86 21
-78 8 5 15 13 16 17 0 4 4 16 9 26 6 15 10 16 17 5 5 -8 8 16 6 64 -3 76 -2
78 24 87 14 5 29 7 32 4 3 -4 6 -1 6 6 0 7 6 11 13 8 8 -3 14 4 15 19 l2 23
-82 -35 c-54 -23 -85 -31 -91 -25 -7 7 4 17 34 29 24 11 69 31 100 45 31 14
82 32 113 41 31 9 54 21 51 26 -3 5 0 7 8 4 8 -3 21 2 30 10 8 8 17 12 21 9 3
-4 6 -1 6 5 0 6 7 9 17 5 11 -4 14 -3 9 5 -4 8 -2 10 7 6 8 -3 21 2 30 10 8 8
17 12 21 9 3 -4 6 -1 6 5 0 6 7 9 17 5 11 -4 14 -3 9 5 -5 8 -1 10 10 5 12 -4
15 -3 10 5 -5 8 -1 10 10 5 13 -5 15 -3 9 7 -6 10 -4 12 8 7 10 -3 17 -3 17 2
0 4 6 8 13 8 6 0 44 16 84 36 39 19 74 33 77 30 3 -4 6 -1 6 6 0 7 5 9 10 6 6
-3 10 -1 10 5 0 6 5 8 10 5 6 -3 10 -1 10 5 0 6 5 8 10 5 6 -3 10 -2 10 4 0 6
7 7 17 4 12 -5 14 -3 8 7 -5 9 -4 11 3 6 7 -4 20 -2 29 4 16 10 16 11 -2 6
-19 -6 -19 -6 -1 9 10 8 23 16 28 17 5 2 8 35 6 75 l-3 71 -60 -30z"/>
<path d="M4458 2591 l-48 -26 0 -80 c0 -107 5 -112 66 -83 27 12 51 24 53 25
6 4 -11 193 -17 192 -4 -1 -28 -13 -54 -28z"/>
<path d="M1202 2475 c0 -16 2 -22 5 -12 2 9 2 23 0 30 -3 6 -5 -1 -5 -18z"/>
<path d="M2375 2355 c-93 -41 -235 -107 -314 -145 -114 -57 -142 -74 -138 -88
3 -9 12 -35 21 -57 8 -24 14 -74 14 -125 0 -47 1 -91 1 -99 1 -17 54 -8 90 16
25 17 30 19 51 22 6 0 11 39 12 89 l2 87 3 -72 c2 -40 7 -73 11 -73 23 1 31
22 33 95 2 83 10 120 25 120 23 2 54 17 49 26 -3 5 2 6 11 2 12 -4 15 -3 10 6
-4 6 -4 10 1 9 8 -2 272 128 286 141 4 5 7 33 5 64 l-3 57 -170 -75z"/>
<path d="M3765 2390 c-44 -21 -83 -36 -87 -34 -5 3 -8 0 -8 -6 0 -7 -6 -10
-14 -7 -12 5 -14 -12 -9 -106 3 -62 7 -114 9 -115 1 -2 51 18 109 44 l107 48
-6 60 c-3 32 -6 72 -6 87 l0 28 -56 -25 c-31 -14 -58 -23 -60 -21 -3 2 23 16
56 30 36 16 60 33 60 42 0 20 -2 19 -95 -25z"/>
<path d="M1191 2354 c0 -11 3 -14 6 -6 3 7 2 16 -1 19 -3 4 -6 -2 -5 -13z"/>
<path d="M947 2258 l-137 -91 0 -58 c0 -51 12 -84 22 -61 1 5 29 23 61 41 31
18 62 42 69 54 6 12 21 29 33 39 12 10 25 31 28 48 8 39 27 39 27 0 0 -16 -5
-30 -10 -30 -6 0 -10 -7 -8 -15 2 -8 -10 -26 -27 -41 l-30 -25 33 18 c72 39
80 52 85 136 2 42 1 77 -3 77 -3 0 -68 -41 -143 -92z"/>
<path d="M5075 2323 c-22 -9 -123 -52 -225 -95 -102 -44 -282 -120 -400 -170
-118 -49 -221 -95 -229 -103 -11 -11 -11 -22 -1 -63 6 -28 19 -53 27 -56 14
-6 14 -9 -2 -26 -9 -10 -14 -24 -10 -30 3 -6 3 -10 -2 -9 -12 4 -63 -23 -63
-33 0 -10 1 -10 46 6 22 7 45 11 52 9 9 -3 12 14 13 64 l1 68 8 -55 c5 -30 7
-58 4 -61 -2 -4 36 8 84 26 l87 33 -3 86 c-2 49 1 86 6 86 10 0 22 -70 22
-126 0 -19 3 -34 8 -34 4 0 58 18 120 41 l112 41 -6 67 c-3 36 -8 72 -10 80
-2 7 4 20 13 27 17 13 17 13 1 14 -19 0 -26 30 -8 30 6 0 10 -5 10 -11 0 -5 5
-7 10 -4 6 4 11 -9 12 -32 1 -36 1 -36 5 -6 3 22 9 32 21 31 9 0 60 18 112 39
88 37 95 42 98 70 2 22 10 33 25 37 11 3 23 4 24 2 2 -2 11 -50 19 -107 9 -57
17 -105 19 -107 2 -2 13 -1 24 3 20 6 21 13 21 146 0 76 -1 139 -2 138 -2 0
-21 -7 -43 -16z m-758 -510 c-2 -16 -4 -5 -4 22 0 28 2 40 4 28 2 -13 2 -35 0
-50z"/>
<path d="M3396 2224 c-114 -52 -214 -93 -221 -90 -10 4 -11 -2 -4 -27 5 -18 9
-68 9 -111 0 -44 3 -77 6 -73 3 3 6 44 6 91 l-1 86 36 15 c19 8 37 15 39 15 2
0 5 -37 7 -82 l3 -83 0 86 -1 87 48 18 c26 10 47 22 47 26 0 4 6 8 13 8 9 0
12 -25 10 -97 -1 -54 1 -88 4 -75 5 23 18 29 28 12 4 -6 17 -4 36 5 24 13 29
21 28 53 -1 40 -15 144 -18 127 0 -6 -11 -11 -23 -12 -17 -2 -15 2 13 19 19
12 62 34 97 50 34 17 62 34 62 39 0 5 -3 9 -7 9 -5 -1 -102 -44 -217 -96z"/>
<path d="M2468 2249 l-78 -39 2 -93 2 -92 3 80 4 81 69 34 c58 30 89 55 78 65
-2 2 -38 -15 -80 -36z"/>
<path d="M1182 2255 c0 -16 2 -22 5 -12 2 9 2 23 0 30 -3 6 -5 -1 -5 -18z"/>
<path d="M1920 2259 c0 -5 5 -7 10 -4 6 3 10 8 10 11 0 2 -4 4 -10 4 -5 0 -10
-5 -10 -11z"/>
<path d="M1690 2223 c-36 -19 -156 -87 -267 -149 -110 -63 -204 -114 -207
-114 -3 0 -6 12 -7 28 -1 25 -2 25 -12 -8 -5 -19 -9 -68 -8 -109 1 -41 -2 -77
-7 -80 -5 -3 -12 -24 -15 -46 -5 -35 -5 -38 8 -22 7 10 19 19 27 20 23 4 197
96 343 183 77 45 152 88 168 95 15 7 27 16 27 21 0 4 -25 -5 -56 -22 -66 -35
-65 -35 -58 -15 4 8 10 12 15 9 5 -3 12 2 15 10 3 9 10 14 14 11 10 -6 20 30
20 71 0 26 6 34 30 44 17 7 30 18 31 24 0 6 1 28 3 49 2 20 2 37 2 37 -1 0
-30 -17 -66 -37z m-78 -202 l3 -39 -105 -63 c-57 -35 -113 -62 -122 -62 -10 1
-17 -3 -15 -8 1 -5 -35 -29 -80 -54 -46 -24 -83 -40 -83 -35 0 5 10 12 21 15
13 4 17 10 11 14 -6 4 28 27 76 51 80 41 88 48 93 80 l6 35 2 -32 c1 -28 21
-60 21 -34 0 5 9 13 20 16 17 5 20 15 20 60 0 30 5 57 10 60 6 4 10 -14 11
-47 0 -29 3 -46 6 -38 4 8 12 21 20 28 7 7 13 22 13 33 0 10 6 19 13 19 8 0
20 11 27 25 17 32 27 24 32 -24z"/>
<path d="M1280 1810 c-19 -11 -31 -19 -27 -20 11 0 67 29 67 35 0 7 -1 7 -40
-15z"/>
<path d="M732 2198 c-54 -34 -75 -63 -22 -31 34 20 88 62 80 63 -3 0 -29 -15
-58 -32z"/>
<path d="M3533 2170 c0 -36 2 -50 4 -32 2 17 2 47 0 65 -2 17 -4 3 -4 -33z"/>
<path d="M3513 2155 c0 -38 2 -53 4 -32 2 20 2 52 0 70 -2 17 -4 1 -4 -38z"/>
<path d="M2278 2143 l-88 -47 0 -90 c0 -106 17 -108 22 -2 l3 70 68 36 c76 41
91 53 86 69 -2 5 -43 -11 -91 -36z"/>
<path d="M3796 2163 c-28 -14 -98 -45 -157 -68 -58 -24 -115 -47 -125 -53 -55
-28 -141 -66 -154 -68 -8 -2 -35 -12 -60 -23 -25 -11 -62 -27 -82 -35 -27 -11
-36 -20 -35 -35 1 -15 6 -20 17 -15 8 3 39 14 67 24 51 18 94 39 82 40 -4 0
-37 -11 -73 -25 -37 -14 -72 -25 -79 -24 -14 0 -9 3 135 63 59 25 130 57 158
71 28 14 87 39 130 55 120 44 250 102 250 112 0 14 -23 8 -74 -19z"/>
<path d="M4992 2165 c0 -16 2 -22 5 -12 2 9 2 23 0 30 -3 6 -5 -1 -5 -18z"/>
<path d="M1723 2138 c-17 -8 -23 -20 -23 -44 0 -32 1 -33 25 -22 19 9 25 19
25 45 0 18 -1 33 -2 32 -2 0 -13 -5 -25 -11z"/>
<path d="M1874 2020 c0 -74 1 -105 3 -67 2 37 2 97 0 135 -2 37 -3 6 -3 -68z"/>
<path d="M738 2117 c-23 -19 -27 -30 -30 -94 -2 -40 -1 -73 2 -73 3 0 13 7 23
14 12 10 17 29 18 72 1 52 3 55 9 24 7 -31 8 -29 9 23 0 31 0 57 -1 57 -2 0
-15 -10 -30 -23z"/>
<path d="M1173 2090 c0 -30 2 -43 4 -27 2 15 2 39 0 55 -2 15 -4 2 -4 -28z"/>
<path d="M3320 2055 c0 -41 3 -75 8 -75 4 0 7 34 7 75 0 41 -3 75 -7 75 -5 0
-8 -34 -8 -75z"/>
<path d="M5002 2100 c0 -19 2 -27 5 -17 2 9 2 25 0 35 -3 9 -5 1 -5 -18z"/>
<path d="M3353 2058 c1 -38 5 -68 10 -68 11 0 8 102 -3 120 -7 10 -9 -6 -7
-52z"/>
<path d="M954 2039 c-66 -34 -124 -65 -131 -71 -7 -5 -16 -7 -21 -4 -5 3 -9
-25 -9 -62 -1 -59 0 -62 6 -22 l6 45 14 -40 c20 -58 19 -58 57 -35 19 12 34
19 34 17 0 -9 -72 -50 -86 -50 -7 0 -11 -4 -8 -9 7 -10 109 47 109 61 0 5 4
13 9 18 5 5 6 2 1 -6 -5 -9 -3 -12 6 -9 8 3 13 11 11 17 -1 7 2 10 7 6 6 -3
22 2 36 11 21 13 25 24 25 63 0 25 5 53 11 61 7 11 9 0 7 -40 -3 -47 0 -56 14
-56 9 0 15 2 13 5 -3 2 -1 9 4 15 4 6 11 35 15 64 6 43 4 52 -6 46 -10 -5 -11
-4 0 7 14 15 16 29 3 29 -5 0 -62 -27 -127 -61z"/>
<path d="M2500 2080 c-9 -6 -10 -10 -3 -10 6 0 15 5 18 10 8 12 4 12 -15 0z"/>
<path d="M2415 2014 c-71 -35 -206 -99 -298 -141 -92 -42 -173 -83 -179 -90
-9 -11 -8 -13 3 -11 8 2 16 6 19 10 3 4 102 52 220 106 200 92 359 169 369
178 2 2 2 6 0 8 -2 2 -62 -25 -134 -60z"/>
<path d="M4153 1995 c0 -27 2 -38 4 -22 2 15 2 37 0 50 -2 12 -4 0 -4 -28z"/>
<path d="M2312 2010 c0 -14 2 -19 5 -12 2 6 2 18 0 25 -3 6 -5 1 -5 -13z"/>
<path d="M4763 1995 c0 -22 2 -30 4 -17 2 12 2 30 0 40 -3 9 -5 -1 -4 -23z"/>
<path d="M3435 1970 c-44 -21 -75 -38 -70 -39 6 0 46 18 90 39 44 21 76 38 70
39 -5 0 -46 -18 -90 -39z"/>
<path d="M3091 1984 c0 -11 3 -14 6 -6 3 7 2 16 -1 19 -3 4 -6 -2 -5 -13z"/>
<path d="M1163 1890 c0 -36 2 -50 4 -32 2 17 2 47 0 65 -2 17 -4 3 -4 -33z"/>
<path d="M1665 1859 c-396 -191 -455 -217 -455 -201 -1 14 -3 14 -12 -3 -6
-11 -19 -27 -29 -35 -15 -13 -18 -59 -28 -410 -19 -658 -20 -746 -13 -716 5
21 15 32 35 37 l29 8 -4 -44 c-2 -29 1 -46 9 -49 8 -4 13 11 15 46 3 48 5 52
38 65 19 7 24 11 10 8 -14 -3 -37 -8 -52 -11 -21 -5 -28 -3 -28 9 0 16 76 44
87 33 3 -2 -11 -8 -31 -11 -20 -4 -39 -11 -42 -16 -8 -13 3 -11 74 11 72 22
106 26 52 5 -19 -7 -30 -14 -25 -14 16 -2 186 52 181 57 -3 2 -28 -4 -56 -13
-28 -9 -53 -15 -56 -13 -2 3 14 10 35 17 38 11 40 13 45 64 4 28 7 76 9 106 2
49 4 54 27 58 14 2 31 11 38 20 6 9 12 15 13 12 7 -34 12 -179 7 -179 -5 0 -8
-9 -8 -21 0 -18 4 -20 33 -15 18 3 8 -3 -23 -13 -30 -11 -52 -19 -48 -20 13
-2 240 57 246 64 4 4 -2 5 -13 2 -43 -12 -89 -18 -79 -10 7 5 12 44 13 102 1
52 4 97 6 100 3 2 5 -27 5 -66 0 -62 2 -71 18 -68 9 1 11 0 5 -2 -20 -7 -16
-53 5 -53 27 0 41 14 39 38 -1 12 -4 22 -7 22 -3 0 -3 30 -2 66 3 48 0 69 -10
75 -10 7 -10 9 0 9 7 0 12 15 12 40 l0 39 -42 -15 c-57 -20 -425 -130 -463
-138 l-30 -7 3 53 c2 34 9 58 20 66 14 11 14 13 2 12 -27 -4 -40 0 -40 11 0 8
6 7 17 -2 15 -12 16 -12 10 5 -7 17 -6 17 10 5 15 -12 16 -12 10 4 -6 15 -4
16 15 6 17 -9 18 -13 7 -21 -11 -8 -10 -8 4 -4 10 3 21 6 24 6 3 0 -4 9 -17
20 -27 24 -14 27 18 5 20 -15 28 -13 109 19 49 20 138 54 198 76 61 22 99 38
85 35 -14 -3 -36 -7 -50 -10 -14 -3 -5 2 19 12 48 20 68 44 29 37 l-23 -5 22
12 c19 10 23 21 26 83 l3 71 2 -73 c2 -69 3 -72 22 -62 18 10 20 21 19 136 0
93 -3 124 -12 121 -140 -56 -275 -111 -322 -132 -33 -15 -93 -40 -132 -55
l-73 -28 0 55 0 54 68 30 c138 61 162 72 158 76 -2 3 -18 -3 -36 -12 -18 -9
-34 -14 -38 -11 -3 3 0 6 6 6 6 0 9 6 6 14 -3 8 -13 12 -22 10 -15 -5 -14 -4
1 6 19 12 41 5 32 -11 -9 -14 7 -10 45 12 19 11 28 18 19 16 -9 -3 -21 -2 -28
2 -8 6 -2 12 18 21 29 11 31 17 33 64 l1 51 7 -50 7 -50 1 51 c2 43 6 53 31
72 l29 21 4 -56 c2 -35 -2 -63 -10 -74 -11 -16 -11 -18 3 -13 37 15 10 -8 -42
-35 -32 -17 -55 -30 -50 -31 14 0 247 120 245 128 0 4 2 15 7 25 10 24 1 31
-18 13 -8 -8 -17 -13 -20 -10 -3 3 -24 -5 -46 -18 -29 -16 -41 -30 -41 -45 0
-13 -3 -23 -7 -23 -5 0 -6 33 -3 72 3 57 5 63 8 30 4 -55 25 -51 33 7 3 27 15
52 32 69 l27 27 0 -49 c0 -40 3 -47 16 -42 9 3 18 6 20 6 2 0 5 30 5 68 1 37
3 59 6 50 5 -20 12 -22 31 -9 9 5 12 29 10 78 l-3 70 -80 -38z m-16 -293 c-10
-9 -69 -36 -69 -32 0 7 52 35 64 36 5 0 7 -2 5 -4z m-358 -135 c-8 -5 -11 -16
-8 -25 4 -9 5 -16 3 -16 -2 0 -20 -7 -40 -15 -33 -14 -36 -14 -36 1 0 10 5 14
15 10 8 -3 15 -1 15 5 0 6 7 9 15 5 9 -3 15 0 15 9 0 11 -5 12 -25 5 -37 -14
-30 -1 8 15 36 16 59 19 38 6z m24 -21 c3 -5 2 -10 -4 -10 -5 0 -13 5 -16 10
-3 6 -2 10 4 10 5 0 13 -4 16 -10z m225 -224 c0 -74 2 -84 17 -82 9 2 19 9 21
16 3 9 -1 11 -14 6 -17 -7 -17 -6 0 13 10 11 16 23 13 28 -2 4 -1 28 3 53 l7
45 2 -57 c1 -39 5 -58 14 -58 9 0 8 -3 -2 -9 -7 -5 -11 -15 -9 -22 3 -10 -26
-25 -96 -51 -55 -20 -102 -35 -104 -33 -2 2 12 10 31 18 42 18 61 42 26 33
l-24 -6 23 11 c19 10 22 20 23 68 0 45 16 118 18 88 1 -5 8 -1 17 7 28 29 34
17 34 -68z m-180 -140 c-25 -13 -56 -27 -69 -31 -21 -6 -22 -5 -10 8 8 8 17
13 21 11 4 -3 24 4 45 15 21 11 43 20 48 20 6 0 -10 -10 -35 -23z m19 -21 c-9
-8 -79 -35 -79 -30 0 3 15 11 33 19 32 15 54 20 46 11z m214 -302 c-7 -2 -13
-14 -14 -26 0 -21 -1 -21 -8 -2 -8 20 3 35 24 34 6 0 4 -3 -2 -6z m34 -49 c-3
-3 -12 -4 -19 -1 -8 3 -5 6 6 6 11 1 17 -2 13 -5z m-237 -34 c-20 -13 -33 -13
-25 0 3 6 14 10 23 10 15 0 15 -2 2 -10z"/>
<path d="M3112 1881 c-23 -9 -40 -20 -36 -23 8 -9 60 11 75 28 6 8 10 14 8 13
-2 -1 -23 -9 -47 -18z"/>
<path d="M704 1853 l-41 -27 -7 -104 c-3 -58 -6 -136 -6 -175 0 -67 -1 -69
-22 -64 -13 3 -80 18 -150 33 l-127 27 -55 -37 c-31 -20 -56 -39 -56 -42 0 -7
29 10 69 40 41 30 52 33 45 9 -5 -14 -4 -15 4 -4 8 11 32 9 148 -15 77 -16
130 -30 119 -32 -11 -2 -28 -11 -37 -20 -10 -8 -18 -11 -18 -6 0 6 -10 10 -22
11 -13 1 -37 5 -54 8 -31 5 -31 5 -38 -46 -4 -28 -5 -53 -3 -55 2 -3 27 -7 55
-11 41 -5 52 -10 55 -27 4 -20 4 -20 6 1 0 14 15 32 36 45 26 17 35 30 35 51
0 15 4 27 8 27 5 0 14 84 21 188 9 127 17 191 26 201 11 11 12 -3 8 -89 l-6
-102 21 13 c19 12 22 24 24 79 4 117 4 126 12 138 12 19 -6 14 -50 -15z m23
-110 c-2 -21 -4 -4 -4 37 0 41 2 58 4 38 2 -21 2 -55 0 -75z m-199 -356 c3
-26 1 -28 -25 -25 -22 2 -29 9 -31 31 -3 26 -1 28 25 25 22 -2 29 -9 31 -31z
m39 -29 c-2 -13 -4 -3 -4 22 0 25 2 35 4 23 2 -13 2 -33 0 -45z"/>
<path d="M2435 1824 c-55 -25 -120 -55 -145 -67 -25 -12 -48 -21 -52 -20 -9 3
-159 -49 -245 -85 -40 -17 -72 -28 -72 -24 1 4 0 50 -1 102 l-3 95 -7 -125
c-4 -72 -3 -136 2 -150 5 -14 8 -52 7 -85 -3 -79 5 -97 38 -84 31 12 30 12 30
-7 0 -16 -55 -50 -65 -39 -4 3 0 10 8 15 13 8 12 10 -2 10 -16 0 -18 -13 -18
-129 0 -104 -3 -130 -15 -134 -11 -5 -15 7 -18 61 -2 37 -4 -135 -5 -381 l-2
-449 53 6 c28 4 69 9 90 12 l37 6 0 94 c0 56 4 94 10 94 6 0 10 -37 10 -91 l0
-91 33 6 c17 3 51 8 75 12 l42 7 0 48 0 49 -70 0 -70 0 0 39 c0 48 6 53 51 42
90 -23 89 -23 89 3 0 22 7 26 68 41 68 17 133 29 98 19 -16 -5 -18 -13 -12
-51 3 -25 6 -72 6 -104 l0 -59 33 1 32 2 -30 5 c-24 4 -16 8 45 21 l75 16 0
44 0 43 -67 27 c-36 14 -69 29 -72 32 -4 3 20 11 51 18 32 7 67 15 78 18 18 6
18 7 -5 14 -24 7 -24 7 -2 8 12 1 22 5 22 10 0 5 -26 3 -57 -4 -32 -8 -123
-27 -203 -44 -80 -16 -186 -39 -236 -50 -71 -16 -99 -18 -127 -10 l-37 10 0
109 c0 61 4 112 10 115 5 3 7 0 4 -8 -15 -41 51 -25 451 106 208 67 201 65
193 72 -3 3 -93 -24 -199 -60 -107 -36 -237 -77 -289 -91 -52 -14 -103 -28
-114 -31 -12 -3 -16 -1 -12 6 4 6 15 11 24 11 9 0 56 12 105 26 l87 27 1 121
c2 174 2 170 22 174 15 3 17 -9 18 -140 0 -96 3 -136 9 -120 6 15 18 22 35 22
l25 0 0 124 0 124 28 6 c15 4 36 9 47 12 18 4 18 4 3 -6 -16 -9 -18 -27 -18
-125 0 -113 3 -121 34 -109 23 9 22 81 -1 87 -17 4 -17 5 0 6 15 1 17 13 18
99 2 131 16 74 18 -70 1 -68 5 -108 12 -108 7 0 9 45 7 134 l-3 133 73 28 c51
19 72 33 72 45 0 15 -27 9 -200 -41 -164 -47 -341 -102 -407 -127 -10 -3 -13
20 -13 95 l0 98 83 37 c72 32 183 74 464 177 40 14 73 29 73 33 0 4 -35 -5
-77 -21 -43 -16 -130 -48 -193 -71 -63 -23 -148 -55 -189 -71 -74 -29 -104
-33 -59 -7 12 7 23 21 24 31 0 9 1 44 2 77 2 46 6 60 17 60 11 0 15 -12 15
-49 0 -28 4 -52 10 -56 5 -3 7 -12 4 -20 -4 -10 0 -12 15 -8 14 4 21 13 21 30
0 21 -2 23 -22 13 -22 -11 -22 -10 -4 4 11 9 23 16 28 16 4 0 8 10 9 23 0 21
1 21 8 2 5 -13 10 15 13 77 5 133 25 151 27 27 2 -100 11 -139 11 -46 0 89 8
101 94 132 65 24 76 31 76 51 0 13 5 24 10 24 6 0 11 -50 12 -127 1 -71 3
-111 5 -90 4 37 8 40 70 69 36 16 63 31 60 34 -3 3 -31 -8 -63 -24 l-59 -30 3
72 3 71 67 36 c47 25 68 42 70 57 2 12 0 22 -5 22 -4 0 -53 -21 -108 -46z
m-548 -876 c-3 -8 -6 -5 -6 6 -1 11 2 17 5 13 3 -3 4 -12 1 -19z m600 -304
c-3 -3 -12 -4 -19 -1 -8 3 -5 6 6 6 11 1 17 -2 13 -5z m-44 -11 c-7 -2 -19 -2
-25 0 -7 3 -2 5 12 5 14 0 19 -2 13 -5z m-426 -240 c-3 -10 -5 -4 -5 12 0 17
2 24 5 18 2 -7 2 -21 0 -30z"/>
<path d="M3010 1811 c-161 -62 -187 -68 -193 -44 -3 11 -5 6 -6 -12 0 -16 4
-37 9 -45 9 -13 10 -13 10 0 0 10 45 33 138 69 189 75 199 79 182 80 -8 0 -71
-22 -140 -48z"/>
<path d="M4163 1810 c0 -30 2 -43 4 -27 2 15 2 39 0 55 -2 15 -4 2 -4 -28z"/>
<path d="M945 1760 c-77 -44 -146 -80 -152 -80 -17 0 -16 -36 1 -63 8 -12 17
-39 19 -59 2 -21 7 -41 12 -45 4 -5 4 -2 0 6 -6 11 -4 13 9 8 9 -4 15 -3 12 2
-3 4 6 13 20 20 17 7 23 8 19 0 -4 -6 11 -1 34 10 23 12 41 24 41 27 0 2 -10
-1 -22 -7 -18 -9 -21 -9 -11 1 6 7 23 14 36 15 27 3 113 50 124 67 7 12 -6 6
-49 -24 -29 -20 -48 -24 -30 -6 7 7 12 29 12 49 0 22 7 42 17 50 15 13 16 10
11 -28 -6 -45 1 -54 23 -27 11 13 27 165 17 163 -1 0 -66 -36 -143 -79z m50
-100 c0 -27 -5 -52 -10 -54 -6 -2 -9 13 -7 38 6 78 17 89 17 16z"/>
<path d="M782 1735 c0 -16 2 -22 5 -12 2 9 2 23 0 30 -3 6 -5 -1 -5 -18z"/>
<path d="M1712 1668 c1 -73 4 -83 24 -64 18 18 19 57 1 50 -9 -3 -12 6 -9 36
2 23 0 40 -6 40 -6 0 -10 -27 -10 -62z"/>
<path d="M3558 1713 c-37 -15 -38 -17 -36 -62 l1 -46 7 45 7 45 3 -45 c2 -25
4 -58 4 -74 1 -16 7 -31 14 -33 9 -4 12 17 12 80 0 59 4 86 13 90 9 3 11 -15
9 -79 -4 -92 12 -117 20 -32 6 56 -1 129 -11 127 -3 -1 -23 -8 -43 -16z"/>
<path d="M4925 1658 c-99 -32 -254 -81 -345 -108 -91 -27 -201 -61 -245 -77
l-80 -28 5 -45 c3 -25 5 -91 5 -147 0 -55 4 -99 9 -96 4 3 7 -13 4 -36 -3 -37
-1 -42 17 -39 19 3 20 12 25 138 4 119 7 132 18 107 7 -17 12 -70 12 -128 0
-68 4 -99 11 -99 9 0 11 38 7 138 -2 75 -3 127 0 114 2 -15 9 -22 17 -18 8 3
17 1 20 -5 4 -5 11 -7 16 -4 5 4 9 -3 9 -14 0 -12 3 -21 8 -21 12 0 65 -90 68
-116 2 -21 -1 -24 -18 -18 -14 4 -18 2 -14 -5 4 -7 -1 -11 -13 -11 -11 0 -23
-5 -27 -12 -5 -8 -2 -9 11 -5 10 4 38 12 62 19 l45 11 -6 56 c-3 31 -8 95 -12
143 l-7 87 -69 -26 c-45 -16 -74 -21 -80 -15 -6 6 15 17 60 31 39 11 75 21 81
21 6 0 11 11 11 24 0 28 26 42 34 20 3 -9 7 -32 7 -52 1 -36 1 -37 8 -7 11 50
20 15 33 -119 10 -112 14 -126 30 -126 26 0 201 50 212 60 5 5 4 48 -3 102 -6
51 -14 130 -17 176 -5 76 -4 82 13 82 21 0 32 -47 54 -242 7 -60 17 -108 21
-108 5 0 7 8 4 18 -2 9 -10 72 -17 139 -6 68 -12 126 -13 130 -1 4 6 9 15 11
14 2 19 -19 34 -135 10 -76 19 -141 21 -144 3 -6 133 26 139 33 1 2 -4 59 -11
128 -16 151 -17 170 -5 170 5 0 13 -37 19 -82 l9 -83 2 138 c0 75 -2 137 -6
136 -5 -1 -89 -28 -188 -61z"/>
<path d="M2341 1701 c-10 -6 -15 -32 -17 -75 -3 -64 -3 -65 19 -55 19 9 22 17
19 57 -5 80 -6 82 -21 73z"/>
<path d="M3395 1657 l-90 -32 3 -84 c1 -47 4 -86 5 -87 1 -1 45 12 97 31 88
30 95 34 94 59 -2 113 -5 146 -11 145 -5 0 -48 -15 -98 -32z"/>
<path d="M4172 1635 c-1 -16 5 -192 13 -390 8 -198 19 -520 25 -715 5 -195 13
-394 16 -443 l7 -87 53 0 c47 0 53 3 57 23 l4 22 2 -22 c1 -22 4 -23 107 -23
l107 0 -7 46 c-3 26 -6 62 -6 81 0 28 -3 33 -17 29 -10 -2 -52 -8 -93 -11
-129 -12 -68 13 75 30 174 21 239 32 200 34 -17 0 -102 -8 -190 -19 -178 -22
-181 -23 -172 -14 4 4 88 17 188 30 100 13 184 25 186 28 2 2 1 60 -4 127 -6
90 -9 112 -13 79 l-5 -46 -173 107 c-122 76 -168 109 -155 113 10 2 79 17 153
31 74 15 140 31 146 36 16 13 24 -11 25 -74 1 -41 3 -47 9 -27 7 23 8 22 9
-10 1 -19 5 -30 9 -23 4 6 7 -12 8 -40 0 -45 23 -298 40 -454 l5 -53 63 0 62
0 -3 33 c-2 17 -17 162 -33 320 -17 159 -30 296 -30 306 0 14 16 20 83 32 45
7 86 14 92 14 5 0 17 -67 26 -150 43 -374 48 -424 55 -487 14 -147 24 -54 24
232 l0 301 -35 -7 c-38 -7 -40 -3 -47 78 -4 37 -3 38 37 46 l40 8 3 53 c3 47
1 52 -15 47 -10 -3 -148 -32 -308 -65 -159 -33 -343 -71 -408 -85 -65 -14
-125 -26 -133 -26 -10 0 -14 13 -14 48 0 26 -3 65 -7 87 -6 37 -7 38 -14 15
-4 -14 -6 49 -4 140 2 91 4 167 5 170 5 13 -2 149 -9 185 -5 22 -9 49 -10 60
-8 107 -28 303 -29 280z m373 -964 c-11 -10 -103 -27 -94 -17 3 3 23 10 45 15
54 12 60 13 49 2z m42 3 c-3 -3 -12 -4 -19 -1 -8 3 -5 6 6 6 11 1 17 -2 13 -5z
m-162 -24 c3 -5 -1 -10 -9 -10 -9 0 -16 5 -16 10 0 6 4 10 9 10 6 0 13 -4 16
-10z m-37 -15 c-11 -9 -78 -14 -78 -6 0 10 47 19 68 13 7 -3 12 -6 10 -7z
m-71 -107 c-3 -8 -6 -5 -6 6 -1 11 2 17 5 13 3 -3 4 -12 1 -19z m-30 -60 c-3
-7 -5 -2 -5 12 0 14 2 19 5 13 2 -7 2 -19 0 -25z m490 -190 c-3 -7 -5 -2 -5
12 0 14 2 19 5 13 2 -7 2 -19 0 -25z m10 -120 c-3 -7 -5 -2 -5 12 0 14 2 19 5
13 2 -7 2 -19 0 -25z m-410 -60 c-3 -7 -5 -2 -5 12 0 14 2 19 5 13 2 -7 2 -19
0 -25z m420 -60 c-3 -7 -5 -2 -5 12 0 14 2 19 5 13 2 -7 2 -19 0 -25z"/>
<path d="M3778 1593 c-67 -22 -108 -41 -108 -49 0 -8 3 -14 7 -14 24 0 233 76
230 84 -6 17 -20 15 -129 -21z"/>
<path d="M702 1581 c-14 -8 -31 -161 -18 -161 21 0 34 33 38 98 5 73 4 78 -20
63z"/>
<path d="M3790 1549 c-316 -100 -441 -142 -436 -146 3 -3 67 15 143 40 76 25
198 64 271 87 72 22 132 43 132 45 0 8 -11 5 -110 -26z"/>
<path d="M771 1527 c2 -25 5 -44 8 -41 6 6 1 77 -6 84 -2 2 -3 -17 -2 -43z"/>
<path d="M913 1466 l-162 -81 2 -70 1 -70 3 68 c2 37 7 67 12 67 11 0 61 -167
55 -184 -3 -8 -1 -17 4 -20 13 -8 43 4 37 14 -3 4 2 11 11 14 9 3 12 2 9 -5
-4 -6 22 4 57 22 34 17 65 35 66 40 2 5 9 9 15 9 7 0 23 10 37 21 l25 20 -32
-15 c-45 -22 -46 -21 -39 24 6 39 -6 55 -18 24 -10 -26 -7 -64 6 -64 7 0 -3
-11 -22 -25 -19 -14 -35 -25 -36 -25 -1 0 6 18 17 40 10 21 19 52 19 67 0 17
8 33 20 41 13 8 20 23 20 45 0 17 4 37 8 44 4 6 5 -29 4 -78 -4 -91 2 -104 30
-71 11 12 17 47 21 125 2 59 2 106 -2 106 -3 -1 -79 -38 -168 -83z m9 -205 c2
-22 0 -37 -4 -35 -8 5 -11 74 -4 74 2 0 6 -18 8 -39z"/>
<path d="M2233 1527 c-32 -15 -43 -27 -43 -44 0 -13 5 -23 11 -23 6 0 9 9 6
20 -4 16 4 25 41 45 26 13 43 24 37 24 -5 0 -29 -10 -52 -22z"/>
<path d="M4872 1430 c0 -14 2 -19 5 -12 2 6 2 18 0 25 -3 6 -5 1 -5 -13z"/>
<path d="M343 1390 c0 -25 2 -35 4 -22 2 12 2 32 0 45 -2 12 -4 2 -4 -23z"/>
<path d="M263 1393 c-32 -16 -33 -19 -31 -72 l2 -56 3 53 c4 46 8 54 34 67 16
9 29 18 29 20 0 6 1 7 -37 -12z"/>
<path d="M3300 1390 c-18 -12 -2 -12 25 0 13 6 15 9 5 9 -8 0 -22 -4 -30 -9z"/>
<path d="M4583 1350 c0 -25 2 -35 4 -22 2 12 2 32 0 45 -2 12 -4 2 -4 -23z"/>
<path d="M638 1348 c-2 -15 -18 -31 -45 -46 -43 -23 -43 -24 -44 -80 0 -78 -6
-143 -14 -150 -3 -3 -14 -1 -23 4 -9 6 -54 17 -99 24 -46 8 -83 17 -83 21 0 4
-15 10 -33 14 -66 13 -66 13 -70 68 l-3 52 -2 -51 -2 -51 -87 18 c-49 10 -99
18 -113 18 -37 -1 -8 -10 90 -28 l85 -17 -2 -119 c-3 -140 -27 -512 -48 -740
-8 -88 -18 -189 -21 -225 -3 -36 -3 -62 1 -58 12 11 60 612 81 1006 6 115 9
132 23 128 9 -3 33 -8 53 -11 20 -4 44 -16 54 -26 11 -13 24 -17 37 -13 16 5
19 3 14 -10 -4 -10 -1 -16 9 -16 11 0 13 -7 8 -27 -3 -16 -6 -39 -6 -53 0 -14
-3 -29 -8 -35 -26 -34 -60 -110 -60 -136 0 -17 -7 -37 -15 -45 -8 -9 -15 -33
-15 -55 0 -32 -3 -39 -19 -39 -16 0 -21 -9 -26 -43 -14 -109 -45 -451 -47
-532 l-3 -90 177 -2 177 -3 5 53 c3 28 11 135 16 237 10 184 17 281 45 625 8
98 12 182 9 184 -8 8 -23 -22 -17 -33 4 -5 -4 -7 -18 -3 -13 4 -27 7 -31 7 -5
0 -8 11 -8 24 0 19 9 29 40 43 37 17 40 21 40 61 0 23 -2 42 -4 42 -2 0 -20
-7 -40 -15 l-36 -15 0 32 c0 30 5 35 45 51 39 16 45 23 45 48 0 34 -7 38 -12
7z m-8 -146 c0 -22 -7 -32 -35 -45 l-35 -17 0 28 c0 22 7 32 33 45 17 8 33 16
35 16 1 1 2 -12 2 -27z m-183 -128 c-3 -3 -12 -4 -19 -1 -8 3 -5 6 6 6 11 1
17 -2 13 -5z m68 -14 c13 -5 14 -9 5 -9 -8 0 -24 4 -35 9 -13 5 -14 9 -5 9 8
0 24 -4 35 -9z m83 -127 c-10 -2 -26 -2 -35 0 -10 3 -2 5 17 5 19 0 27 -2 18
-5z m-251 -179 c-3 -3 -12 -4 -19 -1 -8 3 -5 6 6 6 11 1 17 -2 13 -5z m86 -11
c-7 -2 -19 -2 -25 0 -7 3 -2 5 12 5 14 0 19 -2 13 -5z m-47 -17 c1 0 -1 -16
-3 -34 -4 -24 -10 -32 -20 -28 -8 3 -23 6 -34 6 -16 0 -19 6 -16 35 2 34 3 35
37 29 19 -4 36 -7 36 -8z m121 8 c-3 -3 -12 -4 -19 -1 -8 3 -5 6 6 6 11 1 17
-2 13 -5z m-41 -14 c32 0 34 -2 34 -35 0 -33 -2 -35 -34 -35 -54 0 -66 8 -66
47 0 28 3 34 16 29 9 -3 31 -6 50 -6z m24 -218 l0 -37 -45 3 c-44 4 -45 5 -45
38 0 34 0 34 45 34 l45 0 0 -38z m-10 -128 c0 -10 -12 -14 -40 -14 -32 0 -40
4 -40 18 0 14 7 17 40 14 26 -3 40 -9 40 -18z m-14 -32 c5 -4 8 -27 6 -52 l-4
-45 -39 3 -39 4 0 49 c0 49 0 49 33 49 17 0 37 -4 43 -8z m-69 -228 c-3 -3
-12 -4 -19 -1 -8 3 -5 6 6 6 11 1 17 -2 13 -5z m-84 -31 c-13 -2 -33 -2 -45 0
-13 2 -3 4 22 4 25 0 35 -2 23 -4z m147 -28 c0 -35 0 -35 -45 -35 -45 0 -45 0
-45 35 0 35 0 35 45 35 45 0 45 0 45 -35z"/>
<path d="M4882 1345 c0 -16 2 -22 5 -12 2 9 2 23 0 30 -3 6 -5 -1 -5 -18z"/>
<path d="M690 1350 c-11 -6 -16 -32 -19 -91 -2 -58 0 -80 8 -75 6 4 11 17 12
29 0 21 1 21 8 2 6 -13 9 0 9 41 0 34 3 71 7 83 7 23 -1 26 -25 11z"/>
<path d="M3720 1303 c-191 -59 -525 -153 -546 -153 -8 0 -14 7 -14 15 0 8 -3
15 -8 15 -4 0 -78 -20 -164 -45 -86 -25 -159 -45 -162 -45 -2 0 -6 32 -8 70
-3 67 -2 71 20 77 33 8 169 62 157 63 -5 0 -48 -14 -95 -30 -47 -16 -86 -25
-88 -20 -2 6 -7 10 -10 10 -4 0 -6 -36 -3 -81 2 -65 0 -84 -14 -99 -15 -16
-16 -34 -10 -147 4 -70 7 -130 8 -133 1 -3 -3 -23 -8 -45 -8 -31 -11 9 -15
175 -5 196 -6 183 -8 -143 -2 -337 -1 -358 16 -353 19 5 243 48 502 95 260 48
270 50 270 71 0 22 -3 21 190 60 85 17 165 33 178 35 19 5 22 12 22 55 0 28
-4 50 -10 50 -5 0 -130 -27 -277 -60 -263 -60 -759 -166 -818 -176 -18 -3 -38
0 -49 9 -17 12 -18 20 -10 68 l9 54 78 20 77 19 2 116 2 115 3 -112 c2 -62 8
-113 13 -113 36 0 40 11 40 121 0 89 3 109 15 109 11 0 15 -21 18 -102 l3
-103 0 106 -1 107 73 18 c39 10 72 22 72 26 0 12 -29 9 -85 -7 -27 -9 -61 -13
-75 -10 -17 4 -20 3 -12 -3 11 -7 7 -11 -13 -16 -15 -4 -30 -5 -33 -1 -3 3 2
5 11 5 9 0 16 4 14 8 -4 14 66 69 103 80 52 17 92 22 104 15 6 -4 29 -7 51 -8
l40 -1 6 -75 5 -74 2 93 c2 70 5 93 15 90 8 -3 14 -45 17 -141 3 -75 8 -138
10 -140 3 -2 19 0 37 5 32 8 32 9 36 81 l3 72 2 -71 2 -72 47 12 46 12 -2 134
c-1 74 -4 137 -7 141 -5 8 53 36 85 41 13 1 26 -3 28 -9 3 -7 -3 -13 -12 -13
-13 0 -14 -2 -3 -14 9 -10 15 -11 20 -2 4 6 9 -38 11 -99 3 -69 3 -57 2 33 -1
78 1 142 5 142 11 0 18 -57 26 -198 8 -142 26 -161 35 -36 l5 79 2 -77 2 -76
28 7 27 8 -1 109 c-1 81 1 98 7 64 4 -25 8 -73 8 -106 l1 -62 33 8 c17 4 52
13 77 19 l45 12 -3 113 -3 114 -111 -29 c-61 -15 -115 -34 -119 -41 -6 -9 -9
-7 -9 8 0 18 16 25 121 55 l121 34 -6 29 c-3 16 -6 44 -6 62 0 19 -3 33 -7 33
-5 -1 -87 -26 -183 -56z m-243 -159 c-3 -3 -12 -4 -19 -1 -8 3 -5 6 6 6 11 1
17 -2 13 -5z m-40 -10 c-3 -3 -12 -4 -19 -1 -8 3 -5 6 6 6 11 1 17 -2 13 -5z"/>
<path d="M3086 1334 c-26 -9 -46 -17 -44 -20 5 -5 108 25 108 31 0 7 -9 5 -64
-11z"/>
<path d="M1871 1304 c0 -11 3 -14 6 -6 3 7 2 16 -1 19 -3 4 -6 -2 -5 -13z"/>
<path d="M4593 1240 c0 -30 2 -43 4 -27 2 15 2 39 0 55 -2 15 -4 2 -4 -28z"/>
<path d="M4892 1270 c0 -14 2 -19 5 -12 2 6 2 18 0 25 -3 6 -5 1 -5 -13z"/>
<path d="M333 1220 c0 -30 2 -43 4 -27 2 15 2 39 0 55 -2 15 -4 2 -4 -28z"/>
<path d="M2753 1215 c0 -33 2 -45 4 -27 2 18 2 45 0 60 -2 15 -4 0 -4 -33z"/>
<path d="M1871 1244 c0 -11 3 -14 6 -6 3 7 2 16 -1 19 -3 4 -6 -2 -5 -13z"/>
<path d="M2473 1229 l-53 -20 0 -115 c0 -127 -3 -123 76 -103 l44 11 0 124 c0
68 -3 124 -7 123 -5 0 -32 -9 -60 -20z"/>
<path d="M4840 1185 c-140 -35 -327 -80 -415 -100 -153 -36 -228 -63 -140 -52
93 12 835 197 835 208 0 13 -3 13 -280 -56z"/>
<path d="M1705 1170 c-3 -5 1 -10 9 -10 8 0 18 5 21 10 3 6 -1 10 -9 10 -8 0
-18 -4 -21 -10z"/>
<path d="M3527 1149 c-9 -6 -15 -15 -11 -20 3 -6 11 -3 19 8 7 10 16 15 19 12
3 -3 7 -60 10 -128 2 -67 7 -125 10 -128 8 -8 8 80 -1 185 -6 83 -11 91 -46
71z"/>
<path d="M915 1092 c-71 -31 -135 -61 -141 -67 -6 -6 -14 -64 -17 -130 -3 -66
-4 -115 -1 -108 3 6 71 38 152 69 164 65 157 62 150 70 -3 3 -27 -4 -52 -16
-75 -34 -92 -39 -105 -30 -9 5 -10 10 -2 14 6 4 11 2 11 -4 0 -6 5 -8 10 -5 6
4 8 10 6 14 -3 4 4 7 16 7 17 -1 21 6 25 44 2 25 9 49 14 54 5 6 9 21 9 34 0
13 7 31 16 39 14 15 15 9 12 -61 -3 -72 -2 -77 17 -74 18 3 20 12 23 106 1 56
-1 102 -5 101 -4 0 -66 -26 -138 -57z m40 -172 c3 -5 1 -10 -4 -10 -6 0 -11 5
-11 10 0 6 2 10 4 10 3 0 8 -4 11 -10z m-67 -49 c10 -6 5 -11 -19 -20 -18 -6
-34 -9 -37 -7 -2 3 -11 -1 -19 -9 -17 -17 -33 -20 -33 -5 0 10 67 49 85 49 6
1 16 -3 23 -8z"/>
<path d="M751 1083 c1 -57 1 -58 10 -18 11 55 11 75 -1 75 -6 0 -9 -25 -9 -57z"/>
<path d="M675 1117 c-18 -11 -20 -25 -23 -149 -2 -76 0 -138 5 -138 25 1 31
23 37 143 4 70 9 134 12 142 7 18 -4 19 -31 2z"/>
<path d="M3592 1085 c0 -16 2 -22 5 -12 2 9 2 23 0 30 -3 6 -5 -1 -5 -18z"/>
<path d="M3524 990 c0 -63 1 -89 3 -57 2 31 2 83 0 115 -2 31 -3 5 -3 -58z"/>
<path d="M3603 975 c0 -44 2 -61 4 -37 2 23 2 59 0 80 -2 20 -4 1 -4 -43z"/>
<path d="M0 996 c0 -30 4 -37 26 -42 24 -6 25 -9 19 -59 l-7 -52 48 -7 c26 -3
52 -11 59 -16 10 -8 14 9 19 71 4 45 10 87 13 94 4 13 -22 20 -139 41 l-38 6
0 -36z m118 -56 c7 0 12 -15 12 -40 l0 -41 -37 7 c-21 4 -38 7 -39 8 -1 0 1
18 4 39 4 34 7 38 26 33 11 -3 27 -6 34 -6z"/>
<path d="M982 970 c0 -19 2 -27 5 -17 2 9 2 25 0 35 -3 9 -5 1 -5 -18z"/>
<path d="M3125 979 c-22 -10 -48 -19 -57 -19 -14 0 -16 -13 -17 -95 -1 -107
-4 -104 77 -80 l51 16 -6 97 c-3 53 -6 97 -7 98 -1 1 -19 -7 -41 -17z"/>
<path d="M3710 910 c-107 -26 -240 -58 -295 -71 -55 -12 -94 -24 -87 -27 18
-6 539 116 587 138 42 19 -14 8 -205 -40z"/>
<path d="M3190 870 c0 -33 4 -60 9 -60 5 0 8 27 7 60 -1 78 -16 78 -16 0z"/>
<path d="M1462 810 c0 -14 2 -19 5 -12 2 6 2 18 0 25 -3 6 -5 1 -5 -13z"/>
<path d="M3270 810 c-14 -4 -126 -34 -250 -66 -124 -31 -228 -60 -231 -63 -4
-3 -3 -15 1 -26 9 -20 9 -20 9 0 1 18 30 28 256 85 140 36 255 68 255 73 0 8
-7 8 -40 -3z"/>
<path d="M650 772 c-11 -5 -16 -29 -18 -99 -2 -51 1 -93 5 -93 5 0 17 6 27 13
15 11 17 26 14 95 -2 48 1 84 7 86 6 3 3 4 -5 5 -8 0 -22 -3 -30 -7z"/>
<path d="M900 719 c-63 -21 -123 -38 -132 -39 -22 0 -26 -17 -32 -173 -5 -116
-4 -127 10 -113 8 9 24 16 35 16 11 0 19 7 19 16 0 8 5 12 11 9 5 -4 22 -4 37
0 20 5 23 8 11 16 -8 5 -9 9 -2 9 6 0 20 3 30 6 15 5 15 4 3 -5 -22 -16 -6
-14 82 10 43 12 78 25 78 30 0 6 -8 5 -19 -1 -29 -15 -49 -12 -54 8 -2 9 -3 7
-2 -5 1 -14 -3 -23 -11 -23 -11 0 -14 21 -13 98 1 53 4 87 6 75 2 -13 8 -23
13 -23 5 0 11 -12 13 -27 2 -16 5 -3 6 28 1 43 5 58 18 63 9 4 21 2 27 -4 8
-8 6 -9 -6 -5 -14 5 -17 -2 -22 -47 -4 -29 -6 -62 -5 -73 0 -11 -2 -30 -6 -42
-9 -27 6 -30 29 -7 17 16 22 44 8 44 -5 0 -5 21 0 48 4 26 11 71 14 100 7 64
10 64 -146 11z"/>
<path d="M0 617 l0 -116 48 -6 c64 -9 72 -12 72 -29 0 -13 -39 -14 -102 -1
-16 3 -18 -8 -18 -120 l0 -122 51 -7 c40 -5 50 -10 45 -22 -3 -9 -6 -25 -6
-37 0 -20 -4 -22 -45 -19 -35 3 -45 1 -45 -11 0 -17 21 -27 57 -27 23 0 25 -3
19 -31 -3 -17 -6 -37 -6 -45 0 -9 -10 -11 -35 -7 -23 4 -35 2 -35 -6 0 -6 17
-11 40 -11 33 0 40 4 45 23 9 43 35 293 51 491 8 110 17 203 20 208 3 4 0 8
-5 8 -6 0 -11 -5 -11 -11 0 -6 -8 -8 -17 -5 -10 2 -42 8 -70 11 l-53 7 0 -115z"/>
<path d="M1921 614 c0 -11 3 -14 6 -6 3 7 2 16 -1 19 -3 4 -6 -2 -5 -13z"/>
<path d="M2293 589 l-33 -10 0 -90 c0 -99 3 -103 60 -91 31 7 35 12 34 38 -1
16 -3 59 -4 97 -3 71 -4 71 -57 56z m43 -106 c-2 -9 -9 -19 -17 -21 -11 -3
-11 -1 1 7 8 6 11 11 7 11 -5 0 -5 5 -2 10 9 15 14 12 11 -7z"/>
<path d="M643 533 c-25 -5 -30 -25 -35 -140 -3 -52 0 -73 8 -73 8 0 15 33 19
100 4 55 11 100 15 100 5 0 6 -43 3 -95 -4 -62 -2 -95 4 -95 16 0 23 37 23
118 0 51 -4 72 -12 72 -9 0 -8 4 2 10 15 10 11 10 -27 3z"/>
<path d="M1485 444 c-132 -29 -250 -56 -261 -59 -18 -4 -23 1 -28 28 -4 18
-10 27 -14 21 -4 -6 -16 -14 -27 -18 -37 -11 -45 -51 -45 -213 l0 -153 40 3
c35 2 40 5 41 27 1 14 3 32 3 40 1 11 13 14 46 13 35 -2 40 0 25 7 -14 7 -8 8
25 4 35 -4 42 -3 30 6 -12 9 -7 11 22 7 24 -4 43 0 55 10 10 8 12 12 6 8 -10
-5 -13 9 -12 57 2 58 2 60 9 23 l7 -40 2 43 c1 38 3 42 26 42 25 0 30 -10 26
-52 -2 -12 5 -18 18 -18 12 0 21 -7 21 -15 0 -8 -5 -15 -12 -15 -6 0 -9 -2 -6
-5 3 -4 17 -3 32 1 25 6 25 6 29 128 l3 121 2 -122 c2 -122 14 -159 26 -83 8
50 33 54 39 8 3 -26 4 -23 4 10 -1 34 -4 42 -19 42 -15 0 -18 9 -18 56 0 34 4
53 10 49 6 -3 10 -1 10 5 0 6 10 8 26 4 19 -5 25 -3 20 4 -5 8 -2 10 8 6 12
-5 16 -21 16 -66 0 -72 22 -77 31 -7 l6 44 1 -42 c2 -31 6 -43 17 -43 12 0 15
17 15 95 0 52 -3 95 -7 94 -5 0 -116 -25 -248 -55z m45 -219 c0 -8 -2 -15 -4
-15 -2 0 -6 7 -10 15 -3 8 -1 15 4 15 6 0 10 -7 10 -15z"/>
<path d="M2508 433 c6 -2 18 -2 25 0 6 3 1 5 -13 5 -14 0 -19 -2 -12 -5z"/>
<path d="M2458 423 c6 -2 18 -2 25 0 6 3 1 5 -13 5 -14 0 -19 -2 -12 -5z"/>
<path d="M3720 384 c-107 -19 -357 -59 -555 -89 -198 -31 -372 -58 -387 -61
l-28 -6 0 -114 c0 -95 3 -114 15 -114 8 0 15 4 15 10 0 5 17 9 38 8 20 0 132
11 247 26 333 41 620 75 753 88 67 7 122 16 122 21 0 4 -19 6 -42 2 -24 -3
-140 -16 -258 -30 -554 -63 -747 -85 -768 -90 -15 -4 -21 -2 -17 5 3 5 15 10
26 10 10 0 19 6 19 13 0 8 3 8 8 1 4 -6 28 -8 62 -5 l55 6 6 85 5 85 2 -82 2
-83 29 0 c58 0 61 5 61 93 0 101 8 97 11 -6 3 -73 5 -78 24 -73 11 3 30 6 43
6 15 0 26 9 32 26 8 19 16 25 30 21 14 -4 20 1 23 22 3 17 5 11 6 -16 1 -36 4
-43 21 -43 17 0 20 7 22 48 l1 47 4 -43 c5 -47 5 -47 123 -34 l55 7 6 90 5 90
2 -87 c2 -81 4 -88 22 -88 12 0 20 7 21 18 0 10 3 12 6 5 2 -7 13 -13 23 -13
16 0 20 9 23 58 l3 57 2 -59 2 -58 31 6 c17 3 45 6 61 6 l29 0 -5 108 c-3 77
-2 93 4 57 4 -27 9 -74 9 -102 l1 -53 38 1 c20 0 57 4 81 7 l45 7 -3 115 c-1
63 -5 118 -9 121 -4 3 -95 -9 -202 -27z"/>
<path d="M985 326 c-22 -7 -88 -23 -147 -36 l-108 -23 0 -42 c0 -23 -3 -64 -7
-90 l-6 -48 34 7 c19 4 47 7 62 7 15 0 25 4 23 8 -3 5 14 6 38 4 39 -5 44 -3
50 18 4 14 9 19 13 11 6 -15 33 -16 33 -1 0 5 4 8 9 5 5 -3 13 31 19 77 l9 82
2 -77 c1 -62 4 -78 16 -78 12 0 15 17 15 95 0 52 -3 95 -7 94 -5 0 -26 -6 -48
-13z m-82 -203 c-7 -2 -19 -2 -25 0 -7 3 -2 5 12 5 14 0 19 -2 13 -5z"/>
<path d="M1720 270 c0 -16 5 -30 10 -30 6 0 10 14 10 30 0 17 -4 30 -10 30 -5
0 -10 -13 -10 -30z"/>
<path d="M1670 260 c0 -16 4 -30 9 -30 5 0 11 14 13 30 3 20 0 30 -9 30 -8 0
-13 -12 -13 -30z"/>
<path d="M1863 230 c0 -30 2 -43 4 -27 2 15 2 39 0 55 -2 15 -4 2 -4 -28z"/>
<path d="M655 262 c-64 -10 -60 0 -63 -137 -3 -104 -1 -125 11 -125 17 0 27
66 27 178 0 46 4 72 11 72 11 0 11 -13 -8 -192 -5 -54 -4 -58 15 -58 18 0 21
8 27 103 9 136 6 163 -20 159z"/>
<path d="M2260 205 c-135 -18 -278 -36 -317 -40 l-73 -7 0 -79 0 -79 175 0
175 0 0 90 c0 70 3 90 14 90 17 0 26 -43 26 -121 0 -33 4 -59 10 -59 6 0 10
30 10 70 0 49 4 70 13 71 6 0 33 4 60 8 l47 8 0 -79 c0 -63 3 -78 15 -78 12 0
15 18 16 98 1 53 3 89 6 78 4 -15 11 -17 41 -12 21 3 43 6 50 6 7 0 12 14 12
35 0 27 -4 35 -17 34 -10 -1 -128 -16 -263 -34z"/>
<path d="M1450 190 c-9 -6 -10 -10 -3 -10 6 0 15 5 18 10 8 12 4 12 -15 0z"/>
<path d="M4641 169 c-41 -5 -76 -10 -78 -12 -1 -2 0 -38 3 -80 l7 -77 88 0 89
0 0 44 c0 69 -12 136 -24 135 -6 -1 -44 -5 -85 -10z"/>
<path d="M2490 150 c0 -13 20 -13 40 0 12 8 9 10 -12 10 -16 0 -28 -4 -28 -10z"/>
<path d="M2442 73 l2 -78 3 70 c2 39 9 73 16 77 8 5 6 8 -5 8 -16 0 -18 -10
-16 -77z"/>
<path d="M2354 126 c-3 -7 -4 -40 -2 -72 l3 -59 5 73 c5 72 4 84 -6 58z"/>
<path d="M2383 70 c0 -41 2 -58 4 -38 2 21 2 55 0 76 -2 20 -4 3 -4 -38z"/>
<path d="M1010 71 c0 -33 5 -63 10 -66 6 -3 10 2 10 13 0 11 3 40 6 66 6 38 4
46 -10 46 -13 0 -16 -11 -16 -59z"/>
<path d="M1208 123 c7 -3 16 -2 19 1 4 3 -2 6 -13 5 -11 0 -14 -3 -6 -6z"/>
<path d="M1638 77 l-78 -10 0 -32 0 -32 90 -1 90 -2 0 45 c0 30 -4 44 -12 43
-7 0 -48 -6 -90 -11z"/>
<path d="M1497 33 c-14 -13 -6 -33 13 -33 13 0 20 7 20 20 0 19 -20 27 -33 13z"/>
</g>
</svg>