<?xml version="1.0" standalone="no"?>
<!DOCTYPE svg PUBLIC "-//W3C//DTD SVG 20010904//EN"
 "http://www.w3.org/TR/2001/REC-SVG-20010904/DTD/svg10.dtd">
<svg version="1.0" xmlns="http://www.w3.org/2000/svg"
 width="512.000000pt" height="512.000000pt" viewBox="0 0 512.000000 512.000000"
 preserveAspectRatio="xMidYMid meet">
<metadata>
Created by potrace 1.16, written by Peter Selinger 2001-2019
</metadata>
<g transform="translate(0.000000,512.000000) scale(0.100000,-0.100000)"
fill="#000000" stroke="none">
<path d="M935 5089 c39 -17 139 -60 224 -95 154 -65 154 -65 193 -49 21 8 38
11 38 5 0 -6 7 -10 15 -10 11 0 15 13 15 54 l0 53 30 -3 c16 -2 54 -16 82 -31
29 -15 55 -27 58 -28 15 -1 100 -73 105 -87 4 -10 17 -21 31 -24 13 -3 21 -10
18 -15 -3 -5 1 -9 8 -9 8 0 23 -7 34 -14 10 -9 -12 -4 -50 10 l-70 25 -20 -22
c-13 -14 -14 -18 -4 -10 10 8 28 11 43 7 26 -7 321 -122 659 -257 109 -44 205
-78 213 -75 8 3 12 2 9 -2 -8 -13 104 -64 118 -53 7 6 38 -2 91 -23 l80 -32 3
-61 3 -60 -53 -22 c-29 -12 -44 -20 -33 -17 34 7 484 180 480 184 -2 2 -53
-15 -113 -38 l-110 -42 -72 28 c-39 15 -73 31 -76 36 -3 4 12 9 33 9 51 2 88
12 90 24 1 6 -30 23 -68 39 l-69 28 0 163 c0 106 4 165 11 167 17 6 -2 38 -22
38 -12 0 -19 -7 -19 -20 0 -11 5 -20 10 -20 6 0 10 -50 10 -130 l0 -130 -60
30 c-83 42 -170 80 -170 74 0 -3 52 -30 115 -61 106 -52 115 -58 115 -84 0
-28 -1 -28 -32 -15 -18 7 -54 21 -80 30 -33 12 -48 23 -50 39 -3 22 -87 64
-416 211 l-132 58 -2 132 -2 131 -3 -128 c-2 -71 -7 -127 -11 -125 -4 2 -65
28 -135 58 l-127 54 0 53 c0 29 2 53 5 53 3 0 50 -22 105 -50 55 -27 105 -50
112 -50 7 0 -42 29 -110 64 -87 46 -133 64 -160 64 -32 0 -34 -1 -14 -9 13 -5
28 -7 33 -4 12 8 21 -34 17 -77 l-3 -36 -139 64 -138 64 -357 0 -356 -1 70
-30z m942 -281 c-2 -13 -4 -3 -4 22 0 25 2 35 4 23 2 -13 2 -33 0 -45z m-27
18 c0 -19 -4 -23 -20 -19 -20 5 -20 7 -4 24 22 24 24 24 24 -5z m283 -127 c-5
-5 -35 2 -69 16 l-59 25 63 -6 62 -7 2 39 c1 35 2 34 5 -10 2 -27 0 -53 -4
-57z m105 -30 c17 -6 33 -17 36 -24 4 -11 -4 -10 -40 3 -24 9 -44 20 -44 24 0
11 11 10 48 -3z m137 -70 c5 -5 -5 -4 -23 2 -17 6 -32 13 -32 16 0 7 43 -8 55
-18z m109 -23 c11 -8 32 -24 46 -36 25 -20 25 -20 -30 1 -30 12 -67 26 -82 31
-16 6 -28 14 -28 19 0 13 69 2 94 -15z m462 -210 l59 -24 -47 -21 c-79 -34
-83 -33 -86 22 -2 26 1 47 6 47 5 0 35 -11 68 -24z"/>
<path d="M3460 5117 c0 -2 83 -61 185 -132 174 -120 185 -129 169 -146 -15
-16 -11 -20 58 -67 66 -44 109 -58 92 -30 -4 6 0 17 10 23 15 12 15 14 -1 33
-10 11 -114 88 -232 171 -173 123 -220 151 -247 151 -19 0 -34 -1 -34 -3z"/>
<path d="M3580 5116 c0 -3 68 -50 150 -106 83 -56 167 -115 186 -132 19 -17
34 -25 32 -18 -2 8 98 57 275 134 153 66 271 122 263 124 -8 2 -95 -32 -193
-76 -328 -145 -361 -157 -381 -140 -9 9 -83 61 -164 117 -130 90 -168 111
-168 97z"/>
<path d="M4760 4992 c-455 -191 -671 -285 -666 -289 2 -3 141 54 308 125 311
133 557 236 641 267 47 18 58 25 35 25 -7 0 -150 -58 -318 -128z"/>
<path d="M0 4759 c0 -5 94 -39 210 -76 115 -37 210 -70 210 -73 0 -3 -24 -21
-52 -40 -28 -19 -56 -40 -62 -45 -6 -6 -44 -32 -83 -59 -40 -26 -73 -52 -73
-57 0 -12 7 -8 91 53 37 26 74 48 83 48 10 0 15 4 12 9 -3 5 19 26 49 47 31
21 54 42 52 47 -4 12 -437 156 -437 146z"/>
<path d="M3020 4606 c0 -99 4 -167 10 -171 6 -3 10 -16 11 -28 1 -20 2 -20 8
3 5 17 3 29 -7 36 -11 8 -13 41 -10 167 1 86 0 157 -4 157 -5 0 -8 -74 -8
-164z"/>
<path d="M4420 4485 c-366 -123 -659 -224 -652 -224 15 -1 1342 438 1342 444
0 10 -50 -5 -690 -220z"/>
<path d="M4040 4685 c-14 -8 -20 -14 -15 -14 6 0 21 6 35 14 14 8 21 14 15 14
-5 0 -21 -6 -35 -14z"/>
<path d="M1268 4673 c-2 -5 -1 -87 2 -183 l5 -175 5 178 c4 155 1 210 -12 180z"/>
<path d="M3970 4655 c-14 -8 -20 -14 -15 -14 6 0 21 6 35 14 14 8 21 14 15 14
-5 0 -21 -6 -35 -14z"/>
<path d="M1840 4589 c-52 -28 -196 -102 -320 -166 -124 -63 -234 -122 -245
-129 -10 -8 -35 -17 -55 -21 -33 -6 -33 -7 -10 -13 14 -4 27 -3 30 1 3 3 36
22 74 41 l69 35 116 -38 c64 -20 169 -54 234 -74 l117 -36 0 -58 c0 -55 2 -59
26 -65 15 -4 29 -5 32 -1 3 3 -3 5 -14 5 -17 1 216 102 310 135 75 26 405 170
397 173 -5 2 -73 -25 -152 -59 -79 -34 -202 -85 -274 -114 -71 -29 -169 -69
-217 -89 -48 -20 -89 -36 -92 -36 -3 0 -6 114 -6 254 l0 254 30 12 c24 10 62
40 49 40 -2 0 -47 -23 -99 -51z m8 -385 c-3 -3 -103 28 -336 105 l-114 37 224
116 223 116 3 -185 c1 -102 1 -187 0 -189z"/>
<path d="M3862 4613 c-35 -14 -61 -27 -59 -29 4 -4 126 42 135 51 10 10 -13 3
-76 -22z"/>
<path d="M3760 4570 c-8 -5 -10 -10 -5 -10 6 0 17 5 25 10 8 5 11 10 5 10 -5
0 -17 -5 -25 -10z"/>
<path d="M3700 4545 c-14 -8 -20 -14 -15 -14 6 0 21 6 35 14 14 8 21 14 15 14
-5 0 -21 -6 -35 -14z"/>
<path d="M4935 4403 c-82 -24 -311 -94 -508 -154 -196 -60 -365 -109 -375
-109 -9 0 -83 27 -164 59 l-148 60 -82 -29 c-46 -16 -78 -29 -72 -29 6 -1 43
10 82 23 l71 25 130 -57 c71 -31 128 -60 125 -63 -2 -4 -18 -10 -34 -14 -17
-4 -36 -14 -42 -23 -7 -9 -20 -18 -30 -20 -9 -1 -85 26 -170 61 -84 35 -164
68 -178 72 -14 4 -81 30 -150 57 -145 58 -162 64 -139 49 9 -6 107 -47 219
-91 183 -73 340 -144 340 -154 0 -2 -17 0 -38 5 -21 4 -68 7 -104 6 -52 -2
-64 -5 -61 -17 2 -8 0 -26 -5 -39 -10 -27 31 -14 -601 -192 -195 -54 -360 -99
-368 -99 -8 0 -11 5 -7 12 5 8 2 9 -10 5 -10 -4 -72 7 -138 23 -66 17 -123 29
-126 26 -3 -3 1 -8 9 -10 15 -5 167 -44 208 -54 22 -4 20 -7 -18 -18 -28 -8
-53 -9 -74 -3 -47 13 -58 10 -17 -6 l35 -13 -30 -7 c-16 -4 -87 -22 -157 -40
-109 -28 -133 -31 -178 -23 -28 5 -55 8 -58 6 -4 -2 -5 -203 -2 -448 l5 -445
3 410 2 410 63 19 c34 10 70 21 80 23 16 5 17 -25 17 -550 l-1 -556 -22 -4
-22 -4 23 -2 c19 -1 22 -7 22 -41 0 -37 -2 -40 -27 -40 -16 0 -45 -3 -67 -7
l-38 -6 3 51 c2 27 0 48 -4 45 -4 -3 -13 -1 -20 4 -7 4 -39 5 -72 2 l-60 -6
53 -1 52 -2 0 -65 0 -64 -62 -4 -63 -3 75 -2 76 -2 -4 65 c-3 44 -1 65 7 65 7
0 11 -20 11 -50 l0 -50 38 0 c33 -1 35 -2 20 -14 -19 -14 -25 -32 -7 -21 7 5
8 -5 4 -32 -5 -29 -4 -35 5 -23 9 13 11 12 8 -4 -5 -29 -34 -43 -58 -28 -20
12 -20 11 -14 -83 6 -76 4 -95 -7 -100 -8 -2 -60 -8 -116 -13 l-101 -8 -11 37
c-19 64 -17 68 46 72 l58 3 -62 2 c-49 2 -63 5 -63 17 0 24 -2 29 -17 40 -9 7
2 9 38 6 36 -2 49 0 45 8 -4 6 -24 11 -45 11 -20 0 -43 6 -50 13 -11 10 -13 9
-7 -3 4 -8 -2 -4 -13 10 -11 14 -21 35 -21 46 0 21 3 22 113 18 l112 -3 -110
9 c-60 5 -113 6 -117 4 -4 -3 -8 -16 -8 -29 0 -30 -16 -35 -105 -35 -64 0 -74
-3 -80 -19 -4 -14 -17 -21 -43 -24 l-37 -4 37 -1 c36 -2 36 -3 43 -53 4 -27 5
-53 2 -55 -3 -3 -63 2 -133 11 -218 26 -201 21 -209 63 -9 48 -40 108 -60 116
-9 3 -37 6 -62 6 l-46 0 8 -57 c4 -32 6 -97 5 -145 -1 -87 13 -140 42 -151 10
-4 10 -8 -1 -15 -7 -5 -11 -14 -8 -19 3 -5 -2 -19 -12 -31 -16 -22 -20 -23
-64 -11 l-47 11 0 154 0 154 38 1 c33 1 34 2 12 9 -14 4 -53 8 -88 9 l-62 1 2
33 3 32 -84 3 -83 3 6 37 c3 20 6 47 6 60 0 20 5 22 55 22 l55 0 0 455 c0 301
-3 455 -10 455 -21 0 -758 87 -807 95 l-33 6 0 -167 c0 -129 3 -165 13 -161 6
2 99 17 205 33 l192 29 0 87 c0 49 4 88 9 88 9 0 25 -640 19 -800 -3 -82 -5
-95 -21 -98 -17 -3 -18 14 -15 352 2 288 0 356 -10 356 -11 0 -267 -39 -359
-55 l-33 -6 0 -316 c0 -276 2 -314 15 -309 9 3 15 0 15 -9 0 -8 -7 -15 -15
-15 -8 0 -15 -9 -15 -20 0 -16 7 -20 30 -20 27 0 30 -3 30 -33 0 -17 4 -47 9
-65 5 -17 6 -32 2 -32 -5 0 -11 -18 -15 -40 -5 -35 -10 -40 -32 -40 -38 0 -24
-23 19 -33 20 -5 37 -13 37 -18 0 -4 -8 -6 -17 -3 -10 3 -7 -1 7 -10 25 -14
25 -14 31 27 l6 42 1 -45 c1 -25 -4 -72 -11 -105 -12 -58 -14 -60 -50 -66 -20
-3 -41 -9 -45 -14 -4 -4 12 -4 36 0 l43 7 -7 -29 c-4 -15 -11 -39 -16 -52 -5
-13 -7 -25 -5 -27 2 -2 49 -7 105 -10 56 -4 102 -10 102 -15 0 -11 -138 -32
-171 -25 -16 3 -29 1 -29 -4 0 -5 17 -12 38 -15 20 -3 69 -12 108 -21 48 -10
78 -12 95 -5 24 9 272 43 412 56 38 4 66 9 63 12 -2 3 -58 0 -123 -6 l-119
-12 -65 29 c-56 26 -61 30 -39 35 68 14 373 39 421 34 30 -3 149 -27 265 -54
131 -30 220 -46 235 -42 23 7 23 7 2 8 -23 1 -23 2 -23 151 0 172 -13 157 118
138 l82 -11 2 -156 2 -156 3 153 c3 151 4 152 26 152 20 0 26 -10 45 -75 27
-92 27 -99 0 -192 l-23 -75 -50 6 c-27 3 -84 15 -125 25 -47 12 -82 16 -95 11
-19 -8 -18 -9 4 -9 13 -1 22 -3 19 -6 -6 -6 -364 -57 -818 -116 l-305 -39 -87
42 -86 42 -17 88 c-10 48 -19 88 -21 88 -2 0 -3 -132 -1 -293 l2 -292 38 -3
c31 -3 37 -7 37 -25 0 -41 -12 -67 -30 -67 -35 0 -50 -12 -50 -40 0 -16 6 -31
13 -33 9 -4 9 -6 0 -6 -9 -1 -13 -18 -13 -53 0 -36 3 -48 9 -39 8 12 23 3 75
-43 42 -37 66 -65 66 -79 1 -12 9 -38 20 -57 15 -29 20 -32 25 -17 4 10 6 179
3 377 -2 198 0 360 4 360 5 0 8 -153 8 -341 l0 -341 22 5 c13 3 201 45 418 92
217 48 410 93 428 101 29 12 36 12 76 -8 79 -38 76 -52 70 325 l-5 334 32 7
c54 11 79 8 73 -9 -4 -9 0 -15 10 -15 10 0 16 9 16 25 0 31 3 31 114 1 55 -15
98 -21 115 -17 38 11 78 -16 88 -59 11 -48 73 -80 158 -81 45 -1 54 -3 35 -9
-19 -6 -20 -8 -6 -9 15 -1 17 -6 12 -32 -3 -17 -6 -40 -6 -51 0 -10 -4 -17 -9
-14 -8 5 -57 -5 -184 -36 -58 -14 -34 -28 50 -28 75 0 76 0 58 -20 -22 -25 -9
-26 19 -3 11 10 -1 -9 -28 -41 -26 -32 -46 -66 -44 -74 4 -21 32 -36 52 -29
18 7 22 52 6 62 -6 4 8 23 32 45 37 32 44 35 54 22 10 -14 12 -13 21 3 10 17
15 16 82 -15 70 -33 71 -34 65 -66 -5 -26 -2 -33 14 -38 24 -8 49 1 56 19 3 8
-12 36 -32 62 -59 75 -59 73 -8 73 l45 0 3 -42 c3 -38 6 -43 30 -46 l28 -3 3
-187 2 -187 3 193 2 192 43 -6 c23 -4 53 -12 67 -19 53 -27 193 -65 233 -64
41 1 41 2 -13 10 -75 11 -226 64 -223 78 2 6 -2 11 -7 11 -6 0 -10 43 -10 110
0 73 4 110 11 110 6 0 58 -12 116 -27 l104 -28 -3 -123 c-2 -67 0 -122 5 -122
4 0 7 120 7 266 l0 265 22 -3 c18 -3 25 -18 48 -103 19 -72 24 -105 17 -116
-8 -13 -6 -21 6 -34 21 -20 20 -18 1 -80 -26 -86 -42 -175 -32 -175 6 0 8 -6
5 -13 -5 -13 38 -57 104 -106 20 -15 82 -44 138 -65 81 -32 99 -42 90 -53 -9
-9 -8 -13 0 -13 7 0 11 -29 11 -84 l0 -84 -96 -68 c-52 -37 -105 -80 -118 -95
-16 -19 -27 -24 -34 -17 -12 12 -52 -58 -52 -90 0 -46 72 -69 104 -33 17 19
14 71 -5 71 -5 0 -9 4 -9 9 0 14 180 103 196 97 9 -3 14 -20 14 -46 0 -45 19
-61 46 -39 11 9 15 24 11 50 -3 21 -3 40 0 43 16 16 183 -103 183 -129 0 -8
-4 -15 -10 -15 -5 0 -12 -11 -16 -25 -8 -31 19 -65 51 -65 34 0 43 19 42 87
l0 63 -76 63 c-42 35 -97 79 -123 98 l-47 34 -1 82 c0 45 -3 88 -6 96 -8 23
44 37 81 21 17 -7 38 -13 47 -14 22 0 98 69 98 89 0 11 -3 11 -13 -3 -11 -16
-17 -17 -36 -6 -21 11 -21 13 -7 29 9 10 32 56 51 102 38 93 46 95 15 4 -11
-32 -20 -64 -20 -71 0 -25 29 -2 55 42 l26 44 59 0 c32 0 62 -5 66 -11 4 -8
-5 -9 -32 -5 -56 9 -92 -4 -116 -43 l-22 -33 23 7 23 7 -2 -103 c-4 -171 -14
-153 93 -187 50 -17 108 -32 127 -35 40 -5 110 19 110 38 0 7 -29 25 -65 40
l-65 28 0 293 c0 184 4 295 10 299 6 3 10 17 10 31 0 21 5 24 33 24 18 0 42 7
53 15 10 8 24 14 29 15 6 0 3 -5 -5 -10 -13 -9 -12 -12 4 -25 17 -13 57 -94
91 -186 13 -35 12 -36 -8 -34 -32 4 -34 6 -12 15 20 9 20 9 0 9 -20 1 -45 -16
-45 -30 0 -4 12 -10 28 -13 15 -4 35 -9 46 -13 14 -4 16 -2 11 8 -4 8 2 4 13
-8 12 -12 46 -30 77 -39 l54 -17 -4 -50 c-2 -27 -5 -51 -8 -53 -2 -2 -19 1
-38 6 -63 19 -221 52 -225 47 -3 -3 56 -20 130 -38 74 -18 133 -36 130 -40 -4
-7 -128 -31 -226 -44 -26 -3 -51 -11 -55 -18 -10 -16 -3 -89 9 -104 16 -19 46
-16 60 7 7 11 21 20 32 20 15 0 16 3 6 15 -15 18 -12 19 81 34 85 14 89 14 89
-5 0 -12 7 -15 25 -12 22 5 26 0 35 -31 14 -52 12 -88 -5 -95 -20 -7 -19 -50
1 -66 11 -10 23 -11 42 -4 22 8 27 15 25 39 -3 52 -21 128 -44 188 -18 47 -20
60 -9 67 9 5 11 24 8 64 -3 39 -1 56 6 53 6 -3 17 2 24 9 11 12 8 14 -14 14
-45 0 -135 33 -163 60 -16 14 -39 59 -56 105 -15 44 -33 83 -38 86 -14 10 11
21 32 14 34 -11 93 -8 100 4 5 8 12 -2 18 -28 l11 -40 -47 -6 c-75 -10 -74
-10 -50 -57 48 -95 97 -122 224 -123 118 0 145 15 145 80 l0 44 -34 -20 c-19
-11 -50 -21 -70 -23 -20 -2 -39 -6 -43 -10 -13 -13 -43 -5 -70 20 l-28 25 32
-22 c38 -26 63 -19 64 18 2 24 2 25 6 6 5 -28 45 -31 98 -9 30 13 35 20 36 48
1 38 3 34 19 -44 17 -86 38 -77 35 15 -2 39 -4 77 -5 82 -5 22 1 34 18 38 16
4 16 5 0 6 -12 1 -18 9 -18 25 0 26 -24 51 -40 41 -6 -4 -10 5 -9 22 0 16 3
22 6 13 8 -21 26 -31 34 -19 7 12 219 -20 219 -33 0 -4 19 -8 42 -8 l42 0 -42
-31 c-30 -22 -42 -38 -42 -56 0 -21 4 -24 23 -19 12 3 27 6 32 6 6 0 3 5 -5
10 -11 7 -1 10 36 10 38 0 55 -5 69 -20 11 -12 13 -20 6 -20 -9 0 -9 -5 -1
-20 14 -26 40 -26 40 1 0 15 5 19 18 15 9 -2 58 -12 107 -21 l90 -17 102 33
c56 19 101 38 99 44 -1 5 -40 15 -86 22 -46 7 -85 15 -88 17 -2 2 -2 13 0 23
3 19 8 19 161 -7 113 -19 157 -23 157 -15 0 8 -45 20 -117 33 l-118 21 100 -3
c55 -2 108 -7 118 -11 14 -6 17 -2 17 24 0 31 -16 42 -26 18 -4 -11 -36 -14
-144 -13 l-140 1 0 123 c0 109 2 127 21 153 11 16 30 29 41 29 21 0 21 0 -2
-25 -13 -14 -30 -25 -38 -25 -9 0 -12 -3 -9 -7 4 -4 26 4 48 17 37 20 50 22
121 17 43 -4 83 -9 88 -12 12 -7 24 -155 14 -165 -5 -5 -9 9 -9 33 0 40 -1 42
-35 47 -31 4 -36 9 -40 39 -4 28 -11 36 -35 43 -16 4 -32 4 -36 0 -15 -16 -17
-141 -3 -161 15 -20 89 -41 150 -41 l35 0 -2 140 c-1 126 -3 140 -17 136 -74
-21 -175 -27 -276 -17 -130 13 -215 14 -176 1 14 -4 44 -8 68 -9 l42 -1 0
-195 c0 -213 2 -205 -57 -189 -22 6 -23 10 -23 140 0 83 4 134 10 134 6 0 10
9 10 21 0 19 -5 21 -44 18 l-44 -4 -4 83 c-2 69 -6 86 -23 99 -18 14 -6 15
127 9 l147 -7 7 46 c3 25 9 44 11 41 10 -10 -9 -104 -20 -103 -7 0 -41 -1 -77
-2 -46 -2 -58 -5 -40 -10 28 -8 106 -6 162 4 27 5 38 13 41 29 3 14 4 12 3 -5
-2 -25 1 -27 57 -33 33 -3 73 -6 89 -6 l29 0 -3 63 -3 62 -77 3 -77 3 -4 -28
c-3 -21 -4 -17 -6 13 0 23 2 56 5 73 l7 32 80 -7 c59 -5 78 -4 73 5 -4 6 -35
11 -77 11 l-69 0 0 90 0 91 78 -5 c42 -3 66 -3 52 0 -14 2 -35 7 -47 9 l-23 5
0 220 0 220 29 0 c39 0 61 9 61 26 0 10 -13 14 -45 14 l-45 0 0 229 0 229 45
6 c27 4 45 13 45 20 0 10 -12 11 -52 4 -78 -12 -369 -48 -387 -47 -49 2 48 21
232 45 l207 27 0 35 0 35 -40 -6 -39 -5 -4 151 -3 152 -2 -152 c-1 -84 -4
-153 -7 -153 -12 0 -302 -41 -322 -45 l-23 -5 0 195 c0 157 -3 195 -13 195
-12 0 -14 -133 -13 -780 1 -429 2 -776 4 -771 1 4 15 6 30 3 l27 -6 -25 -6
c-16 -4 -26 -14 -28 -30 -3 -18 -6 -20 -14 -9 -7 10 -8 4 -5 -21 7 -47 -5
-122 -21 -128 -9 -3 -10 3 -2 23 5 14 10 36 10 47 0 20 -1 21 -20 3 -20 -18
-20 -17 -20 792 0 446 -3 824 -6 840 l-6 30 -46 -12 c-81 -21 -132 -28 -132
-17 0 12 13 17 98 33 34 6 62 16 62 22 0 5 8 16 18 23 26 20 11 18 -202 -31
-109 -25 -202 -45 -207 -45 -5 0 -9 60 -9 139 0 77 -3 146 -6 155 -15 40 -18
-4 -11 -156 4 -89 6 -530 5 -978 l-3 -815 65 -2 c279 -7 390 -16 390 -29 0
-27 -41 -37 -130 -32 -69 4 -97 2 -136 -13 -27 -11 -72 -19 -101 -19 -32 0
-53 -5 -56 -12 -3 -7 -6 6 -6 29 -1 38 1 42 27 46 27 4 27 4 -4 6 -16 0 -39 8
-50 16 -11 8 -40 14 -69 14 -39 0 -46 -2 -30 -10 15 -7 8 -8 -24 -5 -25 3 -53
0 -64 -5 -26 -14 -49 -73 -41 -107 4 -21 3 -24 -5 -12 -8 12 -11 7 -11 -22 0
-22 5 -38 11 -38 28 0 -16 -30 -45 -31 -17 0 -40 -5 -51 -10 -14 -6 -5 -7 27
-3 l47 6 -12 -26 c-7 -14 -16 -26 -20 -26 -5 0 -5 -5 -1 -11 8 -13 -82 -5
-132 12 -22 7 -12 8 41 5 l70 -4 -60 12 c-33 7 -55 14 -50 17 6 3 4 4 -3 2 -8
-1 -22 -3 -33 -3 -22 0 -26 -25 -6 -33 8 -3 48 -11 90 -18 61 -10 76 -16 73
-28 -3 -9 -10 -35 -15 -57 -11 -41 -12 -42 -74 -53 -34 -7 -98 -22 -142 -33
-73 -18 -90 -19 -190 -8 -125 12 -380 49 -400 56 -17 7 -43 72 -49 120 -3 19
-16 50 -30 69 -31 40 -80 57 -227 80 -89 13 -118 14 -173 4 -64 -12 -89 -29
-43 -29 20 0 23 -5 23 -32 0 -18 3 -50 7 -70 6 -31 5 -38 -8 -38 -8 0 -106 20
-217 45 -138 30 -205 49 -211 60 -5 9 -16 14 -25 10 -10 -2 -55 3 -102 13 -78
17 -84 20 -92 47 -4 16 -6 30 -5 31 7 6 284 36 410 45 83 5 162 15 175 22 27
13 130 193 117 205 -4 4 -62 7 -131 7 -76 1 -128 5 -135 12 -18 18 -7 58 19
61 31 5 31 -35 -1 -41 -12 -2 -2 -4 23 -4 25 -1 38 1 30 3 -21 6 -16 162 5
184 13 12 15 7 15 -47 0 -50 -3 -62 -17 -66 -14 -4 -12 -5 5 -6 21 -1 22 3 22
67 0 47 3 63 10 52 8 -12 10 -12 11 5 1 17 2 16 9 -5 l8 -25 1 28 c1 15 -3 27
-8 27 -6 0 -10 69 -10 162 -1 89 -3 164 -6 166 -3 3 -5 -71 -5 -165 l0 -171
-25 -4 -25 -5 0 120 c0 66 -2 118 -4 116 -2 -2 -6 -84 -9 -181 -3 -97 -8 -182
-12 -188 -3 -5 -13 -10 -21 -10 -12 0 -14 76 -14 534 0 563 -1 546 41 546 15
0 12 -277 -3 -283 -10 -4 -10 -6 0 -6 9 -1 12 -48 12 -203 0 -111 3 -199 6
-196 3 3 5 92 4 196 0 213 -7 194 78 207 l42 7 0 -106 0 -106 -30 0 c-29 0
-30 -2 -28 -42 l1 -43 4 38 c4 32 8 37 29 37 l24 0 0 -210 c0 -161 -3 -210
-12 -210 -10 0 -12 -26 -10 -105 2 -70 0 -105 -7 -105 -6 0 -11 15 -11 33 0
17 -5 39 -10 47 -11 17 -10 21 -13 -55 l-2 -40 38 4 37 3 0 673 0 673 28 6
c15 4 35 9 45 12 16 5 17 -29 17 -620 l0 -626 25 0 25 0 2 478 2 477 7 -520
c4 -286 8 -531 8 -544 1 -14 -1 -27 -4 -29 -3 -3 -5 22 -5 56 l0 62 -45 0
c-42 0 -44 -1 -54 -37 -6 -21 -11 -43 -11 -50 0 -6 -8 -14 -17 -17 -10 -3 11
-3 47 -1 43 2 53 1 30 -4 -33 -6 -32 -7 25 -14 87 -11 105 -17 105 -36 0 -12
-2 -13 -9 -3 -9 15 -131 30 -131 16 0 -5 14 -47 31 -94 16 -47 32 -92 35 -102
7 -20 34 -28 103 -28 50 0 53 1 35 15 -10 8 -41 15 -69 16 l-50 2 50 6 c28 4
55 4 60 0 6 -3 48 -11 95 -18 79 -11 159 -25 220 -38 25 -6 25 -6 -5 -14 -16
-5 -61 -7 -100 -5 -51 3 -58 2 -25 -3 l45 -7 -35 -6 c-19 -3 -10 -4 20 -1 30
2 72 6 93 10 34 5 37 4 38 -18 1 -17 3 -19 6 -6 6 21 -4 22 209 -8 98 -14 189
-25 200 -25 20 0 22 8 34 133 7 72 13 146 14 162 l1 30 -200 17 c-110 9 -206
15 -212 13 -7 -3 -13 -20 -13 -40 0 -19 -3 -35 -7 -35 -5 0 -9 -41 -11 -90 -1
-49 -7 -100 -12 -112 -7 -17 -8 -9 -6 32 2 30 1 40 -1 23 -4 -29 -8 -33 -33
-33 -53 0 -60 8 -60 67 l0 54 48 -7 c26 -4 50 -12 54 -18 5 -6 8 -2 8 12 0 16
-6 22 -22 22 -13 0 -66 5 -118 11 -52 5 -129 10 -170 11 -51 1 -64 3 -40 7 26
5 35 11 35 26 0 18 6 20 58 18 44 -1 57 1 57 13 0 10 14 14 58 15 45 1 52 3
32 10 -18 6 -3 8 47 6 52 -2 74 1 77 10 3 8 25 14 53 15 l48 1 -44 4 c-24 3
-48 0 -54 -6 -6 -6 -52 -7 -118 -4 -95 5 -109 4 -109 -10 0 -11 -12 -17 -37
-20 l-38 -4 38 -1 c21 -1 36 -5 33 -10 -2 -4 -25 -6 -50 -4 l-45 4 -10 49 c-6
28 -11 52 -11 54 0 3 10 5 23 6 13 1 6 5 -17 10 -22 5 -41 10 -42 12 -1 1 67
0 152 -2 l154 -3 0 68 c0 38 3 93 6 122 l7 52 -182 0 -181 0 0 -109 c0 -96 2
-110 18 -113 9 -3 -3 -6 -28 -9 l-45 -4 6 180 c4 99 7 183 8 188 0 4 44 7 96
7 l95 0 0 -64 0 -64 40 0 40 -1 0 70 c0 92 18 89 23 -3 l3 -73 2 72 2 72 36 7
c26 5 39 3 45 -7 6 -10 9 -11 9 -1 0 6 7 12 15 12 13 0 14 -31 12 -217 l-2
-218 75 -1 c41 -1 65 0 53 3 -13 2 -23 12 -24 21 0 14 -2 13 -9 -3 -6 -15 -9
-9 -9 27 -1 28 4 48 12 51 10 4 10 6 0 6 -10 1 -13 41 -13 165 0 186 -7 173
88 175 l52 2 0 -152 0 -151 -37 4 -38 3 5 -100 5 -100 65 -6 c36 -4 93 -7 128
-8 55 -1 62 1 63 19 3 41 8 76 14 102 6 23 4 28 -18 33 -47 12 -71 2 -85 -35
l-13 -35 6 34 c3 18 5 116 5 217 0 157 2 184 15 184 13 0 15 -26 15 -175 l0
-175 38 1 c30 2 32 3 9 6 l-27 4 2 172 3 172 58 3 57 3 0 -155 c0 -114 -3
-156 -12 -159 -10 -4 -10 -6 0 -6 8 -1 12 -19 12 -56 0 -48 -2 -55 -20 -55
-15 0 -20 7 -20 29 0 17 -4 32 -8 35 -4 2 -6 -10 -4 -29 2 -18 -1 -43 -8 -56
-10 -21 -10 -22 3 -6 8 9 24 17 36 17 19 0 21 -5 19 -47 -1 -44 -2 -45 -5 -10
-3 29 -9 37 -24 37 -12 0 -23 -10 -29 -26 -17 -45 -13 -54 26 -54 l37 0 -7
-75 c-3 -41 -9 -109 -12 -150 l-7 -75 39 0 c22 0 82 -7 134 -15 52 -8 101 -15
108 -15 9 0 12 214 12 1039 l0 1038 101 32 c56 18 111 30 123 27 11 -3 28 1
37 10 19 17 282 99 692 216 242 69 287 84 287 100 0 25 -12 23 -185 -29z
m-925 -293 c0 -5 -5 -10 -11 -10 -5 0 -7 5 -4 10 3 6 8 10 11 10 2 0 4 -4 4
-10z m-30 -10 c0 -5 -5 -10 -11 -10 -5 0 -7 5 -4 10 3 6 8 10 11 10 2 0 4 -4
4 -10z m-147 -52 l37 2 0 -1033 0 -1033 -118 15 -119 15 -6 179 c-4 99 -7 543
-7 986 l0 806 92 24 c51 14 87 26 81 28 -7 3 -45 -5 -86 -16 -91 -26 -87 -26
-87 3 0 33 13 37 100 29 41 -4 92 -6 113 -5z m-223 -163 l0 -84 -37 -10 c-380
-98 -921 -231 -940 -231 -5 0 -3 105 3 125 4 15 22 24 77 38 40 10 252 69 472
132 220 62 406 114 413 114 9 1 12 -22 12 -84z m969 -945 c0 -437 -3 -781 -8
-789 -7 -11 -26 -13 -93 -7 -45 4 -117 7 -158 7 -122 1 -160 8 -160 31 0 18 5
19 50 14 28 -3 73 -9 100 -12 28 -3 50 -2 50 3 0 4 34 7 75 5 65 -3 74 -1 69
12 -3 9 -11 16 -18 16 -7 0 -7 3 2 8 8 6 3 15 -20 33 -27 20 -45 24 -98 24
-43 0 -80 7 -108 19 -39 18 -42 22 -42 58 l0 38 149 0 c82 0 156 -3 165 -6 13
-5 16 -23 14 -113 l-2 -106 -3 101 -4 102 -31 6 c-17 3 -86 6 -154 6 l-124 0
0 -30 c0 -43 44 -63 138 -63 67 1 77 -2 106 -28 18 -15 33 -34 33 -41 0 -7 4
-21 8 -30 6 -14 -1 -17 -42 -20 -41 -3 -38 -4 26 -8 l74 -5 -5 825 c-2 454 -1
803 3 775 4 -27 8 -399 8 -825z m-211 848 c-6 -17 -208 -58 -208 -42 0 7 34
21 83 32 99 24 130 26 125 10z m182 -172 l0 -184 -32 -5 c-18 -3 -52 -9 -75
-12 l-43 -7 0 181 0 181 28 6 c15 3 41 10 57 14 69 19 65 29 65 -174z m-940
-70 l0 -213 -77 -12 c-43 -7 -88 -15 -101 -18 l-23 -5 1 208 1 209 87 22 c48
12 93 22 100 22 9 1 12 -48 12 -213z m760 36 l0 -179 -105 -15 -105 -14 2 175
3 175 90 17 c50 9 96 17 103 18 9 1 12 -41 12 -177z m-1750 -502 c0 -407 -3
-620 -10 -620 -7 0 -10 213 -10 620 0 407 3 620 10 620 7 0 10 -213 10 -620z
m740 521 c0 -55 -4 -111 -10 -125 -6 -17 -6 -26 0 -26 12 0 13 -129 2 -146 -4
-7 -47 -17 -97 -23 -49 -6 -107 -14 -127 -17 -37 -7 -38 -6 -39 27 -2 34 -2
34 -6 4 -6 -35 -18 -45 -55 -45 l-28 0 1 133 c0 72 3 125 6 117 9 -24 35 -50
50 -50 12 0 14 17 11 90 l-3 89 140 35 c77 19 143 35 148 35 4 1 7 -44 7 -98z
m-870 1 l0 -68 -77 -18 c-43 -10 -86 -20 -95 -22 -17 -5 -18 -41 -18 -565 0
-557 0 -560 -20 -549 -20 11 -20 21 -20 619 l0 609 78 20 c73 20 144 39 150
41 1 1 2 -30 2 -67z m-366 -1 c3 -5 -5 -11 -19 -13 -17 -4 -25 -1 -25 8 0 15
36 19 44 5z m766 -175 l0 -154 -92 -13 -93 -14 -3 144 c-1 79 0 146 2 148 5 5
149 39 174 42 9 1 12 -36 12 -153z m90 -180 c-7 -7 -10 36 -10 135 0 80 3 149
8 153 4 4 8 -56 10 -135 2 -88 -1 -146 -8 -153z m-333 217 c-2 -16 -4 -5 -4
22 0 28 2 40 4 28 2 -13 2 -35 0 -50z m-157 -108 c0 -144 0 -145 -22 -145 -13
0 -40 -3 -60 -6 l-38 -7 0 140 0 140 43 10 c83 20 77 30 77 -132z m2530 -194
c0 -127 -3 -232 -7 -234 -5 -3 -70 -8 -145 -12 l-138 -7 0 220 0 220 88 12
c48 7 107 16 132 20 25 4 51 8 58 9 9 1 12 -51 12 -228z m-466 199 c-6 -6 -37
-15 -70 -20 -75 -13 -101 -13 -88 -1 7 8 36 13 159 30 5 0 5 -3 -1 -9z m-184
-29 c0 -4 -35 -14 -77 -20 -43 -7 -90 -14 -105 -17 -16 -3 -28 -1 -28 4 0 5
42 17 93 25 116 19 117 19 117 8z m172 -203 c-2 -115 -9 -208 -13 -208 -5 0
-9 90 -9 201 0 186 -1 200 -17 195 -41 -11 -107 -18 -100 -10 6 7 134 33 143
29 1 0 -1 -93 -4 -207z m-3734 157 c17 -6 15 -32 -4 -39 -9 -3 -70 -9 -135
-13 l-119 -6 0 24 0 24 100 -9 c69 -7 106 -6 122 2 19 9 10 11 -53 11 -102 1
-169 11 -169 25 0 9 30 9 123 -1 67 -8 128 -16 135 -18z m3552 -180 l0 -195
-34 0 c-18 0 -48 -3 -65 -6 l-31 -6 -2 73 -2 74 -6 -75 c-6 -70 -7 -72 -10
-25 l-4 50 -3 -47 c-3 -40 -8 -48 -24 -48 -18 0 -19 8 -19 185 l0 184 33 6
c49 8 140 23 155 24 9 1 12 -44 12 -194z m150 1 l0 -184 -52 -4 c-29 -3 -56
-3 -60 -1 -5 2 -8 85 -8 183 l0 179 33 4 c17 2 44 5 60 5 l27 2 0 -184z
m-1583 152 c-3 -8 -6 -5 -6 6 -1 11 2 17 5 13 3 -3 4 -12 1 -19z m681 7 c-3
-3 -46 -11 -96 -17 l-92 -11 -3 -196 -2 -196 -3 203 c-1 156 1 202 11 203 6 0
50 6 97 13 82 12 99 12 88 1z m-258 -19 c0 -8 -14 -16 -32 -20 -54 -10 -220
-26 -270 -26 -56 0 -66 20 -10 21 20 0 91 9 157 19 154 23 155 23 155 6z m260
-25 c0 -16 -11 -19 -70 -25 l-70 -7 0 -170 c0 -144 -2 -169 -15 -169 -13 0
-15 27 -15 183 l0 184 78 10 c42 5 80 11 85 11 4 1 7 -6 7 -17z m-2790 0 c0
-8 -47 -15 -187 -27 -40 -4 -71 -10 -68 -14 8 -13 94 -10 167 5 38 8 74 15 79
15 5 0 9 -22 9 -50 0 -59 12 -56 -157 -39 l-113 12 0 48 0 48 113 4 c61 1 122
4 135 5 12 1 22 -2 22 -7z m2070 -5 c0 -9 -18 -16 -57 -20 -32 -4 -75 -9 -95
-12 -24 -4 -38 -2 -38 5 0 6 1 11 3 12 5 1 163 27 175 28 6 0 12 -5 12 -13z
m470 -441 c0 -438 0 -445 -20 -445 -15 0 -20 7 -21 28 l-2 27 -4 -27 c-2 -16
-11 -28 -19 -28 -11 0 -14 19 -14 90 l0 90 29 0 c27 0 30 -4 34 -37 2 -21 3
129 3 332 0 241 -2 313 -6 205 l-5 -165 -62 -3 -63 -3 -2 158 -2 158 -3 -157
c-3 -142 -5 -158 -21 -158 -9 -1 -34 -3 -54 -6 l-38 -6 0 176 c0 97 3 176 8
177 6 0 235 34 255 38 4 0 7 -199 7 -444z m-370 425 c0 -5 -4 -10 -10 -10 -5
0 -10 5 -10 10 0 6 5 10 10 10 6 0 10 -4 10 -10z m-100 -135 l0 -125 -34 0
c-28 0 -34 -4 -38 -25 -3 -14 -1 -25 3 -25 5 0 9 9 9 20 0 16 7 20 30 20 l30
0 0 -61 0 -61 -37 3 c-21 2 -47 10 -58 18 -18 15 -19 15 -6 -1 12 -16 11 -18
-8 -18 -17 0 -21 6 -21 30 0 28 3 30 38 32 l37 1 -38 4 c-20 2 -35 8 -32 14 4
5 1 9 -4 9 -6 0 -11 -21 -11 -50 0 -47 -2 -50 -25 -50 l-25 0 0 184 0 183 83
10 c45 6 88 11 95 12 9 1 12 -30 12 -124z m185 115 c-3 -5 -24 -10 -46 -10
l-39 0 0 -175 c0 -110 -4 -175 -10 -175 -6 0 -10 66 -10 179 0 200 -5 187 73
190 23 1 36 -3 32 -9z m535 -10 c0 -17 -7 -20 -42 -21 -24 -1 -35 -3 -25 -6
12 -3 17 -16 19 -46 l1 -42 4 43 c3 34 8 42 24 42 18 0 19 -8 19 -134 0 -149
1 -146 -71 -146 l-39 0 0 159 0 160 53 4 c28 2 53 4 55 5 1 1 2 -7 2 -18z
m-530 -175 l0 -165 -40 0 -40 0 0 119 c0 65 3 139 6 165 6 44 8 46 40 46 l34
0 0 -165z m-153 -137 c-1 -51 -3 -10 -3 92 0 102 2 143 3 93 2 -51 2 -135 0
-185z m-2547 180 c0 -35 2 -125 3 -201 2 -136 2 -137 -20 -137 l-23 0 0 200
c0 193 1 200 20 200 18 0 20 -7 20 -62z m-60 -109 l0 -161 -130 7 -130 8 0
-117 c0 -108 -1 -116 -19 -116 -11 0 -23 4 -26 10 -3 5 0 7 8 4 21 -8 27 57
27 291 l0 202 103 15 c56 9 117 16 135 17 l32 1 0 -161z m388 145 l112 -7 0
-173 0 -174 -135 0 -135 0 0 186 0 186 23 -5 c12 -3 73 -9 135 -13z m3802
-194 l0 -30 -60 0 c-57 0 -60 1 -60 24 0 23 4 25 53 29 28 2 55 4 60 5 4 1 7
-11 7 -28z m31 -62 c0 -51 3 -164 5 -250 4 -137 2 -158 -11 -158 -13 0 -15 33
-15 250 0 160 4 250 10 250 6 0 10 -38 11 -92z m-181 -169 c0 -216 -2 -241
-16 -235 -9 3 -20 6 -25 6 -5 0 -10 44 -11 98 l-2 97 -3 -97 -4 -98 -30 0 -30
0 3 121 c3 110 2 120 -14 115 -15 -3 -18 4 -20 47 l-2 52 -3 -47 c-2 -25 -11
-52 -19 -58 -12 -11 -14 2 -14 93 0 58 -3 112 -6 121 -5 12 1 16 25 16 l30 0
4 -102 3 -103 2 108 2 107 65 0 65 0 0 -241z m658 19 c-1 -123 -3 -202 -5
-175 -3 38 -8 47 -23 47 -21 0 -27 17 -33 85 -4 39 -4 39 -5 -7 -3 -64 -22
-62 -22 2 0 42 3 50 19 50 17 0 18 4 11 36 -5 20 -13 41 -19 47 -12 12 -79 14
-133 3 l-38 -7 0 -62 c0 -35 -5 -68 -11 -74 -7 -7 -2 -12 20 -15 l31 -5 0 79
0 78 30 0 30 0 0 -85 0 -85 -66 0 c-41 0 -63 -4 -59 -10 3 -6 50 -10 106 -10
l99 0 0 -150 c0 -93 -4 -150 -10 -150 -6 0 -11 36 -12 83 l-2 82 -3 -77 c-3
-60 -7 -78 -18 -78 -12 0 -15 24 -15 138 l0 137 -72 -5 -73 -5 68 -3 c50 -2
67 -6 67 -17 0 -12 -16 -15 -67 -17 l-68 -2 68 -3 c37 -2 67 -8 67 -13 0 -6
-30 -11 -67 -12 l-68 -2 68 -3 c37 -2 67 -8 67 -13 0 -6 -30 -11 -67 -12 l-68
-2 68 -3 67 -4 0 -79 c0 -80 -1 -82 -40 -70 -3 1 -27 2 -55 3 l-50 2 -3 297
-2 297 87 4 c49 1 114 4 146 5 l57 2 -2 -222z m-508 -42 c0 -209 -1 -216 -20
-216 -11 0 -20 6 -20 13 0 8 -2 9 -8 1 -4 -6 -20 -11 -37 -10 l-30 1 -3 211
-2 211 60 2 60 2 0 -215z m-1092 -291 c-4 -11 -6 97 -5 240 l1 260 6 -240 c3
-132 2 -249 -2 -260z m-228 321 c0 -84 -3 -181 -6 -215 -6 -56 -9 -61 -30 -61
l-24 0 0 215 0 215 30 0 30 0 0 -154z m-2957 104 l87 0 0 -145 0 -145 -50 0
-50 0 -2 113 -2 112 -3 -112 -4 -113 -57 -2 c-43 -1 -47 -2 -17 -5 22 -1 73
-5 113 -9 39 -3 72 -10 72 -15 0 -11 -230 -12 -231 -1 0 4 -3 16 -6 27 -3 11
-8 85 -10 164 l-5 144 39 -6 c21 -4 77 -7 126 -7z m4707 -22 c0 -7 3 -23 6
-35 5 -17 2 -23 -10 -23 -13 0 -16 -11 -16 -50 0 -43 -3 -50 -20 -50 -18 0
-20 7 -20 85 l0 85 30 0 c17 0 30 -5 30 -12z m-140 -63 c0 -37 -4 -65 -10 -65
-6 0 -10 28 -10 65 0 37 4 65 10 65 6 0 10 -28 10 -65z m-4002 9 c12 -4 22
-13 22 -20 0 -11 -21 -14 -99 -14 l-98 0 -6 -30 c-4 -16 -9 -59 -13 -95 -6
-57 -9 -65 -28 -66 -19 -1 -18 -2 4 -9 l25 -8 -27 -1 -28 -1 0 125 0 125 113
0 c61 0 122 -3 135 -6z m-408 -49 c0 -31 -3 -35 -25 -35 -22 0 -25 4 -25 35 0
31 3 35 25 35 22 0 25 -4 25 -35z m3840 -110 c0 -63 -4 -105 -10 -105 -5 0
-11 15 -12 33 l-1 32 -4 -32 c-3 -25 -9 -33 -24 -33 -18 0 -19 8 -19 106 0 93
2 105 16 100 9 -3 19 -6 24 -6 5 0 11 -15 13 -32 4 -32 4 -32 5 5 2 27 -2 37
-13 37 -8 0 -15 5 -15 10 0 7 6 7 20 0 18 -10 20 -21 20 -115z m-3573 63 c33
-31 28 -43 -7 -18 -16 12 -30 26 -30 31 0 15 12 11 37 -13z m-269 -75 c-3 -72
-5 -78 -25 -81 -22 -3 -23 -1 -23 77 0 80 0 81 25 81 26 0 26 0 23 -77z m430
-15 c2 -32 -1 -58 -6 -58 -5 0 -7 25 -4 55 3 36 1 55 -6 55 -16 0 -33 -37 -35
-76 -1 -19 -5 -34 -9 -34 -11 0 -10 10 4 70 10 43 15 50 32 48 18 -3 21 -11
24 -60z m-755 19 c3 -8 8 -40 11 -73 l5 -59 -12 60 c-7 33 -16 66 -20 73 -5 6
-4 12 1 12 6 0 12 -6 15 -13z m4929 -22 c-5 -44 -26 -41 -30 3 -3 26 0 32 15
32 16 0 18 -6 15 -35z m-2505 -122 c-2 -21 -4 -6 -4 32 0 39 2 55 4 38 2 -18
2 -50 0 -70z m-1780 70 c-20 -2 -52 -2 -70 0 -17 2 0 4 38 4 39 0 53 -2 32 -4z
m8 -90 c-4 -31 -10 -65 -15 -77 -4 -12 -16 -49 -26 -83 -9 -35 -21 -63 -26
-63 -10 0 -10 1 5 46 8 22 17 51 21 67 l6 27 -114 0 -114 0 -7 -32 c-12 -60
-16 -70 -31 -64 -8 3 -28 3 -44 0 -26 -6 -29 -10 -25 -33 3 -14 0 -10 -6 9
-26 86 -34 90 -165 90 l-62 0 -8 73 c-7 63 -9 68 -15 37 l-6 -35 -2 33 c0 18
5 35 12 37 6 3 134 9 282 13 149 5 287 10 309 10 l38 2 -7 -57z m3495 47 c0
-5 -11 -10 -25 -10 -14 0 -25 5 -25 10 0 6 11 10 25 10 14 0 25 -4 25 -10z
m-1403 -52 c-3 -7 -5 -2 -5 12 0 14 2 19 5 13 2 -7 2 -19 0 -25z m1401 -50
c-3 -70 -6 -83 -20 -86 -16 -3 -18 6 -18 76 0 77 4 88 33 91 4 1 7 -36 5 -81z
m-1934 54 c3 -5 -8 -6 -25 -4 -16 2 -29 6 -29 8 0 8 49 4 54 -4z m543 -44 c-3
-8 -6 -5 -6 6 -1 11 2 17 5 13 3 -3 4 -12 1 -19z m-2720 -90 c-2 -18 -4 -6 -4
27 0 33 2 48 4 33 2 -15 2 -42 0 -60z m2294 72 l36 0 7 -71 c7 -76 -1 -99 -36
-99 -29 0 -35 30 -10 50 24 20 19 30 -15 30 -19 0 -23 -5 -24 -32 0 -18 -4
-42 -9 -53 -7 -15 -9 -9 -9 25 -1 25 -8 67 -16 94 -17 55 -12 70 19 62 11 -3
37 -6 57 -6z m-1191 -64 c0 -12 -5 -7 -19 24 -11 24 -11 24 3 6 9 -11 16 -24
16 -30z m3065 34 c16 -7 17 -9 3 -9 -9 -1 -23 -4 -32 -7 -11 -4 -16 -1 -16 10
0 17 14 19 45 6z m92 -37 c-3 -10 -5 -2 -5 17 0 19 2 27 5 18 2 -10 2 -26 0
-35z m77 32 c11 -8 15 -15 10 -15 -6 0 -19 7 -30 15 -10 8 -14 14 -9 14 6 0
19 -6 29 -14z m514 -10 c9 -7 -13 -88 -25 -92 -21 -8 -32 7 -42 60 l-8 47 36
-6 c20 -4 37 -8 39 -9z m-2211 -17 c-3 -8 -6 -5 -6 6 -1 11 2 17 5 13 3 -3 4
-12 1 -19z m-558 -45 c-1 -44 -3 -51 -8 -28 -6 29 -3 85 5 85 2 0 3 -26 3 -57z
m-19 34 c0 -7 -5 -18 -12 -25 -20 -20 -38 -14 -38 13 0 20 5 25 25 25 14 0 25
-6 25 -13z m-1850 -32 c5 -14 12 -38 15 -53 3 -16 -1 -10 -10 13 -8 22 -23 46
-32 53 -16 11 -16 12 0 12 10 0 22 -11 27 -25z m667 -22 l2 -43 -47 -2 -47 -2
48 -3 47 -4 0 -108 0 -109 -41 9 c-23 5 -48 16 -56 24 -8 8 -19 15 -24 15 -5
0 -9 45 -9 100 l0 100 53 2 52 2 -52 3 c-48 4 -53 6 -53 28 0 20 6 24 38 28
81 9 87 6 89 -40z m1783 27 c6 9 12 10 26 1 18 -10 18 -10 -3 -11 -16 0 -23
-6 -23 -20 0 -11 3 -19 8 -19 23 4 52 -2 52 -11 0 -17 -31 -24 -41 -9 -7 12
-9 12 -9 -1 -2 -20 -16 16 -22 55 -3 17 -3 24 0 16 3 -11 6 -11 12 -1z m-1920
-119 l0 -129 -67 20 c-58 17 -84 20 -169 14 l-101 -6 -6 30 c-6 29 -8 30 -49
24 -53 -8 -52 -7 -44 -39 6 -24 10 -25 74 -25 52 -1 77 -6 112 -26 l45 -25
-95 5 c-52 2 -103 7 -112 11 -11 4 -18 3 -18 -4 0 -6 8 -11 17 -11 13 0 14 -3
5 -12 -18 -18 -27 -2 -51 92 -12 47 -24 92 -27 101 -5 16 34 20 276 23 l65 1
3 -52 c3 -41 0 -52 -10 -49 -7 3 -39 12 -72 21 -53 15 -57 17 -40 30 18 14 18
14 -3 15 -12 0 -23 -6 -25 -14 -2 -10 -21 -9 -93 10 -49 12 -92 21 -94 18 -5
-5 1 -7 164 -50 77 -21 163 -39 190 -40 34 -2 42 -1 25 4 -28 9 -35 35 -25 88
6 34 7 34 63 36 l57 2 -57 3 c-53 4 -58 6 -58 27 0 32 7 36 67 36 l53 0 0
-129z m877 109 c54 0 64 -3 82 -26 12 -15 21 -32 21 -38 0 -6 -9 4 -20 22 -11
17 -25 32 -30 32 -6 0 -8 -6 -4 -12 6 -10 5 -10 -7 -2 -8 7 -47 14 -86 16 -40
2 -78 9 -84 15 -9 9 -2 9 27 2 22 -4 67 -9 101 -9z m1286 1 c14 -1 17 -10 17
-47 l0 -46 -32 6 c-18 3 -56 9 -85 13 -62 7 -70 15 -49 45 10 14 12 26 6 33
-7 8 9 9 58 3 37 -4 75 -7 85 -7z m-849 -25 c-6 -16 -44 -23 -44 -8 0 7 42 30
48 26 1 0 0 -9 -4 -18z m669 -3 c-7 -2 -19 -2 -25 0 -7 3 -2 5 12 5 14 0 19
-2 13 -5z m-1503 -83 c0 -60 -4 -67 -28 -51 -11 7 -11 9 2 14 9 4 16 18 16 32
0 21 -5 25 -30 25 -23 0 -30 4 -30 20 0 16 7 20 35 20 l35 0 0 -60z m828 33
c-2 -17 -10 -29 -20 -31 -14 -3 -18 3 -18 27 0 25 4 31 21 31 16 0 20 -5 17
-27z m1836 17 c-12 -5 -29 -19 -38 -32 -9 -12 -16 -17 -16 -10 0 18 38 52 58
51 13 0 13 -2 -4 -9z m-2757 -92 c-2 -18 -4 -4 -4 32 0 36 2 50 4 33 2 -18 2
-48 0 -65z m1213 82 c0 -5 -4 -10 -10 -10 -5 0 -10 5 -10 10 0 6 5 10 10 10 6
0 10 -4 10 -10z m-2103 -32 c-3 -8 -6 -5 -6 6 -1 11 2 17 5 13 3 -3 4 -12 1
-19z m866 -5 c-7 -2 -21 -2 -30 0 -10 3 -4 5 12 5 17 0 24 -2 18 -5z m-856
-35 c-3 -8 -6 -5 -6 6 -1 11 2 17 5 13 3 -3 4 -12 1 -19z m4027 15 c-5 -5 -11
-11 -14 -14 -3 -4 -11 -1 -18 7 -11 12 -8 14 14 14 15 0 23 -3 18 -7z m190
-11 c2 -4 -12 -6 -32 -4 -56 5 -62 10 -15 11 23 1 44 -3 47 -7z m-4207 -44
c-3 -8 -6 -5 -6 6 -1 11 2 17 5 13 3 -3 4 -12 1 -19z m4220 -10 c-3 -7 -5 -2
-5 12 0 14 2 19 5 13 2 -7 2 -19 0 -25z m-2750 -10 c-3 -7 -5 -2 -5 12 0 14 2
19 5 13 2 -7 2 -19 0 -25z m2412 12 c30 0 43 -5 51 -20 6 -11 18 -19 28 -19
15 1 15 2 -1 6 -27 7 -14 28 19 30 25 2 26 1 9 -7 -17 -7 -18 -9 -2 -9 9 -1
17 -8 17 -17 0 -9 5 -12 11 -8 7 4 10 1 7 -6 -2 -7 -42 -21 -89 -31 -46 -10
-95 -21 -109 -25 l-25 -7 25 22 c16 14 19 21 8 18 -9 -3 -24 1 -35 8 -12 10
-14 14 -4 15 7 0 11 6 7 15 -3 8 -1 15 5 15 6 0 8 9 4 21 -6 18 -5 19 13 10
12 -6 39 -11 61 -11z m-3031 -7 c-15 -2 -42 -2 -60 0 -18 2 -6 4 27 4 33 0 48
-2 33 -4z m649 -85 c-2 -18 -4 -6 -4 27 0 33 2 48 4 33 2 -15 2 -42 0 -60z
m3233 52 c20 -6 21 -8 5 -8 -11 0 -31 4 -45 8 -20 6 -21 8 -5 8 11 0 31 -4 45
-8z m-3250 -34 l0 -34 -39 9 c-22 5 -67 10 -100 11 -53 3 -61 5 -61 23 0 14 3
16 8 7 5 -8 43 -16 95 -20 86 -8 87 -8 87 15 0 13 2 23 5 23 3 0 5 -15 5 -34z
m130 19 c41 -8 54 -13 35 -14 -47 -2 -75 -12 -75 -27 0 -11 12 -13 56 -8 l57
7 -7 -39 c-13 -72 -28 -118 -34 -107 -4 5 -14 13 -22 17 -8 3 -5 4 8 2 12 -2
22 0 22 4 0 5 -24 14 -52 20 -29 6 -58 14 -65 18 -12 7 -6 143 6 141 3 0 35
-6 71 -14z m-653 -112 c-3 -2 -25 1 -51 8 -38 9 -46 15 -46 34 0 13 -7 26 -16
29 -23 9 -24 8 -24 -20 0 -20 -4 -25 -16 -20 -9 3 -21 6 -27 6 -23 0 38 50 62
51 14 0 46 6 71 12 l45 12 3 -54 c2 -29 1 -55 -1 -58z m1412 92 c91 -12 119
-19 138 -36 22 -22 60 -105 51 -114 -2 -2 -12 18 -22 46 -10 27 -29 57 -42 66
-13 8 -63 20 -112 25 -48 5 -112 16 -142 23 -30 8 -39 12 -20 9 19 -3 86 -12
149 -19z m1414 -12 c-13 -2 -33 -2 -45 0 -13 2 -3 4 22 4 25 0 35 -2 23 -4z
m-2033 -27 c0 -13 -11 -40 -25 -60 -19 -28 -21 -36 -9 -36 8 0 13 4 10 9 -3 5
0 14 8 20 11 9 14 6 14 -14 0 -20 -6 -25 -25 -25 -32 0 -37 20 -23 80 9 38 16
50 31 50 13 0 19 -7 19 -24z m1943 17 c-7 -2 -19 -2 -25 0 -7 3 -2 5 12 5 14
0 19 -2 13 -5z m947 -59 c0 -8 -10 -14 -25 -14 -23 0 -25 4 -25 43 l1 42 24
-28 c14 -15 25 -35 25 -43z m-2070 3 c0 -12 0 -11 -24 28 l-17 30 20 -24 c12
-13 21 -28 21 -34z m1075 45 c-6 -4 -26 -21 -45 -37 l-36 -30 38 38 c20 20 41
37 45 37 4 0 3 -3 -2 -8z m365 -1 c0 -6 -4 -13 -10 -16 -13 -8 -13 -55 -1 -55
6 0 6 -12 1 -32 -5 -17 -7 -42 -4 -54 6 -24 14 -28 77 -39 31 -5 37 -10 37
-31 0 -20 -4 -24 -22 -19 -13 2 -78 14 -145 25 -67 11 -128 23 -136 26 -9 3
-13 26 -13 79 1 41 5 75 9 75 5 0 6 4 3 9 -8 13 16 20 92 27 37 3 69 7 71 10
8 8 41 4 41 -5z m-2145 -21 c-18 -7 -17 -8 8 -15 l27 -7 0 -255 0 -255 -32 7
c-18 4 -36 9 -40 12 -5 2 -8 122 -8 267 l0 263 32 -5 c28 -4 30 -6 13 -12z
m1903 13 c-10 -2 -26 -2 -35 0 -10 3 -2 5 17 5 19 0 27 -2 18 -5z m449 -25
c-3 -7 -5 -2 -5 12 0 14 2 19 5 13 2 -7 2 -19 0 -25z m-2750 -10 c-3 -7 -5 -2
-5 12 0 14 2 19 5 13 2 -7 2 -19 0 -25z m2236 25 c-7 -2 -19 -2 -25 0 -7 3 -2
5 12 5 14 0 19 -2 13 -5z m592 -40 c-10 -75 -17 -94 -29 -90 -13 5 -12 18 7
81 l16 48 -25 -5 c-13 -2 -24 0 -24 4 0 5 14 9 31 9 l31 0 -7 -47z m-2488
-280 c-1 -60 -3 -11 -3 107 0 118 2 167 3 108 2 -60 2 -156 0 -215z m1835 297
c-40 -38 -67 -111 -82 -220 -6 -47 -8 -50 -9 -16 -1 43 23 146 45 189 16 30
49 67 61 67 4 0 -3 -9 -15 -20z m-3552 -12 l45 -21 -60 -9 c-58 -8 -100 -1
-148 24 -64 33 94 39 163 6z m1929 2 c57 -11 106 -22 109 -25 9 -9 -24 -5
-103 11 -42 9 -79 14 -81 11 -3 -3 40 -13 95 -23 l101 -19 0 -133 0 -134 -28
7 c-16 3 -66 16 -113 28 l-84 22 -3 128 c-2 98 0 127 10 127 9 0 8 3 -2 10
-20 13 -20 13 99 -10z m2011 10 c0 -5 -5 -10 -11 -10 -5 0 -7 5 -4 10 3 6 8
10 11 10 2 0 4 -4 4 -10z m-2543 -32 c-3 -8 -6 -5 -6 6 -1 11 2 17 5 13 3 -3
4 -12 1 -19z m2747 -12 c-5 -22 -12 -26 -43 -26 -20 0 -43 5 -51 10 -10 7 0 8
32 4 45 -6 47 -5 54 20 3 15 8 25 11 23 2 -3 1 -16 -3 -31z m-4301 -13 c-13
-2 -35 -2 -50 0 -16 2 -5 4 22 4 28 0 40 -2 28 -4z m3838 -34 c-5 -13 -10 -19
-10 -12 -1 15 10 45 15 40 3 -2 0 -15 -5 -28z m-2186 1 c-27 -12 -43 -12 -25
0 8 5 22 9 30 9 10 0 8 -3 -5 -9z m132 4 c-3 -3 -12 -4 -19 -1 -8 3 -5 6 6 6
11 1 17 -2 13 -5z m-259 -68 c16 0 20 -2 12 -10 -18 -18 -45 7 -47 45 l-1 34
6 -35 c6 -28 11 -35 30 -34z m-1801 32 c-3 -8 -6 -5 -6 6 -1 11 2 17 5 13 3
-3 4 -12 1 -19z m2053 18 c0 -2 -9 -6 -20 -9 -11 -3 -18 -1 -14 4 5 9 34 13
34 5z m-190 -10 c0 -2 -8 -10 -17 -17 -16 -13 -17 -12 -4 4 13 16 21 21 21 13z
m97 -32 c-22 -18 -40 -24 -78 -24 -27 0 -49 3 -49 8 0 4 22 5 49 4 42 -3 53 0
73 20 13 13 25 22 28 20 3 -2 -8 -15 -23 -28z m992 -104 c0 -8 -9 14 -20 50
-10 36 -19 70 -18 75 1 15 39 -108 38 -125z m1611 110 c0 -6 9 -6 26 0 31 12
44 6 44 -22 0 -16 -5 -19 -22 -14 -13 3 -44 6 -70 6 -27 0 -48 5 -48 10 0 6 9
10 19 10 11 0 23 5 26 10 8 13 25 13 25 0z m-765 -39 c-6 -28 -9 -30 -28 -20
-11 7 -43 15 -71 18 l-51 7 75 15 c41 9 77 14 78 13 2 -1 1 -16 -3 -33z
m-2631 -33 c4 -28 4 -138 0 -244 -7 -185 -8 -193 -28 -197 -16 -3 -15 -5 7 -6
24 -1 27 -5 27 -36 0 -41 -6 -42 -54 -14 -36 21 -47 39 -24 39 6 0 9 2 7 5 -3
2 -94 -13 -203 -35 -108 -22 -199 -40 -202 -40 -2 0 -4 117 -4 259 l0 260 43
6 c273 39 376 53 398 54 24 1 27 -3 33 -51z m926 -75 l0 -114 -47 6 c-27 3
-70 11 -97 16 -27 5 -52 7 -55 3 -6 -6 21 -32 69 -67 31 -22 8 -12 -42 20 -38
23 -38 24 -38 88 0 63 1 65 25 65 16 0 25 -6 25 -16 0 -25 54 -14 58 12 2 16
-6 24 -35 36 l-38 14 57 17 c31 9 66 17 78 17 11 0 19 4 16 8 -3 5 1 9 9 9 12
0 15 -21 15 -114z m1000 97 c91 -24 100 -24 100 -5 0 16 19 19 69 9 26 -6 31
-11 31 -35 0 -27 3 -29 40 -29 38 0 40 1 40 31 0 24 3 30 16 25 9 -3 22 -6 30
-6 12 0 14 -53 14 -336 l0 -335 -27 3 -28 3 -5 115 c-5 102 -3 117 12 129 29
22 23 65 -13 95 -17 14 -37 26 -44 26 -26 0 -26 21 -1 66 14 25 28 61 32 81 4
23 13 37 25 40 23 6 25 39 3 47 -32 12 -78 5 -172 -26 -113 -36 -127 -45 -111
-64 16 -20 45 -17 106 8 29 12 55 19 58 16 3 -3 -4 -34 -15 -70 -24 -73 -13
-69 -152 -47 l-68 11 0 66 c-1 37 -7 97 -14 135 -7 37 -10 67 -7 67 3 0 40 -9
81 -20z m757 -42 c-2 -13 -4 -3 -4 22 0 25 2 35 4 23 2 -13 2 -33 0 -45z m741
37 c34 -5 42 -11 42 -27 0 -19 -4 -20 -46 -14 -26 3 -57 6 -70 6 -19 0 -24 5
-24 26 0 23 3 25 28 20 15 -3 46 -8 70 -11z m-482 -75 c8 0 14 -5 14 -11 0 -6
-9 -9 -19 -6 -15 3 -21 -1 -24 -17 -2 -11 -4 6 -5 39 0 56 1 58 10 28 6 -18
17 -33 24 -33z m-3426 -10 c0 -33 -4 -60 -8 -60 -5 0 -111 -16 -236 -35 -126
-19 -230 -35 -232 -35 -2 0 -4 29 -4 65 0 45 4 65 13 65 6 1 109 14 227 29
118 16 221 29 228 30 8 1 12 -17 12 -59z m3080 34 c22 -12 23 -13 5 -14 -60 0
-125 14 -125 28 0 11 9 13 47 7 27 -4 59 -13 73 -21z m697 1 c0 -10 -10 -15
-31 -15 -29 1 -30 1 -12 15 25 19 43 19 43 0z m-4432 -56 c-29 -52 -31 -49 -9
15 10 29 20 44 26 38 5 -5 -1 -26 -17 -53z m4604 45 c11 -11 -9 -12 -61 -5
-37 5 -61 4 -68 -3 -7 -7 -10 -4 -10 8 0 17 6 18 67 12 37 -4 69 -9 72 -12z
m-765 -20 c3 -8 2 -12 -4 -9 -6 3 -10 10 -10 16 0 14 7 11 14 -7z m-907 -26
c-3 -7 -5 -2 -5 12 0 14 2 19 5 13 2 -7 2 -19 0 -25z m1836 3 l82 -8 -55 -25
c-54 -25 -57 -25 -130 -12 -41 7 -90 13 -108 14 -19 0 -35 6 -38 15 -4 8 -11
12 -17 8 -6 -3 -7 -1 -3 5 13 21 76 14 97 -10 l18 -23 1 32 c0 31 0 31 36 21
20 -5 73 -13 117 -17z m-2019 -14 c71 -18 93 -27 109 -49 19 -26 20 -32 7
-111 -22 -141 3 -217 71 -217 17 0 58 7 91 16 85 22 96 11 14 -15 -85 -26
-136 -27 -167 -2 -22 18 -24 27 -24 108 0 48 4 113 9 144 l8 56 -68 6 c-68 5
-168 26 -161 33 2 2 35 -3 73 -11 89 -19 124 -19 124 -1 0 10 -28 21 -87 34
-149 34 -163 36 -163 20 0 -8 10 -20 23 -26 12 -6 17 -11 11 -11 -21 -2 -47
26 -41 43 8 20 28 18 171 -17z m1155 -22 c0 -5 -6 1 -14 15 -8 14 -14 30 -14
35 0 6 6 -1 14 -15 8 -14 14 -29 14 -35z m-942 13 c-3 -7 -5 -2 -5 12 0 14 2
19 5 13 2 -7 2 -19 0 -25z m903 2 c6 -11 8 -20 6 -20 -3 0 -10 9 -16 20 -6 11
-8 20 -6 20 3 0 10 -9 16 -20z m-923 -62 c-2 -13 -4 -3 -4 22 0 25 2 35 4 23
2 -13 2 -33 0 -45z m871 17 c-3 -3 -9 2 -12 12 -6 14 -5 15 5 6 7 -7 10 -15 7
-18z m-3798 -19 c-15 -40 -13 -49 10 -43 11 3 18 2 15 -3 -3 -4 -14 -10 -25
-13 -14 -4 -20 0 -20 12 0 22 21 83 26 78 3 -2 0 -16 -6 -31z m640 -19 l0 -52
-207 -34 c-115 -19 -223 -36 -240 -39 l-33 -4 0 55 0 55 118 17 c64 10 162 26
217 35 153 27 145 29 145 -33z m2317 -9 c-3 -7 -5 -2 -5 12 0 14 2 19 5 13 2
-7 2 -19 0 -25z m284 5 c-12 -20 -14 -14 -5 12 4 9 9 14 11 11 3 -2 0 -13 -6
-23z m-1441 13 c0 -2 -8 -10 -17 -17 -16 -13 -17 -12 -4 4 13 16 21 21 21 13z
m1127 -58 c-3 -8 -6 -5 -6 6 -1 11 2 17 5 13 3 -3 4 -12 1 -19z m289 -15 c-8
-15 -15 -25 -16 -21 0 12 23 58 27 54 3 -2 -2 -17 -11 -33z m-269 -15 c-3 -7
-5 -2 -5 12 0 14 2 19 5 13 2 -7 2 -19 0 -25z m-2307 -126 l0 -138 -222 -43
c-123 -25 -231 -46 -241 -49 -16 -4 -17 6 -15 144 l3 149 210 36 c116 21 222
37 238 38 l27 1 0 -138z m2266 101 c-8 -15 -15 -25 -16 -21 0 12 23 58 27 54
3 -2 -2 -17 -11 -33z m274 17 c0 -5 -5 -10 -11 -10 -5 0 -7 5 -4 10 3 6 8 10
11 10 2 0 4 -4 4 -10z m-250 -42 c-16 -30 -41 -58 -52 -58 -4 0 -8 8 -8 18 0
14 2 14 9 3 7 -11 14 -7 30 20 12 19 21 38 21 43 0 5 3 7 6 4 3 -4 0 -17 -6
-30z m210 22 c-8 -5 -19 -10 -25 -10 -5 0 -3 5 5 10 8 5 20 10 25 10 6 0 3 -5
-5 -10z m-70 -31 c-19 -12 -64 -45 -100 -73 -35 -28 -61 -46 -57 -39 11 18
167 133 180 133 7 0 -4 -10 -23 -21z m78 -644 c-3 -3 -9 2 -12 12 -6 14 -5 15
5 6 7 -7 10 -15 7 -18z"/>
<path d="M3288 3443 c6 -2 18 -2 25 0 6 3 1 5 -13 5 -14 0 -19 -2 -12 -5z"/>
<path d="M3041 3428 c-1 -10 -5 -18 -9 -18 -5 0 -9 -7 -9 -15 0 -11 11 -15 37
-15 20 0 66 -2 101 -5 44 -3 56 -2 39 4 -14 5 -47 9 -73 10 -48 1 -68 12 -80
41 -4 12 -6 11 -6 -2z"/>
<path d="M3228 3433 c6 -2 18 -2 25 0 6 3 1 5 -13 5 -14 0 -19 -2 -12 -5z"/>
<path d="M3243 3363 c9 -2 23 -2 30 0 6 3 -1 5 -18 5 -16 0 -22 -2 -12 -5z"/>
<path d="M3232 3343 c-23 -2 -40 -8 -37 -13 6 -10 76 -1 90 11 5 6 5 8 0 7 -6
-1 -29 -3 -53 -5z"/>
<path d="M3128 3323 c12 -2 30 -2 40 0 9 3 -1 5 -23 4 -22 0 -30 -2 -17 -4z"/>
<path d="M4873 3340 c-106 -15 -156 -30 -102 -30 31 0 212 29 218 35 11 11
-10 10 -116 -5z"/>
<path d="M4858 3291 c-60 -8 -108 -19 -108 -24 0 -5 15 -7 33 -4 17 3 71 11
120 18 48 7 87 16 87 21 0 4 -6 7 -12 6 -7 0 -61 -8 -120 -17z"/>
<path d="M4843 3246 c-46 -7 -86 -15 -89 -19 -4 -4 -5 -7 -3 -7 23 0 233 31
237 35 8 8 -54 4 -145 -9z"/>
<path d="M4843 3207 c-51 -5 -93 -13 -93 -16 0 -8 154 6 208 18 34 8 34 9 7 8
-16 0 -72 -4 -122 -10z"/>
<path d="M4830 3164 l-85 -13 85 5 c47 3 103 9 125 14 l40 8 -40 -1 c-22 0
-78 -6 -125 -13z"/>
<path d="M4838 3127 c-49 -5 -88 -14 -88 -19 0 -5 8 -7 18 -4 9 2 52 7 94 11
43 4 90 10 105 15 27 8 27 8 -7 8 -19 -1 -74 -5 -122 -11z"/>
<path d="M4848 3087 c-54 -6 -98 -13 -98 -16 0 -9 227 12 236 22 8 8 -4 8
-138 -6z"/>
<path d="M4873 3046 c-61 -6 -115 -15 -120 -20 -7 -8 47 -5 185 10 28 4 52 10
52 15 0 5 -1 8 -2 7 -2 0 -53 -6 -115 -12z"/>
<path d="M4905 3003 c-16 -1 -58 -6 -93 -9 -107 -10 -60 -16 62 -9 64 4 116
11 116 16 0 9 -25 10 -85 2z"/>
<path d="M3184 3030 c0 -74 1 -105 3 -67 2 37 2 97 0 135 -2 37 -3 6 -3 -68z"/>
<path d="M3221 3134 c0 -11 3 -14 6 -6 3 7 2 16 -1 19 -3 4 -6 -2 -5 -13z"/>
<path d="M3252 3130 c0 -14 2 -19 5 -12 2 6 2 18 0 25 -3 6 -5 1 -5 -13z"/>
<path d="M3154 3035 c0 -55 1 -76 3 -47 2 29 2 74 0 100 -2 26 -3 2 -3 -53z"/>
<path d="M3578 2993 c7 -3 16 -2 19 1 4 3 -2 6 -13 5 -11 0 -14 -3 -6 -6z"/>
<path d="M698 2873 c6 -2 12 -21 12 -41 0 -20 -4 -32 -8 -25 -5 8 -12 8 -26
-3 -18 -13 -14 -14 37 -14 45 0 57 3 57 15 0 12 -4 13 -19 5 -29 -15 -31 -13
-31 30 0 32 -4 40 -17 39 -11 0 -13 -3 -5 -6z"/>
<path d="M635 2781 c-13 -13 3 -16 85 -17 50 -1 88 1 86 3 -6 7 -166 20 -171
14z"/>
<path d="M4298 2793 c12 -2 30 -2 40 0 9 3 -1 5 -23 4 -22 0 -30 -2 -17 -4z"/>
<path d="M4988 2663 c-2 -5 -1 -30 3 -58 l6 -50 1 58 c2 52 -2 69 -10 50z"/>
<path d="M4750 2390 c0 -5 16 -10 35 -10 19 0 35 5 35 10 0 6 -16 10 -35 10
-19 0 -35 -4 -35 -10z"/>
<path d="M4750 2346 c0 -2 18 -6 40 -8 22 -2 40 0 40 4 0 5 -18 8 -40 8 -22 0
-40 -2 -40 -4z"/>
<path d="M4805 2300 c3 -5 8 -10 11 -10 2 0 4 5 4 10 0 6 -5 10 -11 10 -5 0
-7 -4 -4 -10z"/>
<path d="M873 2183 c9 -2 25 -2 35 0 9 3 1 5 -18 5 -19 0 -27 -2 -17 -5z"/>
<path d="M748 2173 c12 -2 30 -2 40 0 9 3 -1 5 -23 4 -22 0 -30 -2 -17 -4z"/>
<path d="M763 2103 c15 -2 37 -2 50 0 12 2 0 4 -28 4 -27 0 -38 -2 -22 -4z"/>
<path d="M563 1993 c9 -2 25 -2 35 0 9 3 1 5 -18 5 -19 0 -27 -2 -17 -5z"/>
<path d="M3175 1554 c-43 -27 -29 -26 50 5 45 18 47 20 20 20 -16 1 -48 -11
-70 -25z"/>
<path d="M210 4389 c29 -12 650 -178 763 -205 90 -21 89 -22 -18 -76 -33 -17
-68 -37 -77 -45 -15 -13 -60 -5 -410 72 -216 48 -410 90 -431 95 -29 6 -37 5
-37 -6 0 -7 10 -16 23 -19 64 -14 588 -125 592 -125 3 0 5 -39 5 -86 0 -77 -2
-85 -17 -80 -10 3 -54 12 -98 20 -44 8 -174 33 -289 55 -115 23 -211 39 -213
37 -6 -6 97 -27 442 -91 77 -14 148 -28 158 -31 15 -5 17 -23 17 -196 l0 -190
-32 6 c-43 7 -489 73 -548 80 -38 5 -40 4 -15 -3 24 -8 572 -91 598 -91 4 0 7
88 7 196 l0 196 23 -5 c12 -3 55 -11 95 -18 l72 -12 2 -181 3 -181 2 178 3
177 28 1 c23 2 24 2 5 6 -22 4 -23 9 -23 85 0 75 1 80 20 75 15 -4 20 0 20 14
0 14 7 19 26 19 14 0 23 3 20 8 -2 4 33 27 78 51 l82 43 244 -67 c135 -37 265
-71 289 -77 l44 -10 -39 -19 c-22 -11 -28 -16 -14 -13 14 4 37 13 53 21 22 11
36 11 70 3 23 -6 59 -16 80 -21 l39 -10 -4 -60 c-3 -54 -1 -59 17 -59 16 0 17
2 6 9 -11 7 -13 26 -7 90 4 53 3 81 -4 81 -5 0 -10 -11 -10 -25 0 -23 -3 -25
-27 -19 -16 4 -32 10 -38 13 -5 4 -23 8 -40 10 -43 4 -42 7 7 23 36 12 39 15
20 20 -12 4 -20 3 -17 -1 4 -8 -59 -31 -86 -31 -8 0 -134 32 -281 72 l-268 73
43 22 c23 12 38 22 34 23 -4 0 -25 -9 -47 -20 -22 -11 -43 -20 -47 -20 -14 1
41 40 57 41 10 0 11 2 2 6 -7 2 -32 -7 -56 -21 l-43 -25 -89 24 c-324 87 -775
205 -781 204 -4 0 3 -5 17 -10z m610 -431 c0 -56 -4 -78 -12 -78 -7 0 -48 7
-91 15 -43 8 -81 15 -83 15 -2 0 -4 37 -4 83 l0 84 95 -21 95 -21 0 -77z"/>
<path d="M2570 4259 c-69 -27 -198 -77 -288 -110 -89 -34 -161 -63 -159 -66 3
-3 108 36 517 190 60 23 68 23 104 11 22 -8 41 -12 43 -10 4 4 -73 36 -85 35
-4 0 -63 -22 -132 -50z"/>
<path d="M3195 4292 c88 -40 256 -104 260 -100 5 5 -275 118 -290 118 -6 0 8
-9 30 -18z"/>
<path d="M3488 4183 c7 -3 16 -2 19 1 4 3 -2 6 -13 5 -11 0 -14 -3 -6 -6z"/>
<path d="M2151 4134 c0 -11 3 -14 6 -6 3 7 2 16 -1 19 -3 4 -6 -2 -5 -13z"/>
<path d="M3335 4140 c-13 -5 -14 -9 -5 -9 8 0 24 4 35 9 13 5 14 9 5 9 -8 0
-24 -4 -35 -9z"/>
<path d="M2700 4060 c-63 -21 -110 -39 -104 -39 16 -1 215 58 234 69 31 19
-15 8 -130 -30z"/>
<path d="M1818 4083 c7 -3 16 -2 19 1 4 3 -2 6 -13 5 -11 0 -14 -3 -6 -6z"/>
<path d="M2055 4061 c-22 -11 -35 -19 -30 -19 14 -1 93 36 80 37 -5 0 -28 -8
-50 -18z"/>
<path d="M948 4053 c7 -3 16 -2 19 1 4 3 -2 6 -13 5 -11 0 -14 -3 -6 -6z"/>
<path d="M988 4043 c7 -3 16 -2 19 1 4 3 -2 6 -13 5 -11 0 -14 -3 -6 -6z"/>
<path d="M1958 4043 c7 -3 16 -2 19 1 4 3 -2 6 -13 5 -11 0 -14 -3 -6 -6z"/>
<path d="M1028 4033 c7 -3 16 -2 19 1 4 3 -2 6 -13 5 -11 0 -14 -3 -6 -6z"/>
<path d="M1068 4023 c7 -3 16 -2 19 1 4 3 -2 6 -13 5 -11 0 -14 -3 -6 -6z"/>
<path d="M1118 4013 c7 -3 16 -2 19 1 4 3 -2 6 -13 5 -11 0 -14 -3 -6 -6z"/>
<path d="M1496 3995 c-61 -26 -88 -43 -48 -30 35 10 128 54 117 54 -5 0 -37
-11 -69 -24z"/>
<path d="M1165 4000 c11 -5 27 -9 35 -9 9 0 8 4 -5 9 -11 5 -27 9 -35 9 -9 0
-8 -4 5 -9z"/>
<path d="M5075 4003 c-249 -58 -404 -93 -409 -93 -3 0 -6 -12 -6 -26 0 -20 4
-25 16 -20 9 3 112 27 230 53 202 45 214 49 214 70 0 23 -6 25 -45 16z"/>
<path d="M3903 3950 c0 -30 2 -43 4 -27 2 15 2 39 0 55 -2 15 -4 2 -4 -28z"/>
<path d="M1328 3983 c7 -3 16 -2 19 1 4 3 -2 6 -13 5 -11 0 -14 -3 -6 -6z"/>
<path d="M2507 3952 c-43 -14 -75 -28 -70 -29 5 -2 40 8 79 21 49 16 76 21 87
14 11 -5 17 -5 17 0 0 8 -25 23 -33 22 -1 -1 -37 -13 -80 -28z"/>
<path d="M1398 3963 c7 -3 16 -2 19 1 4 3 -2 6 -13 5 -11 0 -14 -3 -6 -6z"/>
<path d="M1168 3953 c7 -3 16 -2 19 1 4 3 -2 6 -13 5 -11 0 -14 -3 -6 -6z"/>
<path d="M1508 3933 c7 -3 16 -2 19 1 4 3 -2 6 -13 5 -11 0 -14 -3 -6 -6z"/>
<path d="M5095 3935 c-5 -2 -98 -22 -205 -45 l-195 -42 5 -183 c3 -101 8 -186
12 -190 3 -4 4 76 1 177 l-5 183 173 38 c96 20 189 40 207 43 17 4 32 10 32
15 0 9 -7 10 -25 4z"/>
<path d="M1548 3923 c7 -3 16 -2 19 1 4 3 -2 6 -13 5 -11 0 -14 -3 -6 -6z"/>
<path d="M1598 3913 c7 -3 16 -2 19 1 4 3 -2 6 -13 5 -11 0 -14 -3 -6 -6z"/>
<path d="M2378 3913 c7 -3 16 -2 19 1 4 3 -2 6 -13 5 -11 0 -14 -3 -6 -6z"/>
<path d="M1638 3903 c7 -3 16 -2 19 1 4 3 -2 6 -13 5 -11 0 -14 -3 -6 -6z"/>
<path d="M2052 3905 c8 -9 159 -47 165 -42 2 2 -27 12 -64 21 -37 9 -77 19
-88 23 -11 3 -17 2 -13 -2z"/>
<path d="M2418 3903 c7 -3 16 -2 19 1 4 3 -2 6 -13 5 -11 0 -14 -3 -6 -6z"/>
<path d="M1678 3893 c7 -3 16 -2 19 1 4 3 -2 6 -13 5 -11 0 -14 -3 -6 -6z"/>
<path d="M2458 3893 c7 -3 16 -2 19 1 4 3 -2 6 -13 5 -11 0 -14 -3 -6 -6z"/>
<path d="M1718 3883 c7 -3 16 -2 19 1 4 3 -2 6 -13 5 -11 0 -14 -3 -6 -6z"/>
<path d="M1758 3873 c7 -3 16 -2 19 1 4 3 -2 6 -13 5 -11 0 -14 -3 -6 -6z"/>
<path d="M1808 3863 c7 -3 16 -2 19 1 4 3 -2 6 -13 5 -11 0 -14 -3 -6 -6z"/>
<path d="M1120 3809 c129 -26 244 -48 255 -48 11 1 -86 23 -215 50 -129 26
-244 48 -255 48 -11 -1 86 -23 215 -50z"/>
<path d="M2238 3853 c7 -3 16 -2 19 1 4 3 -2 6 -13 5 -11 0 -14 -3 -6 -6z"/>
<path d="M1908 3843 c7 -3 16 -2 19 1 4 3 -2 6 -13 5 -11 0 -14 -3 -6 -6z"/>
<path d="M1958 3833 c7 -3 16 -2 19 1 4 3 -2 6 -13 5 -11 0 -14 -3 -6 -6z"/>
<path d="M1836 3815 c4 -8 9 -15 13 -15 4 0 8 7 8 15 0 8 -6 15 -13 15 -8 0
-11 -6 -8 -15z"/>
<path d="M1998 3823 c7 -3 16 -2 19 1 4 3 -2 6 -13 5 -11 0 -14 -3 -6 -6z"/>
<path d="M2088 3803 c7 -3 16 -2 19 1 4 3 -2 6 -13 5 -11 0 -14 -3 -6 -6z"/>
<path d="M1893 3740 c0 -36 2 -50 4 -32 2 17 2 47 0 65 -2 17 -4 3 -4 -33z"/>
<path d="M2168 3783 c7 -3 16 -2 19 1 4 3 -2 6 -13 5 -11 0 -14 -3 -6 -6z"/>
<path d="M2220 3770 c34 -11 60 -11 35 0 -11 5 -29 8 -40 8 -16 0 -15 -2 5 -8z"/>
<path d="M1450 3744 c30 -7 75 -16 100 -18 25 -3 7 3 -40 14 -96 21 -145 25
-60 4z"/>
<path d="M2288 3753 c7 -3 16 -2 19 1 4 3 -2 6 -13 5 -11 0 -14 -3 -6 -6z"/>
<path d="M2335 3741 c11 -4 36 -11 55 -15 24 -4 29 -3 15 3 -11 4 -36 11 -55
15 -24 4 -29 3 -15 -3z"/>
<path d="M1608 3713 c6 -2 18 -2 25 0 6 3 1 5 -13 5 -14 0 -19 -2 -12 -5z"/>
<path d="M1658 3703 c6 -2 18 -2 25 0 6 3 1 5 -13 5 -14 0 -19 -2 -12 -5z"/>
<path d="M1708 3693 c6 -2 18 -2 25 0 6 3 1 5 -13 5 -14 0 -19 -2 -12 -5z"/>
<path d="M1758 3683 c6 -2 18 -2 25 0 6 3 1 5 -13 5 -14 0 -19 -2 -12 -5z"/>
<path d="M1848 3667 l52 -10 0 -280 0 -280 -102 7 c-55 4 -114 10 -130 13
l-28 6 0 -327 0 -326 125 0 126 0 -3 -47 -3 -48 -87 -5 c-47 -3 -90 -8 -94
-12 -4 -5 -2 -8 4 -8 6 0 13 -17 15 -37 4 -38 4 -38 5 6 l2 44 98 -5 c53 -3
92 -3 87 -1 -7 2 -8 28 -4 71 3 37 3 327 1 645 -4 523 -3 577 11 577 9 0 39
-5 67 -11 28 -6 54 -9 56 -6 6 5 -213 48 -236 46 -8 -1 9 -6 38 -12z m-10
-584 l52 -5 -2 -297 -3 -296 -112 -3 -113 -3 0 312 0 311 63 -6 c34 -4 86 -9
115 -13z"/>
<path d="M1705 2898 l0 -123 73 -3 72 -3 -2 118 -2 118 -3 -112 -4 -113 -64 0
-64 0 -4 120 -3 120 1 -122z"/>
<path d="M1752 2898 l2 -113 3 107 c3 91 6 107 21 111 12 3 11 5 -5 6 -23 1
-23 -1 -21 -111z"/>
<path d="M1702 2633 l2 -118 3 113 c3 89 7 112 18 112 11 0 15 -22 18 -107 l3
-108 2 107 c2 92 4 107 20 111 9 3 -2 5 -25 6 l-43 1 2 -117z"/>
<path d="M1844 2635 c0 -60 1 -84 3 -52 2 32 2 81 0 110 -2 29 -3 3 -3 -58z"/>
<path d="M951 3477 c7 -9 337 -59 351 -55 7 3 -58 14 -143 27 -85 13 -167 25
-184 28 -16 3 -27 3 -24 0z"/>
<path d="M1355 3409 c22 -4 51 -8 65 -7 16 0 11 3 -15 9 -22 4 -51 8 -65 7
-16 0 -11 -3 15 -9z"/>
<path d="M1550 3380 c58 -10 116 -18 130 -18 14 0 -22 9 -80 19 -58 10 -116
18 -130 17 -14 0 22 -9 80 -18z"/>
<path d="M1723 3353 c9 -2 23 -2 30 0 6 3 -1 5 -18 5 -16 0 -22 -2 -12 -5z"/>
<path d="M1783 3343 c9 -2 23 -2 30 0 6 3 -1 5 -18 5 -16 0 -22 -2 -12 -5z"/>
<path d="M940 2816 l0 -386 103 1 c56 0 134 3 173 7 l72 8 6 -51 c3 -27 6 -65
6 -83 0 -38 2 -39 101 -50 l77 -8 -1 73 c-1 40 -5 67 -10 60 -4 -7 -7 0 -5 18
3 27 7 31 43 35 l40 5 -2 173 c-1 96 -3 175 -5 177 -2 1 -59 4 -128 6 l-125 4
-3 -171 -2 -171 -77 -7 c-42 -3 -114 -6 -160 -6 l-83 0 0 196 0 197 170 -8
170 -7 0 170 0 169 -102 12 c-57 6 -138 14 -180 18 l-78 6 0 -387z m175 349
c72 -8 138 -15 148 -15 15 0 17 -14 17 -151 l0 -150 -97 6 c-54 3 -126 8 -160
11 l-63 6 0 154 c0 117 3 154 13 154 6 0 71 -7 142 -15z m368 -381 l37 -7 0
-63 0 -64 -42 -2 -43 -1 43 -4 c47 -5 45 1 46 -110 l1 -73 -51 0 c-28 0 -78
-3 -110 -6 l-59 -6 3 171 3 171 67 0 c37 0 84 -3 105 -6z"/>
<path d="M1094 2998 l-29 -33 35 30 c19 17 37 31 39 33 2 1 0 2 -5 2 -6 0 -23
-15 -40 -32z"/>
<path d="M1141 2973 c7 -12 15 -20 18 -17 3 2 -3 12 -13 22 -17 16 -18 16 -5
-5z"/>
<path d="M1055 2949 c-4 -6 -5 -12 -2 -15 2 -3 7 2 10 11 7 17 1 20 -8 4z"/>
<path d="M1356 2713 c7 -4 14 -19 17 -33 4 -22 5 -21 4 4 -1 17 -9 31 -17 33
-10 3 -11 2 -4 -4z"/>
<path d="M1428 2613 c12 -2 30 -2 40 0 9 3 -1 5 -23 4 -22 0 -30 -2 -17 -4z"/>
<path d="M1360 3007 l0 -156 88 -3 c48 -2 90 -2 95 0 4 2 7 68 7 146 l0 144
-57 6 c-32 4 -75 9 -95 12 l-38 6 0 -155z m124 127 l46 -7 0 -133 0 -134 -59
0 c-95 0 -91 -7 -91 146 l0 134 29 0 c15 0 49 -3 75 -6z"/>
<path d="M1413 3083 c9 -2 25 -2 35 0 9 3 1 5 -18 5 -19 0 -27 -2 -17 -5z"/>
<path d="M1487 3072 c7 -4 13 -39 16 -82 l3 -75 2 83 c2 72 0 82 -15 82 -12 0
-14 -3 -6 -8z"/>
<path d="M1480 2900 c-9 -6 -10 -10 -3 -10 6 0 15 5 18 10 8 12 4 12 -15 0z"/>
<path d="M2443 2800 c0 -41 2 -58 4 -37 2 20 2 54 0 75 -2 20 -4 3 -4 -38z"/>
<path d="M1110 2784 c37 -8 88 -9 84 -2 -3 4 -26 7 -52 7 -26 -1 -40 -3 -32
-5z"/>
<path d="M1938 2623 l3 -113 63 0 c35 0 97 -3 139 -6 l77 -7 0 117 c0 103 -2
116 -17 118 -10 1 -74 2 -143 2 l-125 1 3 -112z"/>
<path d="M1098 2683 c12 -2 32 -2 45 0 12 2 2 4 -23 4 -25 0 -35 -2 -22 -4z"/>
<path d="M1024 2585 c0 -55 1 -76 3 -47 2 29 2 74 0 100 -2 26 -3 2 -3 -53z"/>
<path d="M1183 2600 c0 -47 2 -66 4 -42 2 23 2 61 0 85 -2 23 -4 4 -4 -43z"/>
<path d="M2763 2663 c9 -2 25 -2 35 0 9 3 1 5 -18 5 -19 0 -27 -2 -17 -5z"/>
<path d="M3043 2663 c15 -2 37 -2 50 0 12 2 0 4 -28 4 -27 0 -38 -2 -22 -4z"/>
<path d="M1212 2620 c0 -14 2 -19 5 -12 2 6 2 18 0 25 -3 6 -5 1 -5 -13z"/>
<path d="M3023 2383 c15 -2 39 -2 55 0 15 2 2 4 -28 4 -30 0 -43 -2 -27 -4z"/>
<path d="M5000 2322 c0 -65 10 -65 12 -1 l0 44 57 -2 c68 -3 57 4 -16 10 l-53
4 0 -55z"/>
<path d="M2028 2363 c7 -3 16 -2 19 1 4 3 -2 6 -13 5 -11 0 -14 -3 -6 -6z"/>
<path d="M2875 2340 c-3 -5 -1 -10 4 -10 6 0 11 5 11 10 0 6 -2 10 -4 10 -3 0
-8 -4 -11 -10z"/>
<path d="M5053 2323 c15 -2 37 -2 50 0 12 2 0 4 -28 4 -27 0 -38 -2 -22 -4z"/>
<path d="M2043 2313 c20 -2 54 -2 75 0 20 2 3 4 -38 4 -41 0 -58 -2 -37 -4z"/>
<path d="M3123 2283 c9 -2 23 -2 30 0 6 3 -1 5 -18 5 -16 0 -22 -2 -12 -5z"/>
<path d="M1348 2243 c19 -3 32 -10 32 -19 0 -10 -15 -14 -57 -16 -40 -1 -47
-2 -23 -5 19 -3 39 -9 45 -14 5 -5 45 -9 90 -9 55 0 75 3 65 10 -8 5 -27 10
-42 10 -40 0 -58 10 -58 31 0 16 -7 19 -42 17 -37 -1 -39 -2 -10 -5z"/>
<path d="M2564 2218 c-9 -18 -36 -63 -60 -100 l-44 -68 34 0 c62 0 76 -14 21
-21 -43 -6 -41 -6 15 -4 36 2 82 7 102 10 l37 7 -18 37 c-10 20 -28 66 -40
104 -13 37 -24 67 -27 67 -2 0 -11 -15 -20 -32z"/>
<path d="M2883 2243 c15 -2 39 -2 55 0 15 2 2 4 -28 4 -30 0 -43 -2 -27 -4z"/>
<path d="M1448 2233 c7 -3 16 -2 19 1 4 3 -2 6 -13 5 -11 0 -14 -3 -6 -6z"/>
<path d="M2998 2233 c12 -2 32 -2 45 0 12 2 2 4 -23 4 -25 0 -35 -2 -22 -4z"/>
<path d="M1868 2193 c12 -2 30 -2 40 0 9 3 -1 5 -23 4 -22 0 -30 -2 -17 -4z"/>
<path d="M4994 2192 c3 -5 0 -13 -6 -15 -7 -3 14 -6 47 -6 33 0 67 4 75 9 11
7 6 10 -21 10 -20 0 -51 3 -69 7 -22 4 -31 3 -26 -5z"/>
<path d="M1033 2183 c9 -2 25 -2 35 0 9 3 1 5 -18 5 -19 0 -27 -2 -17 -5z"/>
<path d="M1288 2163 c6 -2 18 -2 25 0 6 3 1 5 -13 5 -14 0 -19 -2 -12 -5z"/>
<path d="M1988 2163 c7 -3 16 -2 19 1 4 3 -2 6 -13 5 -11 0 -14 -3 -6 -6z"/>
<path d="M1358 2153 c7 -3 16 -2 19 1 4 3 -2 6 -13 5 -11 0 -14 -3 -6 -6z"/>
<path d="M18 2133 c7 -3 16 -2 19 1 4 3 -2 6 -13 5 -11 0 -14 -3 -6 -6z"/>
<path d="M4293 2103 c15 -2 39 -2 55 0 15 2 2 4 -28 4 -30 0 -43 -2 -27 -4z"/>
<path d="M4448 2093 c12 -2 32 -2 45 0 12 2 2 4 -23 4 -25 0 -35 -2 -22 -4z"/>
<path d="M0 2045 c0 -11 12 -15 45 -15 33 0 45 4 45 15 0 11 -12 15 -45 15
-33 0 -45 -4 -45 -15z"/>
<path d="M2780 2020 c-9 -6 -49 -7 -95 -3 -44 3 -78 3 -75 1 19 -19 236 -16
224 3 -7 12 -35 11 -54 -1z"/>
<path d="M2065 2013 c-111 -7 -76 -19 42 -15 154 6 236 20 108 19 -49 0 -117
-2 -150 -4z"/>
<path d="M4728 2013 c6 -2 18 -2 25 0 6 3 1 5 -13 5 -14 0 -19 -2 -12 -5z"/>
<path d="M4963 2013 c15 -2 37 -2 50 0 12 2 0 4 -28 4 -27 0 -38 -2 -22 -4z"/>
<path d="M4848 2003 c12 -2 30 -2 40 0 9 3 -1 5 -23 4 -22 0 -30 -2 -17 -4z"/>
<path d="M3581 1958 c-1 -35 -3 -37 -38 -41 l-38 -4 38 -1 c42 -2 51 9 44 55
-3 24 -4 23 -6 -9z"/>
<path d="M3158 1973 c6 -2 18 -2 25 0 6 3 1 5 -13 5 -14 0 -19 -2 -12 -5z"/>
<path d="M3213 1963 c9 -2 23 -2 30 0 6 3 -1 5 -18 5 -16 0 -22 -2 -12 -5z"/>
<path d="M3290 1960 c-22 -7 -21 -8 13 -9 20 -1 37 4 37 9 0 11 -14 11 -50 0z"/>
<path d="M3394 1924 c33 -32 20 -44 -51 -45 l-68 -2 68 -8 c38 -4 87 -10 110
-13 23 -3 36 -3 30 0 -7 3 -14 18 -14 32 -2 24 -2 24 -6 5 -2 -13 -11 -23 -20
-23 -13 0 -13 3 -3 15 11 13 10 14 -2 10 -11 -4 -18 2 -22 19 -3 14 -13 26
-22 26 -14 0 -14 -2 0 -16z"/>
<path d="M3448 1923 c12 -2 30 -2 40 0 9 3 -1 5 -23 4 -22 0 -30 -2 -17 -4z"/>
<path d="M2208 1903 c7 -3 16 -2 19 1 4 3 -2 6 -13 5 -11 0 -14 -3 -6 -6z"/>
<path d="M3768 1903 c7 -3 16 -2 19 1 4 3 -2 6 -13 5 -11 0 -14 -3 -6 -6z"/>
<path d="M3023 1887 c-4 -6 0 -8 10 -4 9 3 18 3 21 -1 2 -4 -7 -9 -22 -10 -26
-2 -50 -17 -41 -26 8 -9 190 -37 199 -31 6 3 10 1 10 -4 0 -14 -9 -14 -110 4
-47 8 -89 15 -95 14 -24 -1 45 -21 124 -35 84 -14 87 -14 133 7 26 12 45 26
42 30 -2 4 -38 13 -79 20 -40 7 -71 17 -68 22 3 5 18 7 34 5 17 -3 26 -1 22 2
-14 13 -172 19 -180 7z m94 -23 c-3 -3 -12 -4 -19 -1 -8 3 -5 6 6 6 11 1 17
-2 13 -5z"/>
<path d="M2298 1883 c7 -3 16 -2 19 1 4 3 -2 6 -13 5 -11 0 -14 -3 -6 -6z"/>
<path d="M2478 1843 c7 -3 16 -2 19 1 4 3 -2 6 -13 5 -11 0 -14 -3 -6 -6z"/>
<path d="M3510 1843 c9 -4 -3 -13 -35 -24 l-50 -17 50 -1 c28 0 57 4 65 9 13
9 12 12 -4 25 -11 8 -25 15 -30 14 -6 0 -4 -3 4 -6z"/>
<path d="M3340 1822 c0 -5 -18 -14 -41 -21 -55 -17 -46 -22 24 -12 61 8 73 14
62 30 -7 13 -45 15 -45 3z"/>
<path d="M1388 1803 c7 -3 16 -2 19 1 4 3 -2 6 -13 5 -11 0 -14 -3 -6 -6z"/>
<path d="M1428 1793 c6 -2 18 -2 25 0 6 3 1 5 -13 5 -14 0 -19 -2 -12 -5z"/>
<path d="M1478 1783 c7 -3 16 -2 19 1 4 3 -2 6 -13 5 -11 0 -14 -3 -6 -6z"/>
<path d="M1228 1773 c7 -3 16 -2 19 1 4 3 -2 6 -13 5 -11 0 -14 -3 -6 -6z"/>
<path d="M1153 1763 c9 -2 23 -2 30 0 6 3 -1 5 -18 5 -16 0 -22 -2 -12 -5z"/>
<path d="M1073 1753 c9 -2 23 -2 30 0 6 3 -1 5 -18 5 -16 0 -22 -2 -12 -5z"/>
<path d="M993 1743 c9 -2 25 -2 35 0 9 3 1 5 -18 5 -19 0 -27 -2 -17 -5z"/>
<path d="M50 1735 c0 -2 27 -18 60 -35 33 -17 60 -28 60 -25 0 2 -27 18 -60
35 -33 17 -60 28 -60 25z"/>
<path d="M908 1733 c12 -2 30 -2 40 0 9 3 -1 5 -23 4 -22 0 -30 -2 -17 -4z"/>
<path d="M3038 1733 c7 -3 16 -2 19 1 4 3 -2 6 -13 5 -11 0 -14 -3 -6 -6z"/>
<path d="M833 1723 c9 -2 25 -2 35 0 9 3 1 5 -18 5 -19 0 -27 -2 -17 -5z"/>
<path d="M3098 1723 c7 -3 16 -2 19 1 4 3 -2 6 -13 5 -11 0 -14 -3 -6 -6z"/>
<path d="M763 1713 c9 -2 25 -2 35 0 9 3 1 5 -18 5 -19 0 -27 -2 -17 -5z"/>
<path d="M3153 1713 c9 -2 23 -2 30 0 6 3 -1 5 -18 5 -16 0 -22 -2 -12 -5z"/>
<path d="M688 1703 c12 -2 30 -2 40 0 9 3 -1 5 -23 4 -22 0 -30 -2 -17 -4z"/>
<path d="M3243 1703 c9 -2 25 -2 35 0 9 3 1 5 -18 5 -19 0 -27 -2 -17 -5z"/>
<path d="M628 1693 c7 -3 16 -2 19 1 4 3 -2 6 -13 5 -11 0 -14 -3 -6 -6z"/>
<path d="M3353 1693 c9 -2 23 -2 30 0 6 3 -1 5 -18 5 -16 0 -22 -2 -12 -5z"/>
<path d="M543 1683 c9 -2 25 -2 35 0 9 3 1 5 -18 5 -19 0 -27 -2 -17 -5z"/>
<path d="M3428 1683 c7 -3 16 -2 19 1 4 3 -2 6 -13 5 -11 0 -14 -3 -6 -6z"/>
<path d="M3588 1683 c7 -3 16 -2 19 1 4 3 -2 6 -13 5 -11 0 -14 -3 -6 -6z"/>
<path d="M458 1673 c12 -2 30 -2 40 0 9 3 -1 5 -23 4 -22 0 -30 -2 -17 -4z"/>
<path d="M373 1663 c9 -2 25 -2 35 0 9 3 1 5 -18 5 -19 0 -27 -2 -17 -5z"/>
<path d="M176 1649 c3 -5 24 -9 46 -9 51 0 47 5 -10 13 -24 3 -40 1 -36 -4z"/>
<path d="M293 1653 c9 -2 25 -2 35 0 9 3 1 5 -18 5 -19 0 -27 -2 -17 -5z"/>
<path d="M1438 1653 c7 -3 16 -2 19 1 4 3 -2 6 -13 5 -11 0 -14 -3 -6 -6z"/>
<path d="M1478 1643 c7 -3 16 -2 19 1 4 3 -2 6 -13 5 -11 0 -14 -3 -6 -6z"/>
<path d="M1248 1633 c7 -3 16 -2 19 1 4 3 -2 6 -13 5 -11 0 -14 -3 -6 -6z"/>
<path d="M1618 1623 c7 -3 16 -2 19 1 4 3 -2 6 -13 5 -11 0 -14 -3 -6 -6z"/>
<path d="M1340 1606 c20 -8 51 -16 70 -19 19 -4 8 2 -25 13 -67 22 -100 26
-45 6z"/>
<path d="M4290 1610 c-20 -6 -21 -8 -5 -8 11 0 31 4 45 8 20 6 21 8 5 8 -11 0
-31 -4 -45 -8z"/>
<path d="M4238 1593 c7 -3 16 -2 19 1 4 3 -2 6 -13 5 -11 0 -14 -3 -6 -6z"/>
<path d="M4198 1583 c7 -3 16 -2 19 1 4 3 -2 6 -13 5 -11 0 -14 -3 -6 -6z"/>
<path d="M1520 1554 c41 -13 80 -23 85 -23 6 1 -24 12 -65 25 -41 13 -79 23
-85 23 -5 -1 24 -12 65 -25z"/>
<path d="M4208 1533 c6 -2 18 -2 25 0 6 3 1 5 -13 5 -14 0 -19 -2 -12 -5z"/>
<path d="M1650 1516 c20 -8 51 -16 70 -19 19 -4 8 2 -25 13 -67 22 -100 26
-45 6z"/>
<path d="M1778 1483 c7 -3 16 -2 19 1 4 3 -2 6 -13 5 -11 0 -14 -3 -6 -6z"/>
<path d="M5013 1483 c-45 -3 -53 -7 -53 -24 0 -20 15 -26 25 -9 3 6 17 10 31
10 17 0 24 -5 24 -20 0 -11 4 -20 10 -20 5 0 15 9 22 20 7 11 21 20 30 20 10
0 18 7 18 15 0 10 -9 14 -27 13 -16 -1 -52 -3 -80 -5z"/>
<path d="M4448 1473 c7 -3 16 -2 19 1 4 3 -2 6 -13 5 -11 0 -14 -3 -6 -6z"/>
<path d="M4385 1460 c-13 -5 -14 -9 -5 -9 8 0 24 4 35 9 13 5 14 9 5 9 -8 0
-24 -4 -35 -9z"/>
<path d="M4270 1425 c-19 -7 -28 -13 -20 -13 8 0 31 6 50 13 19 7 28 13 20 13
-8 0 -31 -6 -50 -13z"/>
<path d="M5100 1415 c0 -8 5 -15 10 -15 6 0 10 7 10 15 0 8 -4 15 -10 15 -5 0
-10 -7 -10 -15z"/>
<path d="M4185 1400 c-13 -5 -14 -9 -5 -9 8 0 24 4 35 9 13 5 14 9 5 9 -8 0
-24 -4 -35 -9z"/>
<path d="M1604 1356 c-10 -26 4 -48 28 -44 17 2 23 10 23 28 0 18 -6 26 -23
28 -13 2 -25 -3 -28 -12z"/>
<path d="M3958 1273 c7 -3 16 -2 19 1 4 3 -2 6 -13 5 -11 0 -14 -3 -6 -6z"/>
<path d="M4035 1254 c28 -7 57 -13 65 -13 8 0 -7 7 -35 15 -27 7 -57 13 -65
13 -8 0 8 -7 35 -15z"/>
<path d="M4120 1237 c0 -7 310 -81 315 -75 3 2 -57 19 -133 36 -75 18 -147 35
-159 38 -13 4 -23 4 -23 1z"/>
<path d="M1853 1223 c15 -2 37 -2 50 0 12 2 0 4 -28 4 -27 0 -38 -2 -22 -4z"/>
<path d="M3924 1166 c-6 -27 2 -61 22 -91 12 -17 14 -17 14 -2 0 21 12 21 119
2 116 -20 125 -23 110 -41 -6 -8 -8 -25 -5 -39 6 -22 11 -26 39 -23 26 2 33 8
35 30 2 19 -2 28 -17 33 -14 4 -21 15 -21 30 0 21 -9 27 -82 49 -46 13 -102
29 -125 36 -23 6 -49 17 -57 25 -20 20 -25 19 -32 -9z"/>
<path d="M3980 1180 c-18 -12 -2 -12 25 0 13 6 15 9 5 9 -8 0 -22 -4 -30 -9z"/>
<path d="M3675 1170 c-18 -8 -18 -9 5 -9 14 0 45 4 70 8 l45 8 -50 1 c-27 0
-59 -3 -70 -8z"/>
<path d="M2268 1153 c7 -3 16 -2 19 1 4 3 -2 6 -13 5 -11 0 -14 -3 -6 -6z"/>
<path d="M4575 1124 c72 -18 134 -32 140 -30 11 3 -238 66 -257 65 -7 0 46
-16 117 -35z"/>
<path d="M2301 1147 c7 -9 200 -59 205 -54 3 2 -33 14 -78 26 -46 11 -94 24
-108 27 -14 4 -23 4 -19 1z"/>
<path d="M2528 1083 c7 -3 16 -2 19 1 4 3 -2 6 -13 5 -11 0 -14 -3 -6 -6z"/>
<path d="M2561 1076 c2 -2 18 -6 34 -10 22 -5 26 -4 15 4 -14 9 -59 15 -49 6z"/>
<path d="M4525 909 c-148 -71 -274 -135 -280 -140 -5 -6 71 28 170 76 276 131
401 193 390 194 -5 1 -131 -58 -280 -130z"/>
<path d="M4056 1001 c-4 -5 3 -7 14 -4 23 6 26 13 6 13 -8 0 -17 -4 -20 -9z"/>
<path d="M2455 980 c-13 -5 -14 -9 -5 -9 8 0 24 4 35 9 13 5 14 9 5 9 -8 0
-24 -4 -35 -9z"/>
<path d="M2370 955 c-19 -7 -28 -13 -20 -13 8 0 31 6 50 13 19 7 28 13 20 13
-8 0 -31 -6 -50 -13z"/>
<path d="M4088 943 c6 -2 18 -2 25 0 6 3 1 5 -13 5 -14 0 -19 -2 -12 -5z"/>
<path d="M2255 920 c-27 -10 -43 -18 -35 -18 8 0 38 8 65 18 28 10 43 18 35
18 -8 0 -37 -8 -65 -18z"/>
<path d="M3003 933 c-7 -2 -13 -17 -13 -33 0 -22 12 -39 58 -76 31 -26 77 -66
102 -88 43 -39 43 -39 12 -5 -29 32 -31 37 -16 43 9 4 50 4 89 0 71 -6 72 -7
54 -25 -25 -25 -24 -35 6 -64 21 -22 27 -23 49 -13 14 6 28 19 31 29 7 20 -10
59 -25 59 -6 0 -10 11 -10 24 0 27 -11 31 -104 42 -36 4 -53 10 -44 15 7 5 -2
6 -22 3 -19 -3 -62 -1 -95 4 l-60 10 45 2 45 3 -45 6 c-43 6 -45 8 -45 39 0
17 0 32 0 31 0 0 -6 -3 -12 -6z"/>
<path d="M2880 902 l0 -28 -137 -11 c-158 -13 -173 -17 -173 -48 0 -12 -7 -28
-16 -35 -25 -22 -14 -73 18 -84 58 -20 94 59 41 88 -26 14 -23 15 70 16 91 0
125 -11 75 -24 -25 -6 -92 -65 -84 -73 2 -3 33 17 68 45 34 27 84 63 111 81
41 28 47 36 47 66 0 19 -4 35 -10 35 -5 0 -10 -13 -10 -28z"/>
<path d="M2110 875 c-36 -13 -60 -24 -54 -24 5 -1 41 10 80 23 38 14 62 24 54
24 -8 0 -44 -10 -80 -23z"/>
<path d="M3118 853 c6 -2 18 -2 25 0 6 3 1 5 -13 5 -14 0 -19 -2 -12 -5z"/>
<path d="M1940 824 c-115 -38 -774 -224 -1070 -303 -431 -115 -842 -229 -848
-235 -2 -3 0 -11 5 -18 98 -125 216 -268 220 -264 2 2 -44 63 -103 136 -58 72
-103 135 -98 140 8 7 140 44 814 227 546 147 1166 326 1179 339 10 9 -28 1
-99 -22z"/>
<path d="M1 833 c4 -13 171 -153 324 -274 55 -43 116 -91 135 -106 18 -15 31
-22 26 -15 -4 7 -87 76 -184 154 -97 78 -206 166 -241 197 -35 30 -62 50 -60
44z"/>
<path d="M4514 200 c313 -105 571 -189 573 -186 5 5 -1109 376 -1128 376 -8 0
242 -86 555 -190z"/>
</g>
</svg>