<?xml version="1.0" standalone="no"?>
<!DOCTYPE svg PUBLIC "-//W3C//DTD SVG 20010904//EN"
 "http://www.w3.org/TR/2001/REC-SVG-20010904/DTD/svg10.dtd">
<svg version="1.0" xmlns="http://www.w3.org/2000/svg"
 width="512.000000pt" height="512.000000pt" viewBox="0 0 512.000000 512.000000"
 preserveAspectRatio="xMidYMid meet">
<metadata>
Created by potrace 1.16, written by Peter Selinger 2001-2019
</metadata>
<g transform="translate(0.000000,512.000000) scale(0.100000,-0.100000)"
fill="#000000" stroke="none">
<path d="M153 4800 l152 -150 -34 -30 c-34 -29 -34 -30 -16 -50 10 -11 38 -31
62 -45 52 -31 80 -83 54 -102 -13 -9 -14 -14 -3 -24 9 -10 12 -65 12 -206 0
-106 -3 -193 -6 -193 -3 0 -15 5 -27 11 -21 10 -21 10 -3 -5 11 -9 23 -16 28
-16 15 0 9 -70 -7 -76 -12 -5 -13 -9 -4 -20 8 -10 13 -97 17 -265 l5 -251
-161 81 c-89 45 -165 81 -169 80 -5 0 67 -38 160 -85 l167 -84 0 -73 c0 -40
-5 -78 -10 -83 -11 -11 -13 -824 -4 -1420 5 -312 4 -321 -16 -346 -16 -21 -19
-35 -14 -66 5 -34 2 -43 -26 -76 -30 -34 -31 -38 -16 -55 13 -15 16 -45 16
-188 l0 -170 -47 -7 c-27 -3 -92 -9 -145 -12 -91 -6 -130 -16 -117 -29 4 -3
68 1 144 10 75 8 141 15 146 15 15 0 10 -27 -7 -41 -11 -9 -14 -23 -10 -49 7
-50 -17 -64 -153 -84 -63 -9 -117 -18 -119 -21 -16 -16 19 -16 107 -2 136 23
131 24 131 -22 0 -45 6 -42 -125 -66 -103 -19 -120 -24 -113 -30 2 -3 51 4
109 15 57 11 110 20 116 20 9 0 13 -15 13 -43 l0 -44 -120 -27 -120 -28 0 -54
c0 -30 3 -54 6 -54 9 0 425 99 494 118 l65 17 3 106 3 106 192 22 c106 13 217
26 247 30 103 15 362 65 352 69 -6 2 -61 -6 -123 -17 -145 -27 -151 -27 -147
2 2 14 -4 26 -16 32 -15 7 -21 23 -23 61 l-4 51 148 13 c81 7 142 15 135 17
-7 3 -66 0 -131 -6 -160 -15 -161 -15 -161 9 0 16 8 20 58 23 l57 3 -57 2 -57
2 3 94 c2 52 7 100 11 107 26 41 -3 109 -46 109 -10 0 -21 5 -25 12 -5 8 3 9
31 5 l37 -6 -5 36 c-4 20 -13 40 -20 44 -11 6 -14 50 -15 201 -1 106 -4 423
-8 703 -4 378 -3 518 6 540 9 24 9 31 -4 41 -11 7 -16 27 -16 58 0 25 2 46 5
46 3 0 28 -12 56 -26 28 -14 49 -21 46 -17 -3 5 -28 20 -56 32 l-50 24 -1 245
c0 233 1 244 17 231 17 -13 17 -13 1 7 -21 25 -26 110 -5 98 10 -6 10 -4 0 7
-9 9 -13 55 -13 153 l0 141 87 -85 88 -85 -88 91 c-48 49 -85 93 -81 97 4 4
14 1 23 -5 12 -10 12 -8 -1 8 -13 15 -18 38 -18 82 0 63 7 74 31 46 21 -25 66
-44 106 -44 44 0 123 42 167 88 l29 31 -33 20 c-27 16 -33 26 -36 63 -7 74
-81 119 -132 80 -22 -16 -26 -27 -24 -56 2 -29 -1 -36 -16 -36 -10 0 -33 -11
-52 -25 -20 -15 -41 -23 -52 -19 -11 3 -18 0 -18 -8 0 -7 -9 -19 -20 -26 -15
-9 -20 -21 -17 -46 l4 -33 -66 -12 c-53 -10 -189 -45 -302 -78 -11 -3 -18 3
-22 17 -7 26 -34 22 -29 -4 2 -13 -3 -17 -20 -14 l-23 3 -3 200 c-2 131 1 214
9 240 8 28 8 40 0 43 -19 6 -12 37 18 72 l30 35 16 -22 c32 -45 344 -414 378
-448 31 -31 -15 29 -69 90 -96 108 -295 348 -301 363 -3 7 4 23 16 36 l21 23
-56 51 c-31 29 -60 52 -65 52 -14 0 -21 40 -10 54 6 8 9 21 5 30 -3 9 -1 16 5
16 18 0 13 27 -16 78 l-27 48 -24 -48 c-19 -38 -22 -51 -12 -63 6 -8 9 -19 5
-25 -4 -6 1 -22 9 -35 15 -22 15 -25 1 -25 -8 0 -15 -6 -15 -13 0 -7 -14 -18
-31 -24 -29 -11 -35 -10 -68 17 -20 16 -90 83 -156 149 -66 67 -123 121 -127
121 -4 0 61 -68 145 -150z m221 -232 c3 -13 6 -36 6 -51 l0 -28 -40 32 c-41
33 -42 45 -6 59 31 13 33 12 40 -12z m132 -41 l-21 -22 -3 23 c-2 13 -1 31 2
39 6 14 9 14 25 -1 19 -17 18 -18 -3 -39z m673 -407 c-37 -5 -81 -16 -99 -25
-18 -9 -29 -11 -25 -5 14 23 70 39 130 38 l60 -1 -66 -7z m101 -20 c35 -22
-84 -100 -153 -100 -24 0 -45 8 -64 24 -28 24 -28 25 -8 40 47 37 188 59 225
36z m-362 -365 c2 -110 0 -291 -3 -402 l-7 -202 -69 35 c-38 19 -69 32 -69 29
0 -2 31 -20 69 -40 l70 -35 0 -102 c0 -79 -3 -106 -15 -119 -14 -16 -16 -84
-15 -623 l2 -606 -31 0 -30 0 2 -177 2 -178 3 173 3 172 25 0 25 0 0 -134 c0
-80 -4 -137 -10 -141 -6 -3 -7 -17 -4 -30 3 -14 -1 -34 -13 -51 -16 -25 -17
-47 -14 -195 l3 -167 -29 -5 c-15 -3 -73 -9 -128 -12 -55 -3 -115 -9 -132 -12
l-33 -5 0 150 c0 136 2 154 21 187 l22 36 -24 25 c-19 20 -24 37 -25 77 0 29
-6 65 -12 80 -9 21 -12 262 -12 903 l0 874 133 -66 c72 -36 128 -62 124 -58
-5 5 -66 38 -135 74 l-127 65 -3 43 -3 43 101 -51 c56 -28 100 -47 97 -43 -3
4 -51 30 -106 58 l-101 49 0 193 c0 117 4 194 10 198 6 3 10 17 10 30 0 28 51
85 77 85 11 0 38 -14 61 -31 23 -17 42 -28 42 -26 0 3 -18 19 -40 35 l-40 29
132 35 c73 20 147 35 163 34 l30 -1 3 -200z m-458 -1403 c0 -681 3 -871 13
-881 10 -10 8 -12 -8 -9 -20 3 -20 12 -23 881 -1 583 1 877 8 877 7 0 10 -293
10 -868z m497 -564 c-1 -183 -2 -36 -2 327 0 363 1 513 2 333 2 -179 2 -476 0
-660z m-452 -458 c4 -6 -16 -10 -52 -10 -41 0 -54 3 -43 10 20 13 87 13 95 0z
m518 -27 c-7 -2 -19 -2 -25 0 -7 3 -2 5 12 5 14 0 19 -2 13 -5z m-485 -15 c-5
-15 -48 -24 -48 -10 0 14 12 22 33 22 10 0 17 -5 15 -12z m512 -15 c0 -5 -30
-7 -67 -5 -119 5 -131 9 -30 10 53 1 97 -1 97 -5z m-573 -290 c-1 -49 -3 -9
-3 87 0 96 2 136 3 88 2 -49 2 -127 0 -175z m520 0 c-1 -43 -3 -10 -3 72 0 83
2 118 3 78 2 -40 2 -107 0 -150z m30 -10 c-1 -43 -3 -8 -3 77 0 85 2 120 3 78
2 -43 2 -113 0 -155z m-187 -38 c0 -3 -8 -18 -17 -32 -10 -15 -19 -49 -20 -76
-1 -27 -5 -53 -10 -57 -9 -9 -213 -44 -219 -38 -11 12 11 48 30 49 16 0 18 2
5 7 -28 12 -79 79 -79 105 0 24 2 25 108 34 131 12 202 15 202 8z m200 -75 c0
-6 -42 -10 -105 -10 -63 0 -105 4 -105 10 0 6 42 10 105 10 63 0 105 -4 105
-10z m-495 -30 c7 -11 -40 -12 -130 0 -59 7 -58 7 32 9 52 0 94 -3 98 -9z
m525 -25 c0 -10 -11 -15 -35 -15 -54 0 -43 27 13 29 13 1 22 -5 22 -14z m-496
-14 c6 -10 -65 -21 -132 -21 -62 0 -48 9 29 19 90 12 97 12 103 2z"/>
<path d="M535 3785 c11 -9 29 -21 40 -26 l20 -10 -20 16 c-11 9 -29 21 -40 26
l-20 10 20 -16z"/>
<path d="M680 3796 c0 -3 20 -19 45 -36 25 -17 45 -29 45 -26 0 3 -20 19 -45
36 -25 17 -45 29 -45 26z"/>
<path d="M600 3746 c0 -3 9 -10 20 -16 11 -6 20 -8 20 -6 0 3 -9 10 -20 16
-11 6 -20 8 -20 6z"/>
<path d="M650 3716 c0 -3 9 -10 20 -16 11 -6 20 -8 20 -6 0 3 -9 10 -20 16
-11 6 -20 8 -20 6z"/>
<path d="M715 3675 c11 -9 29 -21 40 -26 l20 -10 -20 16 c-11 9 -29 21 -40 26
l-20 10 20 -16z"/>
<path d="M870 3666 c0 -3 9 -10 20 -16 11 -6 20 -8 20 -6 0 3 -9 10 -20 16
-11 6 -20 8 -20 6z"/>
<path d="M840 3596 c0 -3 9 -10 20 -16 11 -6 20 -8 20 -6 0 3 -9 10 -20 16
-11 6 -20 8 -20 6z"/>
<path d="M700 2250 c-16 -5 -19 -8 -8 -9 16 -1 18 -26 21 -333 l2 -333 3 338
2 338 23 -3 22 -3 5 -410 5 -410 3 406 c1 304 -1 408 -10 417 -13 13 -31 14
-68 2z"/>
<path d="M648 2233 c7 -3 16 -2 19 1 4 3 -2 6 -13 5 -11 0 -14 -3 -6 -6z"/>
<path d="M610 2111 l0 -119 -30 11 c-25 10 -32 9 -45 -6 -8 -9 -10 -12 -3 -7
18 15 37 12 69 -11 l29 -20 2 -187 3 -187 3 180 c2 117 -1 187 -8 200 -7 13
-10 68 -8 143 2 67 0 122 -4 122 -5 0 -8 -54 -8 -119z"/>
<path d="M593 993 c37 -2 96 -2 130 0 34 2 4 3 -68 3 -71 0 -99 -1 -62 -3z"/>
<path d="M738 783 c6 -2 18 -2 25 0 6 3 1 5 -13 5 -14 0 -19 -2 -12 -5z"/>
<path d="M668 773 c6 -2 18 -2 25 0 6 3 1 5 -13 5 -14 0 -19 -2 -12 -5z"/>
<path d="M1676 4722 c-4 -16 -16 -38 -26 -47 -10 -9 -16 -23 -13 -31 3 -8 -5
-17 -21 -23 -14 -6 -32 -24 -41 -41 -11 -20 -32 -38 -61 -51 -51 -21 -52 -34
-7 -64 28 -19 30 -25 42 -125 7 -58 17 -123 22 -144 9 -33 8 -41 -5 -48 -25
-14 -19 -56 10 -83 15 -14 31 -25 35 -25 15 0 10 -77 -6 -90 -20 -16 -19 -40
1 -40 15 0 16 -27 10 -302 -3 -167 -6 -309 -8 -315 -1 -14 -13 -7 -13 8 0 5
-3 8 -7 7 -4 -2 -24 13 -45 32 -21 19 -12 8 19 -25 l57 -60 -6 -67 c-4 -46 -9
-65 -17 -61 -6 4 -5 0 2 -9 10 -12 11 -191 6 -884 -4 -503 -11 -872 -16 -875
-5 -3 -11 -26 -13 -50 -5 -67 -17 -129 -25 -129 -4 0 -5 -36 -2 -80 l5 -80
-39 -2 c-36 -1 -37 -1 -7 -5 25 -3 33 -10 37 -31 9 -44 4 -124 -10 -166 -8
-21 -14 -49 -14 -62 0 -18 -7 -25 -27 -30 -83 -19 -1071 -313 -1365 -405 -103
-32 -128 -43 -128 -58 0 -17 11 -15 123 21 153 49 769 241 1025 319 288 87
374 110 369 96 -4 -13 -34 -23 -167 -58 -46 -12 -80 -24 -75 -26 6 -2 50 8
100 22 85 23 125 26 74 6 -17 -7 -19 -10 -6 -10 36 -2 14 -18 -65 -48 -258
-99 -299 -115 -295 -119 2 -2 55 15 118 39 248 96 356 128 477 142 64 8 117
15 118 15 0 0 0 9 0 21 -1 19 22 29 182 87 100 35 181 66 179 68 -2 2 -73 -20
-158 -50 -205 -71 -204 -71 -217 -43 -6 12 -11 16 -11 9 -1 -18 -21 -4 -21 14
0 9 5 12 12 8 8 -5 9 -2 5 9 -4 10 -9 23 -12 30 -8 18 168 56 322 69 70 6 130
14 133 18 3 4 12 10 20 13 12 4 11 6 -2 6 -10 1 -18 7 -18 15 0 9 25 19 73 30
39 9 90 20 112 26 33 8 35 9 8 7 -21 -2 -34 2 -38 11 -9 25 -5 31 23 35 l27 4
-27 2 c-45 2 -36 31 10 33 36 1 36 1 5 5 -25 3 -34 10 -39 30 -4 16 -2 28 7
34 10 6 11 9 2 9 -10 0 -13 107 -13 501 l0 501 25 -4 c13 -3 26 -2 27 3 2 4
25 5 52 2 l48 -6 -5 -521 c-3 -287 -9 -533 -12 -548 -4 -15 -15 -29 -24 -31
-14 -4 -14 -5 2 -6 9 0 17 -8 17 -16 0 -7 -8 -19 -17 -25 -14 -8 -9 -9 22 -4
22 4 47 10 56 15 10 5 21 3 29 -4 9 -8 14 -9 17 -1 2 6 16 9 31 7 16 -3 22 -1
15 4 -11 8 -16 27 -14 50 0 6 13 14 29 16 l27 4 -27 2 c-25 1 -26 4 -31 64 -3
34 -10 304 -16 601 -9 404 -9 542 0 552 9 11 9 14 0 14 -6 0 -17 11 -23 25
-14 30 -28 32 -35 5 -3 -11 -9 -20 -14 -20 -20 0 -7 -37 16 -50 l25 -13 -1
-506 c-1 -454 -11 -805 -18 -626 -1 33 -5 69 -7 80 -6 27 -23 602 -24 797 0
146 1 157 18 151 13 -5 11 0 -7 20 -14 15 -27 27 -30 27 -3 0 0 -5 7 -12 23
-23 11 -29 -55 -27 -38 0 -76 -2 -86 -6 -17 -7 -18 -1 -17 81 0 49 0 96 -1
104 -5 38 2 50 39 59 59 16 77 33 63 59 -16 29 -27 28 -70 -10 -30 -26 -37
-29 -39 -15 -5 25 -22 21 -22 -5 0 -21 0 -21 -27 3 l-28 24 28 -31 27 -30 0
-190 c0 -104 -3 -402 -7 -661 -6 -470 -6 -473 -27 -474 -18 0 -17 -2 5 -10 24
-9 27 -15 25 -52 -1 -40 -2 -41 -41 -49 -22 -4 -50 -10 -63 -13 -20 -5 -23 -3
-17 14 4 13 1 20 -11 23 -16 3 -16 4 1 18 15 12 17 12 10 1 -6 -10 -4 -12 4
-7 9 6 9 12 -2 24 -13 16 -24 84 -33 202 -2 25 -6 61 -9 80 -9 67 -12 1731 -3
1736 5 4 7 12 4 19 -3 8 2 15 11 17 9 2 17 14 19 28 11 96 24 164 33 173 19
19 13 26 -36 50 -27 12 -48 27 -48 32 -1 6 -5 21 -9 34 -8 24 -9 23 -26 -13
-9 -21 -31 -46 -49 -57 -29 -18 -31 -20 -17 -41 8 -13 20 -63 27 -113 7 -49
17 -93 23 -97 11 -8 19 -95 19 -218 1 -723 -5 -1540 -11 -1540 -5 0 -12 228
-17 508 -4 279 -9 611 -11 737 -2 127 -6 240 -9 252 -3 12 0 34 5 48 9 23 7
28 -10 32 -11 3 -18 9 -15 13 3 4 -3 14 -13 21 -15 13 -16 12 -3 -3 7 -10 10
-18 6 -18 -5 0 -18 8 -29 18 -16 13 -18 14 -8 1 13 -17 7 -49 -10 -49 -5 0
-19 5 -31 11 -19 9 -18 7 3 -10 14 -11 37 -21 52 -21 26 0 27 -2 25 -42 -1
-24 -6 -46 -12 -50 -6 -5 -5 -8 3 -8 7 0 12 -13 12 -30 0 -17 -5 -30 -12 -30
-10 0 -10 -2 0 -8 10 -7 11 -118 6 -550 l-7 -541 -26 -4 c-25 -4 -25 -4 3 -6
l29 -1 -8 -273 c-4 -149 -7 -280 -7 -290 1 -12 -7 -17 -26 -18 -25 -2 -25 -2
-4 -6 19 -4 23 -9 18 -26 -3 -12 -6 -25 -6 -29 0 -4 -15 -9 -32 -11 l-33 -4
33 -1 c35 -2 38 -8 19 -33 -11 -14 -173 -59 -213 -59 -21 0 -18 48 4 53 16 4
16 5 0 6 -16 1 -18 14 -18 117 0 63 5 124 11 135 8 16 7 25 -4 37 -12 14 -16
77 -21 332 -3 173 -10 414 -15 535 -6 121 -12 297 -15 390 -3 94 -9 267 -12
385 -7 210 -7 215 12 200 18 -14 18 -14 2 5 -22 26 -28 162 -7 157 9 -2 8 2
-4 16 -15 17 -17 49 -17 333 0 173 3 324 6 337 4 12 13 22 20 22 22 0 16 28
-7 35 -18 6 -20 12 -13 48 4 26 17 51 35 68 20 19 29 37 29 58 0 38 -17 41
-22 4 -2 -18 -10 -29 -21 -31 -17 -3 -16 2 9 43 16 28 41 102 59 177 29 116
35 131 61 147 60 37 60 46 0 80 -30 17 -60 40 -66 51 -6 12 -23 25 -37 31 -20
7 -23 12 -13 24 9 11 7 18 -9 32 -12 9 -21 24 -21 33 0 8 -4 21 -9 29 -7 10
-11 6 -15 -17z m189 -213 c15 -15 -13 -10 -45 6 -17 9 -30 17 -30 20 0 6 63
-16 75 -26z m-250 6 c-44 -8 -81 -12 -83 -10 -8 8 65 23 113 23 45 0 43 -1
-30 -13z m166 -21 l26 -13 -29 -122 c-38 -159 -52 -193 -74 -181 -10 6 -30 6
-46 2 -17 -6 -28 -5 -28 1 0 6 -8 8 -19 4 -14 -4 -20 0 -25 18 -6 27 -36 233
-36 253 0 18 35 35 100 50 58 12 89 9 131 -12z m-179 -406 c-15 -15 -32 0 -32
29 l0 27 21 -23 c15 -16 18 -26 11 -33z m550 -855 l2 -78 3 78 c3 67 6 78 21
75 34 -6 24 -179 -11 -184 -9 -1 -14 2 -11 8 4 6 -7 7 -29 3 l-35 -7 -12 74
c-6 40 -13 78 -15 85 -4 12 18 19 63 22 21 1 22 -3 24 -76z m-475 -555 c-1
-73 -3 -14 -3 132 0 146 2 205 3 133 2 -73 2 -193 0 -265z m780 -224 c-9 -9
-28 6 -21 18 4 6 10 6 17 -1 6 -6 8 -13 4 -17z m-750 -226 c-2 -24 -4 -7 -4
37 0 44 2 63 4 43 2 -21 2 -57 0 -80z m887 77 c-4 -8 -12 -15 -19 -15 -7 0
-18 7 -25 15 -11 13 -8 15 18 15 24 0 30 -4 26 -15z m-927 -663 c-1 -97 -2
-17 -2 178 0 195 1 275 2 177 2 -97 2 -257 0 -355z m53 -2 c0 -159 -3 -290 -7
-290 -5 0 -7 130 -5 290 1 159 5 290 7 290 3 0 5 -130 5 -290z m-37 -277 c-7
-2 -19 -2 -25 0 -7 3 -2 5 12 5 14 0 19 -2 13 -5z m47 -91 c0 -13 -3 -12 -19
2 -10 10 -26 14 -37 10 -15 -4 -14 -1 6 16 23 20 25 21 37 4 7 -10 13 -24 13
-32z m367 -34 c-3 -8 -6 -5 -6 6 -1 11 2 17 5 13 3 -3 4 -12 1 -19z m-364 -22
c-3 -13 0 -27 6 -30 6 -4 11 -14 11 -22 0 -14 -2 -14 -15 0 -16 15 -21 76 -6
76 4 0 6 -11 4 -24z m4 -248 c-2 -35 -3 -9 -3 57 0 66 1 94 3 63 2 -32 2 -86
0 -120z m830 90 c-3 -8 -6 -5 -6 6 -1 11 2 17 5 13 3 -3 4 -12 1 -19z m-479
-5 c-10 -2 -26 -2 -35 0 -10 3 -2 5 17 5 19 0 27 -2 18 -5z m22 -48 c0 -8 -4
-15 -8 -15 -5 0 -9 7 -9 15 0 8 4 15 9 15 4 0 8 -7 8 -15z m-10 -61 c0 -14 -4
-23 -9 -20 -5 3 -7 15 -4 26 7 28 13 25 13 -6z m-355 -94 c-3 -5 -10 -10 -16
-10 -5 0 -9 5 -9 10 0 6 7 10 16 10 8 0 12 -4 9 -10z m-8 -62 c-3 -8 -6 -5 -6
6 -1 11 2 17 5 13 3 -3 4 -12 1 -19z"/>
<path d="M1648 4193 c7 -3 16 -2 19 1 4 3 -2 6 -13 5 -11 0 -14 -3 -6 -6z"/>
<path d="M60 4187 c88 -59 127 -83 115 -70 -15 16 -163 113 -172 113 -4 0 21
-19 57 -43z"/>
<path d="M5095 4192 c-85 -113 -258 -362 -251 -362 2 0 46 60 97 133 51 72
113 158 137 190 24 32 43 60 41 62 -2 2 -13 -9 -24 -23z"/>
<path d="M209 4092 c14 -11 38 -27 55 -37 l31 -17 -24 20 c-14 11 -38 27 -55
37 l-31 17 24 -20z"/>
<path d="M4941 3795 c-95 -112 -183 -213 -196 -223 -24 -19 -91 -19 -79 0 3 5
-10 2 -30 -6 -27 -11 -57 -14 -119 -9 -55 4 -91 2 -105 -6 -22 -11 -22 -11
-22 55 0 51 4 70 17 79 15 11 13 15 -23 32 -21 11 -52 23 -69 27 -16 4 -36 12
-42 18 -15 12 -18 42 -3 33 16 -10 12 12 -5 29 -22 21 -52 29 -91 22 -40 -8
-64 -39 -64 -83 0 -18 -4 -33 -8 -33 -5 0 -18 -13 -30 -30 l-22 -30 32 -30
c78 -70 165 -76 227 -16 l36 35 -3 -262 c-3 -254 -3 -262 -25 -287 l-22 -25
23 19 22 19 0 -143 0 -143 -71 -86 c-39 -47 -56 -70 -37 -51 18 19 50 55 70
80 l38 45 0 -29 c0 -19 -10 -41 -27 -60 l-28 -31 28 24 27 25 0 -215 -1 -214
-37 -33 -37 -34 38 27 37 27 0 -334 c0 -253 -3 -337 -12 -347 -11 -11 -10 -12
2 -6 13 8 13 6 2 -7 -9 -11 -12 -45 -11 -105 1 -48 1 -110 1 -138 0 -27 -1
-128 0 -224 l0 -174 -39 6 c-21 4 -65 9 -98 11 -46 4 -39 1 35 -12 70 -13 96
-21 98 -33 3 -15 -7 -15 -100 5 -88 18 -103 24 -105 41 -11 138 -14 272 -13
607 1 322 -2 403 -13 425 -10 20 -16 89 -21 232 l-7 205 113 115 113 116 -112
-110 c-62 -60 -113 -105 -113 -99 0 5 6 16 13 23 10 11 10 13 0 7 -10 -6 -13
27 -13 148 0 132 2 156 15 156 22 0 18 17 -5 23 -25 6 -27 42 -3 56 10 5 14
13 10 17 -4 4 -18 -3 -32 -16 -29 -27 -37 -23 -42 22 -2 18 -7 36 -12 41 -11
11 -31 0 -31 -17 0 -8 -7 -19 -15 -26 -9 -7 -14 -19 -11 -27 3 -8 -2 -16 -12
-19 -9 -3 -24 -8 -32 -11 -12 -3 -9 -10 13 -29 15 -13 36 -24 45 -24 9 1 2 7
-16 15 -41 18 -33 35 16 35 34 -1 72 -18 72 -34 0 -3 -8 -6 -17 -7 -14 0 -15
-2 -3 -6 8 -3 18 -11 22 -17 4 -5 7 -82 7 -170 l1 -160 -77 -81 -78 -80 78 75
c42 41 77 68 77 61 0 -8 -8 -24 -17 -35 -17 -20 -17 -20 0 -7 16 13 17 3 17
-176 0 -104 -2 -192 -4 -194 -5 -4 -17 -721 -16 -894 1 -106 -3 -120 -35 -128
-18 -4 -18 -5 3 -6 12 0 22 -5 22 -11 0 -13 -4 -12 -72 1 -61 12 -68 21 -68
91 0 20 -4 39 -8 42 -5 3 -12 242 -15 533 l-7 527 23 25 22 26 -23 -19 -22
-19 1 66 c1 43 6 71 15 78 8 6 13 26 13 43 -1 23 -3 25 -6 9 -6 -31 -41 -31
-48 -1 -2 13 -6 39 -8 58 -2 21 -4 11 -6 -25 -1 -43 -4 -56 -11 -45 -8 13 -10
13 -10 -1 0 -9 7 -23 16 -30 15 -12 15 -70 10 -612 -3 -330 -9 -605 -14 -611
-4 -6 -9 -33 -10 -61 -2 -27 -8 -53 -15 -57 -9 -6 -9 -8 1 -8 8 0 10 -8 6 -24
-5 -21 -1 -24 33 -29 65 -11 73 -9 73 18 0 28 4 29 46 16 16 -5 41 -12 56 -15
24 -5 27 -11 30 -54 l3 -47 55 0 55 0 -3 47 -3 48 33 -7 c18 -4 62 -14 98 -22
l65 -16 3 -47 c2 -27 -1 -48 -6 -48 -5 0 -41 11 -80 25 -39 14 -77 25 -84 24
-7 0 12 -9 42 -20 118 -41 138 -50 143 -68 6 -23 133 -69 149 -53 7 7 3 14
-11 21 -12 7 -21 16 -21 20 0 5 47 -8 105 -28 77 -26 105 -40 105 -53 0 -9 -5
-18 -12 -20 -6 -2 -9 -11 -6 -20 4 -10 36 -21 94 -32 49 -10 157 -42 241 -71
84 -30 153 -50 153 -46 0 5 -77 35 -172 67 -94 32 -181 66 -192 75 -20 16 -20
18 -3 37 17 19 17 20 -3 25 -17 4 -20 13 -20 66 0 34 2 61 5 61 3 0 89 -18
191 -40 103 -22 188 -40 190 -40 2 0 4 6 4 14 0 9 -57 25 -197 52 -153 31
-199 43 -201 56 -3 13 3 15 40 7 24 -4 106 -20 183 -34 77 -15 148 -29 158
-31 10 -3 17 0 17 9 0 8 -14 17 -32 20 -267 46 -337 58 -355 62 l-23 5 0 290
0 290 39 0 c34 0 41 -4 49 -27 9 -23 11 -24 11 -7 1 30 -18 44 -61 44 l-38 0
0 210 0 210 80 0 80 0 3 -247 c2 -229 2 -224 3 57 0 168 -1 281 -3 253 l-4
-53 -79 0 c-78 0 -79 0 -82 28 -2 15 5 39 15 53 11 15 22 55 26 90 7 59 6 65
-16 82 -12 10 -23 29 -23 42 0 13 -4 27 -10 30 -5 3 -10 16 -10 28 -1 13 -7 4
-16 -23 -22 -67 -35 -89 -56 -96 -10 -3 -15 -10 -12 -16 4 -6 11 -25 15 -42 5
-24 7 -26 8 -8 1 17 7 22 26 22 24 0 25 -3 25 -55 0 -57 -5 -64 -30 -42 -8 6
-5 0 8 -14 12 -14 20 -28 17 -30 -3 -3 -5 -112 -5 -241 l-1 -236 -39 -26 c-22
-15 -40 -29 -40 -32 0 -4 10 1 23 10 62 44 57 66 57 -249 0 -265 -1 -285 -17
-285 -10 0 -58 7 -108 15 -49 8 -94 15 -98 15 -4 0 -7 83 -7 185 1 141 -2 190
-12 202 -19 23 -25 228 -7 250 11 12 11 17 2 20 -9 3 -12 105 -13 425 0 389 1
423 17 442 14 15 14 18 2 8 -15 -11 -17 6 -23 179 l-7 190 68 72 c37 40 103
115 146 167 43 52 55 68 25 35 -29 -32 -89 -100 -133 -149 -45 -49 -85 -89
-90 -88 -6 1 -11 101 -13 251 l-2 249 67 61 c68 61 82 67 142 55 31 -7 31 -7
16 -33 l-16 -26 20 23 c18 21 28 24 78 20 50 -3 58 -1 61 16 2 11 -4 26 -14
33 -17 12 -15 16 23 56 72 76 350 407 341 407 -2 0 -82 -92 -177 -205z m-655
-93 c7 -4 -32 -7 -87 -7 -54 0 -91 3 -81 7 23 9 154 9 168 0z m18 -27 c15 -6
17 -5 11 5 -5 9 -4 11 3 6 18 -11 -13 -63 -48 -81 -36 -19 -71 -19 -113 -1
-35 14 -67 41 -67 56 0 26 163 37 214 15z m193 -163 c20 -6 17 -11 -38 -60
l-59 -53 0 48 c0 27 5 54 12 61 13 13 49 14 85 4z m166 -1369 c-7 -2 -21 -2
-30 0 -10 3 -4 5 12 5 17 0 24 -2 18 -5z m77 -47 c0 -37 -21 -86 -36 -86 -10
0 -14 14 -14 55 0 52 1 55 25 55 20 0 25 -5 25 -24z m-373 -663 c-2 -21 -4 -6
-4 32 0 39 2 55 4 38 2 -18 2 -50 0 -70z m52 -119 c10 -9 -66 -3 -79 6 -10 7
-1 8 30 4 25 -4 47 -8 49 -10z m156 -400 c49 -8 91 -16 92 -18 1 -1 -2 -8 -6
-15 -7 -10 -27 -9 -111 8 -57 12 -104 21 -106 21 -2 0 -4 5 -4 10 0 14 30 13
135 -6z m-30 -44 c44 -11 88 -20 98 -20 14 0 17 -10 17 -65 0 -36 -3 -65 -7
-65 -5 0 -49 14 -100 31 -97 34 -103 40 -103 115 0 29 -4 29 95 4z"/>
<path d="M4809 3788 c-89 -129 -110 -161 -97 -148 20 20 131 180 125 180 -3 0
-16 -15 -28 -32z"/>
<path d="M1225 3680 c66 -66 122 -120 125 -120 2 0 -49 54 -115 120 -66 66
-122 120 -125 120 -2 0 49 -54 115 -120z"/>
<path d="M5034 3598 c-43 -51 -107 -127 -143 -168 -80 -92 -109 -130 -58 -76
56 60 289 336 283 336 -2 0 -40 -42 -82 -92z"/>
<path d="M1320 3545 c69 -69 127 -125 130 -125 2 0 -51 56 -120 125 -69 69
-127 125 -130 125 -2 0 51 -56 120 -125z"/>
<path d="M4679 3603 c-13 -16 -12 -17 4 -4 16 13 21 21 13 21 -2 0 -10 -8 -17
-17z"/>
<path d="M1020 3576 c0 -3 20 -19 45 -36 25 -17 45 -29 45 -26 0 3 -20 19 -45
36 -25 17 -45 29 -45 26z"/>
<path d="M10 3550 c8 -5 20 -10 25 -10 6 0 3 5 -5 10 -8 5 -19 10 -25 10 -6 0
-3 -5 5 -10z"/>
<path d="M10 3515 c0 -2 22 -16 50 -30 28 -14 50 -23 50 -20 0 2 -22 16 -50
30 -28 14 -50 23 -50 20z"/>
<path d="M1120 3506 c0 -2 14 -14 30 -26 17 -12 30 -19 30 -16 0 2 -13 14 -30
26 -16 12 -30 19 -30 16z"/>
<path d="M120 3455 c0 -2 23 -16 50 -30 28 -14 50 -23 50 -20 0 2 -22 16 -50
30 -27 14 -50 23 -50 20z"/>
<path d="M1450 3457 c0 -2 15 -16 33 -33 l32 -29 -29 33 c-28 30 -36 37 -36
29z"/>
<path d="M1060 3446 c0 -3 9 -10 20 -16 11 -6 20 -8 20 -6 0 3 -9 10 -20 16
-11 6 -20 8 -20 6z"/>
<path d="M1220 3436 c0 -2 8 -10 18 -17 15 -13 16 -12 3 4 -13 16 -21 21 -21
13z"/>
<path d="M4589 3423 c-13 -16 -12 -17 4 -4 16 13 21 21 13 21 -2 0 -10 -8 -17
-17z"/>
<path d="M1110 3416 c0 -3 9 -10 20 -16 11 -6 20 -8 20 -6 0 3 -9 10 -20 16
-11 6 -20 8 -20 6z"/>
<path d="M230 3395 c0 -2 18 -14 40 -25 22 -11 40 -18 40 -15 0 2 -18 14 -40
25 -22 11 -40 18 -40 15z"/>
<path d="M4539 3358 c-18 -24 -56 -72 -83 -108 -28 -35 -46 -61 -40 -57 14 8
167 207 160 207 -2 0 -19 -19 -37 -42z"/>
<path d="M1160 3386 c0 -3 9 -10 20 -16 11 -6 20 -8 20 -6 0 3 -9 10 -20 16
-11 6 -20 8 -20 6z"/>
<path d="M1210 3356 c0 -3 9 -10 20 -16 11 -6 20 -8 20 -6 0 3 -9 10 -20 16
-11 6 -20 8 -20 6z"/>
<path d="M1310 3296 c0 -3 9 -10 20 -16 11 -6 20 -8 20 -6 0 3 -9 10 -20 16
-11 6 -20 8 -20 6z"/>
<path d="M4734 3243 c-27 -31 -44 -54 -37 -50 14 9 97 107 90 107 -2 0 -26
-26 -53 -57z"/>
<path d="M1760 3167 c0 -2 15 -16 33 -33 l32 -29 -29 33 c-28 30 -36 37 -36
29z"/>
<path d="M1540 3156 c0 -3 9 -10 20 -16 11 -6 20 -8 20 -6 0 3 -9 10 -20 16
-11 6 -20 8 -20 6z"/>
<path d="M1785 3110 c10 -11 20 -20 23 -20 3 0 -3 9 -13 20 -10 11 -20 20 -23
20 -3 0 3 -9 13 -20z"/>
<path d="M1865 3070 c10 -11 20 -20 23 -20 3 0 -3 9 -13 20 -10 11 -20 20 -23
20 -3 0 3 -9 13 -20z"/>
<path d="M4960 2952 c-221 -193 -510 -453 -510 -458 0 -3 61 50 137 118 75 68
193 172 262 232 69 60 144 125 166 145 22 20 55 49 74 64 18 15 32 29 30 31
-2 2 -74 -57 -159 -132z"/>
<path d="M1845 3060 c10 -11 20 -20 23 -20 3 0 -3 9 -13 20 -10 11 -20 20 -23
20 -3 0 3 -9 13 -20z"/>
<path d="M4185 3050 c-9 -16 -13 -30 -11 -30 3 0 12 14 21 30 9 17 13 30 11
30 -3 0 -12 -13 -21 -30z"/>
<path d="M4274 3058 l-19 -23 23 19 c12 11 22 21 22 23 0 8 -8 2 -26 -19z"/>
<path d="M1010 3066 c0 -3 14 -12 30 -21 17 -9 30 -13 30 -11 0 3 -13 12 -30
21 -16 9 -30 13 -30 11z"/>
<path d="M1890 3026 c0 -2 8 -10 18 -17 15 -13 16 -12 3 4 -13 16 -21 21 -21
13z"/>
<path d="M1933 3014 c9 -11 15 -23 12 -26 -3 -3 3 -11 12 -19 16 -12 17 -12 6
2 -7 9 -11 18 -8 21 3 3 -5 13 -17 24 -23 19 -23 19 -5 -2z"/>
<path d="M4224 2998 l-19 -23 23 19 c21 18 27 26 19 26 -2 0 -12 -10 -23 -22z"/>
<path d="M1776 2997 c3 -10 9 -15 12 -12 3 3 0 11 -7 18 -10 9 -11 8 -5 -6z"/>
<path d="M1150 2986 c0 -3 9 -10 20 -16 11 -6 20 -8 20 -6 0 3 -9 10 -20 16
-11 6 -20 8 -20 6z"/>
<path d="M4140 2970 c-6 -11 -8 -20 -6 -20 3 0 10 9 16 20 6 11 8 20 6 20 -3
0 -10 -9 -16 -20z"/>
<path d="M4169 2933 l-34 -38 38 34 c20 19 37 36 37 38 0 8 -8 0 -41 -34z"/>
<path d="M1200 2956 c0 -3 9 -10 20 -16 11 -6 20 -8 20 -6 0 3 -9 10 -20 16
-11 6 -20 8 -20 6z"/>
<path d="M4099 2903 c-29 -35 -41 -53 -36 -53 2 0 17 16 31 35 28 36 31 49 5
18z"/>
<path d="M1190 2896 c0 -3 14 -12 30 -21 17 -9 30 -13 30 -11 0 3 -13 12 -30
21 -16 9 -30 13 -30 11z"/>
<path d="M4995 2805 c-60 -47 -116 -92 -125 -101 -11 -13 103 71 249 183 2 2
0 3 -5 2 -5 0 -58 -38 -119 -84z"/>
<path d="M1940 2876 c0 -2 8 -10 18 -17 15 -13 16 -12 3 4 -13 16 -21 21 -21
13z"/>
<path d="M300 2580 c0 -283 0 -290 -20 -290 -11 0 -20 -4 -20 -10 0 -5 -24
-10 -53 -10 -51 0 -77 -12 -77 -34 0 -6 5 -3 11 7 8 13 23 17 64 17 30 0 55
-4 55 -10 0 -5 4 -10 9 -10 5 0 7 9 4 20 -4 15 0 20 16 20 21 0 21 1 21 295 0
162 -2 295 -5 295 -3 0 -5 -130 -5 -290z"/>
<path d="M1280 2845 c0 -2 18 -14 40 -25 22 -11 40 -18 40 -15 0 2 -18 14 -40
25 -22 11 -40 18 -40 15z"/>
<path d="M1410 2776 c0 -3 9 -10 20 -16 11 -6 20 -8 20 -6 0 3 -9 10 -20 16
-11 6 -20 8 -20 6z"/>
<path d="M4829 2673 c-13 -16 -12 -17 4 -4 16 13 21 21 13 21 -2 0 -10 -8 -17
-17z"/>
<path d="M4169 2633 l-24 -28 28 24 c25 23 32 31 24 31 -2 0 -14 -12 -28 -27z"/>
<path d="M4765 2624 l-40 -36 43 32 c36 27 49 40 40 40 -2 0 -21 -16 -43 -36z"/>
<path d="M4109 2563 l-24 -28 28 24 c25 23 32 31 24 31 -2 0 -14 -12 -28 -27z"/>
<path d="M4670 2549 l-45 -41 48 37 c41 33 53 45 45 45 -2 0 -23 -18 -48 -41z"/>
<path d="M3799 2575 c-1 -3 -2 -10 -3 -16 0 -6 -15 -18 -33 -27 -29 -16 -30
-19 -17 -36 11 -15 14 -16 14 -4 0 11 13 15 54 17 l54 1 -4 -42 c-3 -42 -3
-42 5 -8 5 19 11 42 15 52 6 12 -1 19 -28 29 -20 7 -36 19 -36 26 0 12 -18 19
-21 8z"/>
<path d="M4594 2488 l-19 -23 23 19 c12 11 22 21 22 23 0 8 -8 2 -26 -19z"/>
<path d="M4549 2453 c-13 -16 -12 -17 4 -4 16 13 21 21 13 21 -2 0 -10 -8 -17
-17z"/>
<path d="M3762 2440 c0 -14 2 -19 5 -12 2 6 2 18 0 25 -3 6 -5 1 -5 -13z"/>
<path d="M4509 2423 c-13 -16 -12 -17 4 -4 9 7 17 15 17 17 0 8 -8 3 -21 -13z"/>
<path d="M4450 2379 c-35 -31 -35 -31 -3 -9 18 11 35 25 38 30 10 16 2 11 -35
-21z"/>
<path d="M3964 2348 l-19 -23 23 19 c12 11 22 21 22 23 0 8 -8 2 -26 -19z"/>
<path d="M4294 2348 l-19 -23 23 19 c12 11 22 21 22 23 0 8 -8 2 -26 -19z"/>
<path d="M4990 2343 c14 -3 29 -10 33 -17 6 -7 7 -6 4 4 -2 8 -16 16 -33 17
-25 1 -26 0 -4 -4z"/>
<path d="M4920 2329 c0 -5 5 -7 10 -4 6 3 10 8 10 11 0 2 -4 4 -10 4 -5 0 -10
-5 -10 -11z"/>
<path d="M4229 2273 l-34 -38 38 34 c20 19 37 36 37 38 0 8 -8 0 -41 -34z"/>
<path d="M3909 2283 c-13 -16 -12 -17 4 -4 9 7 17 15 17 17 0 8 -8 3 -21 -13z"/>
<path d="M4912 2178 c-1 -69 -5 -128 -9 -131 -10 -5 5 -2 35 7 l22 7 1 -203
c1 -112 5 -214 9 -228 5 -14 6 122 3 303 l-6 327 79 2 c70 1 73 2 29 7 -27 3
-65 4 -82 2 l-33 -3 0 -99 c0 -54 -2 -99 -4 -99 -2 0 -11 -3 -20 -6 -13 -5
-16 11 -19 118 l-3 123 -2 -127z"/>
<path d="M3597 2252 c-27 -30 -22 -49 13 -44 l29 4 4 -78 3 -79 2 83 2 82 -32
1 -33 2 34 6 c33 6 33 6 14 24 -19 16 -21 16 -36 -1z"/>
<path d="M300 2233 c6 -3 10 -95 10 -259 l0 -254 -80 0 -80 0 0 50 0 49 58 3
57 3 -68 5 -67 5 2 -205 c1 -153 3 -186 8 -130 4 41 8 105 9 143 l1 67 85 0
85 0 -2 262 c-2 202 -6 262 -16 264 -7 1 -8 0 -2 -3z"/>
<path d="M4204 2218 l-19 -23 23 19 c12 11 22 21 22 23 0 8 -8 2 -26 -19z"/>
<path d="M3592 2128 c-2 -52 2 -73 15 -88 21 -25 33 -26 33 -2 0 12 -3 14 -8
4 -14 -21 -31 26 -35 93 l-3 60 -2 -67z"/>
<path d="M4144 2168 l-19 -23 23 19 c21 18 27 26 19 26 -2 0 -12 -10 -23 -22z"/>
<path d="M4204 2158 l-29 -33 33 29 c30 28 37 36 29 36 -2 0 -16 -15 -33 -32z"/>
<path d="M4552 1884 c-2 -272 -3 -282 -22 -287 -19 -5 -20 -13 -18 -129 l2
-123 6 120 5 120 65 6 c58 5 60 6 18 7 l-48 2 -3 283 -2 282 -3 -281z"/>
<path d="M2752 2055 c-20 -19 -21 -23 -8 -28 9 -4 16 -1 16 4 0 7 11 9 25 7
29 -6 32 3 8 24 -16 14 -20 13 -41 -7z"/>
<path d="M4230 2060 c-9 -6 -10 -10 -3 -10 6 0 15 5 18 10 8 12 4 12 -15 0z"/>
<path d="M4631 2054 c0 -11 3 -14 6 -6 3 7 2 16 -1 19 -3 4 -6 -2 -5 -13z"/>
<path d="M3536 2047 c-15 -11 -17 -18 -8 -33 10 -17 11 -17 12 -1 0 11 8 17
21 17 19 0 21 -4 15 -32 -3 -18 -10 -34 -14 -38 -4 -3 -7 -204 -7 -448 0 -386
2 -442 15 -442 13 0 15 60 13 486 -2 267 -5 490 -8 495 -8 12 -18 11 -39 -4z"/>
<path d="M4138 2053 c7 -3 16 -2 19 1 4 3 -2 6 -13 5 -11 0 -14 -3 -6 -6z"/>
<path d="M4232 2018 c-8 -15 -12 -48 -9 -88 l3 -65 2 72 c1 43 7 73 14 75 6 2
9 10 7 17 -3 8 -9 4 -17 -11z"/>
<path d="M0 2020 c0 -5 5 -10 11 -10 5 0 7 5 4 10 -3 6 -8 10 -11 10 -2 0 -4
-4 -4 -10z"/>
<path d="M41 1997 c8 -7 21 -21 28 -32 11 -17 12 -17 7 -2 -3 10 -6 22 -6 27
0 4 -10 10 -22 13 -20 5 -21 4 -7 -6z"/>
<path d="M4164 1730 c0 -157 2 -221 3 -142 2 78 2 206 0 285 -1 78 -3 14 -3
-143z"/>
<path d="M2767 1638 c1 -263 -2 -389 -12 -458 -16 -112 -11 -98 -32 -103 -10
-3 5 -5 34 -6 l51 -1 -4 88 c-2 48 -6 98 -9 111 -2 14 -5 182 -5 373 -1 194
-5 346 -10 343 -4 -3 -10 -1 -12 5 -1 6 -2 -153 -1 -352z"/>
<path d="M2374 1890 c0 -52 1 -74 3 -47 2 26 2 68 0 95 -2 26 -3 4 -3 -48z"/>
<path d="M98 1927 c12 -7 19 -17 15 -22 -4 -4 0 -5 9 -2 13 4 18 -1 21 -21 4
-25 4 -25 6 5 1 26 -4 33 -30 42 -42 14 -50 13 -21 -2z"/>
<path d="M2825 1880 c-18 -20 -15 -24 18 -20 15 1 17 -3 12 -22 -4 -13 -10
-25 -14 -28 -11 -9 -7 -728 4 -724 7 3 10 129 10 366 0 322 2 362 16 371 15 9
15 13 -3 44 -11 18 -21 33 -22 33 -2 0 -11 -9 -21 -20z"/>
<path d="M2164 1820 c1 -35 5 -45 19 -46 11 -1 12 0 3 3 -9 2 -16 21 -19 46
l-4 42 1 -45z"/>
<path d="M3492 1858 c-15 -15 -16 -42 -1 -32 6 3 15 1 19 -6 5 -9 9 -8 13 3 3
8 0 22 -6 31 -10 13 -15 14 -25 4z"/>
<path d="M1145 1839 c-8 -12 23 -49 42 -49 11 0 13 -68 13 -375 0 -243 4 -375
10 -375 12 0 14 759 2 776 -7 11 -45 34 -56 34 -3 0 -8 -5 -11 -11z"/>
<path d="M1373 1803 c15 -2 37 -2 50 0 12 2 0 4 -28 4 -27 0 -38 -2 -22 -4z"/>
<path d="M1454 1655 c0 -82 2 -115 3 -72 2 43 2 110 0 150 -1 40 -3 5 -3 -78z"/>
<path d="M3490 1764 c0 -19 -4 -33 -9 -29 -5 3 -12 1 -15 -4 -8 -12 17 -32 30
-23 12 8 13 92 2 92 -5 0 -8 -16 -8 -36z"/>
<path d="M1175 1751 c-3 -5 -1 -12 5 -16 5 -3 10 1 10 9 0 18 -6 21 -15 7z"/>
<path d="M2933 1736 c6 -15 -19 -31 -42 -27 -13 2 -13 0 -2 -13 11 -13 13 -76
9 -310 -4 -285 -3 -293 15 -288 16 4 18 11 13 46 -4 23 -9 155 -13 294 l-6
252 32 0 c23 0 31 4 27 13 -3 6 -9 20 -12 30 -4 9 -11 17 -16 17 -6 0 -8 -6
-5 -14z"/>
<path d="M1862 1670 c0 -14 2 -19 5 -12 2 6 2 18 0 25 -3 6 -5 1 -5 -13z"/>
<path d="M3440 1682 c0 -4 4 -12 9 -17 5 -6 11 -28 14 -50 3 -32 4 -29 5 18 2
45 -1 57 -13 57 -8 0 -15 -4 -15 -8z"/>
<path d="M1930 1656 c0 -2 13 -6 29 -8 17 -2 28 -1 25 4 -5 8 -54 12 -54 4z"/>
<path d="M1914 1500 c0 -85 2 -120 3 -77 2 42 2 112 0 155 -1 42 -3 7 -3 -78z"/>
<path d="M3503 1625 c-9 -9 -13 -89 -15 -279 l-3 -266 24 0 c21 0 23 3 17 33
-25 132 -35 474 -15 494 6 6 10 16 8 21 -2 6 -9 5 -16 -3z"/>
<path d="M3892 1610 c0 -19 2 -27 5 -17 2 9 2 25 0 35 -3 9 -5 1 -5 -18z"/>
<path d="M2963 1623 c-22 -8 -15 -32 7 -26 11 3 27 0 35 -7 12 -10 15 -10 15
0 0 7 -8 19 -17 26 -19 14 -22 15 -40 7z"/>
<path d="M3991 1604 c0 -11 3 -14 6 -6 3 7 2 16 -1 19 -3 4 -6 -2 -5 -13z"/>
<path d="M2212 1590 c0 -14 2 -19 5 -12 2 6 2 18 0 25 -3 6 -5 1 -5 -13z"/>
<path d="M3400 1600 c0 -5 6 -10 14 -10 8 0 18 5 21 10 3 6 -3 10 -14 10 -12
0 -21 -4 -21 -10z"/>
<path d="M1078 1583 c12 -2 30 -2 40 0 9 3 -1 5 -23 4 -22 0 -30 -2 -17 -4z"/>
<path d="M1144 1345 c0 -132 2 -185 3 -117 2 68 2 176 0 240 -1 64 -3 9 -3
-123z"/>
<path d="M2950 1559 c0 -5 4 -9 10 -9 5 0 11 -37 12 -82 l3 -83 5 87 c4 77 3
88 -12 92 -10 2 -18 0 -18 -5z"/>
<path d="M3450 1327 c0 -137 4 -237 9 -237 9 0 3 459 -5 469 -2 2 -4 -102 -4
-232z"/>
<path d="M3410 1531 c5 -11 11 -86 12 -168 l2 -148 6 160 c3 101 1 163 -5 167
-18 14 -26 8 -15 -11z"/>
<path d="M1183 1465 c0 -44 2 -61 4 -37 2 23 2 59 0 80 -2 20 -4 1 -4 -43z"/>
<path d="M3010 1518 c0 -8 9 -14 20 -14 24 0 21 20 -3 24 -9 2 -17 -3 -17 -10z"/>
<path d="M2950 1317 c0 -117 4 -207 9 -207 8 0 3 399 -5 409 -2 2 -4 -89 -4
-202z"/>
<path d="M2390 1495 c0 -8 2 -15 4 -15 2 0 6 7 10 15 3 8 1 15 -4 15 -6 0 -10
-7 -10 -15z"/>
<path d="M4268 1503 c6 -2 18 -2 25 0 6 3 1 5 -13 5 -14 0 -19 -2 -12 -5z"/>
<path d="M2462 1460 c0 -19 2 -27 5 -17 2 9 2 25 0 35 -3 9 -5 1 -5 -18z"/>
<path d="M3365 1480 c-3 -5 2 -13 11 -18 19 -10 11 -32 -12 -32 -8 0 -14 -5
-14 -10 0 -7 6 -7 19 0 17 9 20 6 24 -22 2 -21 4 -12 5 23 2 42 -2 58 -13 62
-8 4 -17 2 -20 -3z"/>
<path d="M3039 1467 c-2 -6 -2 -61 1 -122 l5 -110 5 118 c3 66 2 121 -1 123
-4 2 -9 -2 -10 -9z"/>
<path d="M3014 1340 c0 -69 1 -97 3 -62 2 34 2 90 0 125 -2 34 -3 6 -3 -63z"/>
<path d="M3070 1406 c0 -2 7 -6 15 -10 8 -3 15 -1 15 4 0 6 -7 10 -15 10 -8 0
-15 -2 -15 -4z"/>
<path d="M2983 1245 c0 -22 2 -30 4 -17 2 12 2 30 0 40 -3 9 -5 -1 -4 -23z"/>
<path d="M4927 1253 c-4 -3 -7 -14 -7 -24 0 -9 -6 -19 -14 -22 -17 -7 -21
-177 -5 -177 7 0 9 -25 7 -65 -3 -56 -1 -65 14 -65 14 0 18 11 20 63 l3 62 18
-39 c10 -22 18 -50 19 -63 2 -22 17 -30 30 -17 4 3 0 22 -9 42 -8 20 -17 81
-20 136 -3 67 -9 106 -19 117 -10 11 -11 18 -3 26 6 6 8 16 5 22 -8 12 -29 15
-39 4z"/>
<path d="M3042 1185 c0 -16 2 -22 5 -12 2 9 2 23 0 30 -3 6 -5 -1 -5 -18z"/>
<path d="M3658 1063 c7 -3 16 -2 19 1 4 3 -2 6 -13 5 -11 0 -14 -3 -6 -6z"/>
<path d="M3475 1050 c7 -12 65 -30 65 -21 0 4 -16 12 -35 18 -19 6 -33 7 -30
3z"/>
<path d="M3728 1053 c7 -3 16 -2 19 1 4 3 -2 6 -13 5 -11 0 -14 -3 -6 -6z"/>
<path d="M2718 1043 c7 -3 16 -2 19 1 4 3 -2 6 -13 5 -11 0 -14 -3 -6 -6z"/>
<path d="M1868 1033 c17 -2 47 -2 65 0 17 2 3 4 -33 4 -36 0 -50 -2 -32 -4z"/>
<path d="M2668 1033 c7 -3 16 -2 19 1 4 3 -2 6 -13 5 -11 0 -14 -3 -6 -6z"/>
<path d="M3638 1033 c7 -3 16 -2 19 1 4 3 -2 6 -13 5 -11 0 -14 -3 -6 -6z"/>
<path d="M3913 1033 c9 -2 25 -2 35 0 9 3 1 5 -18 5 -19 0 -27 -2 -17 -5z"/>
<path d="M3690 1020 c34 -11 60 -11 35 0 -11 5 -29 8 -40 8 -16 0 -15 -2 5 -8z"/>
<path d="M2860 1010 c-8 -5 -10 -10 -5 -10 6 0 17 5 25 10 8 5 11 10 5 10 -5
0 -17 -5 -25 -10z"/>
<path d="M3455 1000 c10 -11 20 -20 23 -20 3 0 -3 9 -13 20 -10 11 -20 20 -23
20 -3 0 3 -9 13 -20z"/>
<path d="M3570 1013 c0 -10 260 -129 272 -126 4 2 8 -2 8 -8 0 -5 5 -7 10 -4
6 3 10 1 10 -5 0 -7 7 -9 16 -6 8 3 13 2 10 -2 -6 -11 102 -64 115 -57 5 4 9
1 9 -5 0 -6 4 -9 9 -6 5 3 11 -1 15 -9 3 -8 11 -15 18 -15 9 0 9 3 -2 11 -12
9 -12 10 3 5 10 -3 21 -6 23 -6 3 0 2 -4 -1 -10 -4 -6 1 -7 11 -3 12 4 15 3
10 -5 -5 -8 -1 -10 10 -5 12 4 15 3 10 -5 -5 -8 -1 -10 10 -5 12 4 15 3 10 -5
-5 -8 -1 -10 10 -5 12 4 15 3 10 -5 -5 -8 -1 -10 10 -5 10 4 15 2 11 -3 -7
-12 240 -137 254 -129 5 4 9 1 9 -5 0 -6 5 -8 10 -5 6 3 10 1 10 -5 0 -6 5 -8
10 -5 6 3 10 1 10 -5 0 -6 5 -8 10 -5 6 3 10 1 10 -5 0 -6 4 -9 9 -6 5 4 11 2
13 -3 1 -5 10 -11 18 -13 8 -2 17 -6 20 -9 3 -4 104 -56 225 -117 121 -60 240
-122 265 -136 56 -32 60 -32 60 -1 0 22 -19 35 -187 119 -445 222 -863 418
-1083 506 -52 21 -134 57 -183 79 -93 44 -97 45 -97 34z"/>
<path d="M3903 1013 c9 -2 25 -2 35 0 9 3 1 5 -18 5 -19 0 -27 -2 -17 -5z"/>
<path d="M1303 1003 c20 -2 54 -2 75 0 20 2 3 4 -38 4 -41 0 -58 -2 -37 -4z"/>
<path d="M1908 1003 c6 -2 18 -2 25 0 6 3 1 5 -13 5 -14 0 -19 -2 -12 -5z"/>
<path d="M1848 993 c7 -3 16 -2 19 1 4 3 -2 6 -13 5 -11 0 -14 -3 -6 -6z"/>
<path d="M2530 851 c-162 -81 -360 -184 -440 -228 -835 -457 -1106 -607 -1114
-614 -5 -5 21 -8 57 -8 59 1 87 11 56 21 -11 4 143 93 546 319 121 67 249 140
285 162 107 66 450 253 695 378 127 65 226 119 220 119 -5 0 -143 -67 -305
-149z"/>
<path d="M1468 983 c12 -2 30 -2 40 0 9 3 -1 5 -23 4 -22 0 -30 -2 -17 -4z"/>
<path d="M1788 983 c7 -3 16 -2 19 1 4 3 -2 6 -13 5 -11 0 -14 -3 -6 -6z"/>
<path d="M3560 846 c80 -82 312 -305 517 -497 308 -288 377 -349 400 -349 24
1 26 2 12 13 -50 38 -694 621 -869 786 l-205 194 145 -147z"/>
<path d="M1368 973 c12 -2 32 -2 45 0 12 2 2 4 -23 4 -25 0 -35 -2 -22 -4z"/>
<path d="M2428 973 c7 -3 16 -2 19 1 4 3 -2 6 -13 5 -11 0 -14 -3 -6 -6z"/>
<path d="M2770 939 c-212 -115 -767 -480 -1185 -778 -110 -79 -204 -147 -209
-152 -6 -5 4 -9 26 -9 29 0 57 17 164 98 316 241 1037 737 1207 831 42 23 77
44 77 47 0 6 -1 6 -80 -37z"/>
<path d="M2358 953 c7 -3 16 -2 19 1 4 3 -2 6 -13 5 -11 0 -14 -3 -6 -6z"/>
<path d="M1898 933 c6 -2 18 -2 25 0 6 3 1 5 -13 5 -14 0 -19 -2 -12 -5z"/>
<path d="M2288 933 c7 -3 16 -2 19 1 4 3 -2 6 -13 5 -11 0 -14 -3 -6 -6z"/>
<path d="M1848 923 c6 -2 18 -2 25 0 6 3 1 5 -13 5 -14 0 -19 -2 -12 -5z"/>
<path d="M1808 913 c7 -3 16 -2 19 1 4 3 -2 6 -13 5 -11 0 -14 -3 -6 -6z"/>
<path d="M1488 883 c6 -2 18 -2 25 0 6 3 1 5 -13 5 -14 0 -19 -2 -12 -5z"/>
<path d="M1428 873 c6 -2 18 -2 25 0 6 3 1 5 -13 5 -14 0 -19 -2 -12 -5z"/>
<path d="M1373 863 c9 -2 23 -2 30 0 6 3 -1 5 -18 5 -16 0 -22 -2 -12 -5z"/>
<path d="M1313 853 c9 -2 23 -2 30 0 6 3 -1 5 -18 5 -16 0 -22 -2 -12 -5z"/>
<path d="M3630 856 c0 -2 8 -10 18 -17 15 -13 16 -12 3 4 -13 16 -21 21 -21
13z"/>
<path d="M1253 843 c9 -2 23 -2 30 0 6 3 -1 5 -18 5 -16 0 -22 -2 -12 -5z"/>
<path d="M1193 833 c9 -2 23 -2 30 0 6 3 -1 5 -18 5 -16 0 -22 -2 -12 -5z"/>
<path d="M1493 833 c9 -2 23 -2 30 0 6 3 -1 5 -18 5 -16 0 -22 -2 -12 -5z"/>
<path d="M1138 823 c6 -2 18 -2 25 0 6 3 1 5 -13 5 -14 0 -19 -2 -12 -5z"/>
<path d="M1438 823 c6 -2 18 -2 25 0 6 3 1 5 -13 5 -14 0 -19 -2 -12 -5z"/>
<path d="M1388 813 c6 -2 18 -2 25 0 6 3 1 5 -13 5 -14 0 -19 -2 -12 -5z"/>
<path d="M3680 816 c0 -2 8 -10 18 -17 15 -13 16 -12 3 4 -13 16 -21 21 -21
13z"/>
<path d="M3720 786 c0 -2 8 -10 18 -17 15 -13 16 -12 3 4 -13 16 -21 21 -21
13z"/>
<path d="M3770 748 c23 -23 125 -94 118 -82 -4 6 -35 30 -70 54 -35 24 -56 36
-48 28z"/>
<path d="M4790 682 c22 -14 320 -105 325 -100 4 4 -259 89 -320 104 -16 4 -17
3 -5 -4z"/>
<path d="M3910 648 c8 -8 123 -94 255 -190 132 -97 325 -240 430 -317 104 -78
198 -141 209 -141 26 0 36 -8 -224 177 -124 88 -313 223 -420 299 -227 163
-270 193 -250 172z"/>
</g>
</svg>