<?xml version="1.0" encoding="utf-8"?>
<svg xmlns="http://www.w3.org/2000/svg" version="1.1" width="2000" height="184" viewBox="667.039 -8.939 678.212 202.995">
  <svg width="2000" height="184" data-version="2" data-id="lg_qXGbZ05cNB2got1IA0" viewBox="0 0 641 184" x="0" y="0" transform="matrix(1, 0, 0, 1, -839.8717651367188, 6.703912258148193)">
    <rect width="100%" height="100%" fill="transparent"/>
    <path fill="#000000" d="M84.386 1.904C42.86 4.84 9.688 38.014 6.751 79.538c-.23 3.24 2.328 5.999 5.577 5.999h72.467a5.59 5.59 0 0 0 5.59-5.591V7.481c0-3.249-2.758-5.805-5.999-5.577m102.78 78.123c-2.936-41.524-36.11-74.697-77.633-77.633-3.241-.23-6 2.328-6 5.577v72.467a5.59 5.59 0 0 0 5.591 5.59h72.465c3.249 0 5.805-2.758 5.577-5.999Zm-7.909 17.023c-41.525 2.936-74.698 36.11-77.634 77.633-.23 3.241 2.328 6 5.577 6h72.467a5.59 5.59 0 0 0 5.59-5.591v-72.465c0-3.249-2.758-5.805-5.999-5.577ZM6.752 104.463c2.936 41.524 36.11 74.697 77.633 77.633 3.241.23 6-2.328 6-5.577v-72.467a5.59 5.59 0 0 0-5.591-5.59H12.329c-3.249 0-5.805 2.758-5.577 5.999Zm213.676-19.719v-32.57h3.66v29.42h15.42v3.15Z"/>
    <rect width="19.08" height="32.57" x="-9.54" y="-16.29" fill="none" rx="0" ry="0" transform="translate(230.47 68.96)"/>
    <path fill="#000000" d="M254.828 85.444q-3.71 0-6.04-1.43-2.33-1.44-3.41-4.09-1.08-2.66-1.08-6.23v-21.52h3.67v21q0 3.48.87 5.46.87 1.97 2.42 2.79 1.55.83 3.52.83 2.02 0 3.55-.8 1.53-.8 2.4-2.78.87-1.97.87-5.45v-21.05h3.66v21.52q0 3.57-1.05 6.23-1.06 2.65-3.34 4.09-2.28 1.43-6.04 1.43"/>
    <rect width="20.96" height="33.27" x="-10.48" y="-16.64" fill="none" rx="0" ry="0" transform="translate(255.28 69.3)"/>
    <path fill="#000000" d="M269.778 84.744q.14-4.05.37-8.18.24-4.14.54-8.27.31-4.14.71-8.21.4-4.06.91-7.91h3.62q.94 3.05 1.81 5.8.87 2.75 1.74 5.43.87 2.68 1.72 5.5.84-2.78 1.67-5.45.82-2.68 1.69-5.46.87-2.77 1.81-5.82h3.66q.76 4.88 1.18 10.17.42 5.29.68 10.88.26 5.59.54 11.52h-3.67q-.14-3.67-.25-8.35-.12-4.67-.26-9.7-.14-5.03-.38-9.73l-4.93 15.18h-3.48l-5.17-15.18q-.05 4.65-.24 9.68l-.35 9.73q-.16 4.7-.26 8.37Z"/>
    <rect width="22.65" height="32.57" x="-11.32" y="-16.29" fill="none" rx="0" ry="0" transform="translate(281.6 68.96)"/>
    <path fill="#000000" d="M299.528 84.744v-3.15h6.06v-26.28h-6.06v-3.14h15.79v3.14h-6.06v26.28h6.06v3.15Z"/>
    <rect width="15.79" height="32.57" x="-7.89" y="-16.29" fill="none" rx="0" ry="0" transform="translate(307.92 68.96)"/>
    <path fill="#000000" d="M323.638 84.744v-32.57h4.18q1.93 3.52 3.31 6.18 1.39 2.65 2.52 4.88 1.13 2.24 2.16 4.47 1.04 2.23 2.14 4.86 1.1 2.64 2.51 6.16v-26.55h3.39v32.57h-4.18q-1.98-4.89-3.67-8.72-1.69-3.83-3.2-7.01-1.5-3.17-2.93-5.96-1.44-2.8-2.85-5.62v27.31Z"/>
    <rect width="20.21" height="32.57" x="-10.11" y="-16.29" fill="none" rx="0" ry="0" transform="translate(334.24 68.96)"/>
    <path fill="#000000" d="M347.368 84.744q.85-3.06 1.93-7.01 1.08-3.94 2.4-8.34 1.31-4.39 2.82-8.81 1.5-4.42 3.19-8.41h4.89q1.65 3.99 3.1 8.41 1.46 4.42 2.75 8.79 1.3 4.37 2.38 8.32 1.08 3.94 1.92 7.05h-3.9l-2.07-8.79h-13.67l-2.02 8.79Zm6.72-11.89h11.75q-.94-3.39-1.97-6.7-1.03-3.32-2.04-6.16-1.01-2.84-1.81-4.82-.8 2.07-1.81 4.94-1.01 2.87-2.07 6.13-1.06 3.27-2.05 6.61"/>
    <rect width="25.38" height="32.57" x="-12.69" y="-16.29" fill="none" rx="0" ry="0" transform="translate(360.56 68.96)"/>
    <path fill="#000000" d="M411.898 85.444q-2.25 0-4.11-.4-1.85-.4-3.17-.94-1.32-.54-1.93-.91l1.18-3.06q.89.52 2.98 1.29 2.09.78 5.05.78 2.21 0 3.81-.57 1.6-.56 2.49-1.73.9-1.18.9-3.01 0-2.26-1.13-3.65-1.13-1.38-2.89-2.32-1.77-.94-3.69-1.69-1.6-.66-3.03-1.48-1.44-.83-2.52-1.86-1.08-1.03-1.69-2.42-.61-1.39-.61-3.17 0-4.19 2.61-6.54 2.61-2.35 7.31-2.35 2.63 0 4.91.59 2.28.59 3.26 1.39l-1.22 3.19q-1.03-.61-2.94-1.27-1.9-.65-4.16-.65-1.55 0-2.93.56-1.39.56-2.28 1.67-.9 1.1-.9 2.75 0 1.97.85 3.19.85 1.23 2.37 2.07 1.53.85 3.46 1.74 2.11.89 3.76 1.79 1.64.89 2.77 1.99 1.13 1.11 1.72 2.64.58 1.52.58 3.69 0 4.13-2.84 6.41-2.84 2.28-7.97 2.28"/>
    <rect width="20.02" height="34.03" x="-10.01" y="-17.02" fill="none" rx="0" ry="0" transform="translate(413.2 68.93)"/>
    <path fill="#000000" d="M439.018 85.444q-3.38 0-5.99-1.78-2.61-1.79-4.11-5.55-1.51-3.76-1.51-9.68t1.48-9.68q1.49-3.76 4.09-5.55 2.61-1.79 6.04-1.79 3.39 0 6.02 1.79 2.63 1.79 4.16 5.55 1.53 3.76 1.53 9.68t-1.51 9.68q-1.5 3.76-4.16 5.55-2.65 1.78-6.04 1.78m-.14-3.19q2.54 0 4.35-1.56 1.81-1.55 2.77-4.63.97-3.07.97-7.63 0-4.61-.97-7.69-.96-3.08-2.77-4.6-1.81-1.53-4.35-1.53-2.44 0-4.16 1.53-1.71 1.52-2.61 4.58-.89 3.05-.89 7.71 0 4.56.89 7.63.9 3.08 2.61 4.63 1.72 1.56 4.16 1.56"/>
    <rect width="23.32" height="34.03" x="-11.66" y="-17.02" fill="none" rx="0" ry="0" transform="translate(439.57 68.93)"/>
    <path fill="#000000" d="M457.308 84.744v-32.57h3.66v29.42h15.42v3.15Z"/>
    <rect width="19.08" height="32.57" x="-9.54" y="-16.29" fill="none" rx="0" ry="0" transform="translate(467.35 68.96)"/>
    <path fill="#000000" d="M491.708 85.444q-3.71 0-6.04-1.43-2.33-1.44-3.41-4.09-1.08-2.66-1.08-6.23v-21.52h3.67v21q0 3.48.87 5.46.87 1.97 2.42 2.79 1.55.83 3.52.83 2.02 0 3.55-.8 1.53-.8 2.4-2.78.87-1.97.87-5.45v-21.05h3.66v21.52q0 3.57-1.05 6.23-1.06 2.65-3.34 4.09-2.28 1.43-6.04 1.43"/>
    <rect width="20.96" height="33.27" x="-10.48" y="-16.64" fill="none" rx="0" ry="0" transform="translate(492.16 69.3)"/>
    <path fill="#000000" d="M516.148 84.744v-29.43h-9.02v-3.14h21.71v3.14h-9.02v29.43Z"/>
    <rect width="21.71" height="32.57" x="-10.86" y="-16.29" fill="none" rx="0" ry="0" transform="translate(518.48 68.96)"/>
    <path fill="#000000" d="M536.408 84.744v-3.15h6.06v-26.28h-6.06v-3.14h15.79v3.14h-6.06v26.28h6.06v3.15Z"/>
    <rect width="15.79" height="32.57" x="-7.89" y="-16.29" fill="none" rx="0" ry="0" transform="translate(544.8 68.96)"/>
    <path fill="#000000" d="M570.618 85.444q-3.38 0-5.99-1.78-2.61-1.79-4.11-5.55-1.51-3.76-1.51-9.68t1.48-9.68q1.49-3.76 4.09-5.55 2.61-1.79 6.04-1.79 3.39 0 6.02 1.79 2.63 1.79 4.16 5.55 1.53 3.76 1.53 9.68t-1.51 9.68q-1.5 3.76-4.16 5.55-2.65 1.78-6.04 1.78m-.14-3.19q2.54 0 4.35-1.56 1.81-1.55 2.77-4.63.97-3.07.97-7.63 0-4.61-.97-7.69-.96-3.08-2.77-4.6-1.81-1.53-4.35-1.53-2.44 0-4.16 1.53-1.71 1.52-2.61 4.58-.89 3.05-.89 7.71 0 4.56.89 7.63.9 3.08 2.61 4.63 1.72 1.56 4.16 1.56"/>
    <rect width="23.32" height="34.03" x="-11.66" y="-17.02" fill="none" rx="0" ry="0" transform="translate(571.17 68.93)"/>
    <path fill="#000000" d="M586.838 84.744v-32.57h4.18q1.93 3.52 3.31 6.18 1.39 2.65 2.52 4.88 1.13 2.24 2.16 4.47 1.04 2.23 2.14 4.86 1.1 2.64 2.51 6.16v-26.55h3.39v32.57h-4.18q-1.98-4.89-3.67-8.72-1.69-3.83-3.2-7.01-1.5-3.17-2.93-5.96-1.44-2.8-2.85-5.62v27.31Z"/>
    <rect width="20.21" height="32.57" x="-10.11" y="-16.29" fill="none" rx="0" ry="0" transform="translate(597.44 68.96)"/>
    <path fill="#000000" d="M622.458 85.444q-2.25 0-4.11-.4-1.85-.4-3.17-.94-1.32-.54-1.93-.91l1.18-3.06q.89.52 2.98 1.29 2.09.78 5.05.78 2.21 0 3.81-.57 1.6-.56 2.49-1.73.9-1.18.9-3.01 0-2.26-1.13-3.65-1.13-1.38-2.89-2.32-1.77-.94-3.69-1.69-1.6-.66-3.03-1.48-1.44-.83-2.52-1.86-1.08-1.03-1.69-2.42-.61-1.39-.61-3.17 0-4.19 2.61-6.54 2.61-2.35 7.31-2.35 2.63 0 4.91.59 2.28.59 3.26 1.39l-1.22 3.19q-1.03-.61-2.94-1.27-1.9-.65-4.16-.65-1.55 0-2.93.56-1.39.56-2.28 1.67-.9 1.1-.9 2.75 0 1.97.85 3.19.85 1.23 2.37 2.07 1.53.85 3.46 1.74 2.11.89 3.76 1.79 1.64.89 2.77 1.99 1.13 1.11 1.72 2.64.58 1.52.58 3.69 0 4.13-2.84 6.41-2.84 2.28-7.97 2.28"/>
    <rect width="20.02" height="34.03" x="-10.01" y="-17.02" fill="none" rx="0" ry="0" transform="translate(623.76 68.93)"/>
    <path fill="#000000" d="M223.708 133.124q-2.16 0-3.84-.99-1.68-.99-2.64-2.82-.96-1.83-.96-4.35 0-2.37.84-4.19.84-1.81 2.37-2.86 1.53-1.05 3.6-1.05 1.35 0 2.33.33.97.33 1.42.66v-7.95l2.34-.42v22.83q-.54.15-1.32.34-.78.2-1.8.33-1.02.14-2.34.14m-.03-2.19q1.2 0 2.03-.11.82-.1 1.12-.22v-10.26q-.48-.48-1.47-.92-.99-.43-2.07-.43-1.62 0-2.62.81-1.01.81-1.47 2.17-.47 1.37-.47 3.05 0 2.91 1.43 4.41 1.42 1.5 3.52 1.5"/>
    <rect width="12.9" height="23.64" x="-6.45" y="-11.82" fill="none" rx="0" ry="0" transform="translate(223.22 121.8)"/>
    <path fill="#000000" d="M240.958 133.124q-2.73 0-4.48-1.1-1.76-1.09-2.6-2.95-.84-1.86-.84-4.08 0-2.07.63-3.6.63-1.53 1.7-2.54 1.06-1 2.35-1.5 1.29-.49 2.64-.49 2.01 0 3.45.85 1.44.86 2.22 2.61.78 1.76.78 4.43v.81h-11.43q.24 2.67 1.73 4.03 1.48 1.37 4.21 1.37 1.53 0 2.55-.24 1.02-.24 1.47-.45l.33 1.98q-.36.27-1.69.57-1.34.3-3.02.3m-5.49-9.63h8.85q0-1.47-.52-2.49-.53-1.02-1.43-1.58-.9-.55-2.07-.55-1.35 0-2.38.67-1.04.68-1.67 1.74-.63 1.07-.78 2.21"/>
    <rect width="13.77" height="16.26" x="-6.88" y="-8.13" fill="none" rx="0" ry="0" transform="translate(240.42 125.5)"/>
    <path fill="#000000" d="M256.168 133.124q-.96 0-1.87-.09-.92-.09-1.79-.32-.87-.22-1.77-.61l.51-2.22q1.17.57 2.48.9 1.3.33 2.8.33 1.98 0 2.97-.53.99-.52.99-1.63 0-.81-.61-1.37-.62-.55-1.59-.97-.98-.42-2.09-.78-.93-.33-1.86-.74-.93-.4-1.68-.93-.75-.52-1.2-1.27-.45-.75-.45-1.77 0-1.23.68-2.19.67-.96 2.05-1.52 1.38-.55 3.48-.55 1.23 0 2.58.18t2.28.42l-.42 2.19q-.36-.24-1.09-.41-.74-.16-1.61-.27-.87-.1-1.71-.1-1.92 0-2.92.51-1.01.51-1.01 1.71 0 .63.51 1.09.51.47 1.35.81.84.35 1.83.71 1.02.39 2.06.82 1.03.44 1.9 1.01.87.57 1.4 1.36.52.8.52 1.88 0 1.44-.73 2.41-.74.98-2.22 1.46-1.49.48-3.77.48"/>
    <rect width="12.15" height="16.26" x="-6.08" y="-8.13" fill="none" rx="0" ry="0" transform="translate(257.31 125.5)"/>
    <path fill="#000000" d="M276.658 133.124q-1.92 0-2.98-.69-1.07-.69-1.49-2.06-.42-1.36-.42-3.46v-7.68h-4.59v-2.01h6.87v9.54q0 1.71.32 2.62.31.92.93 1.25.61.33 1.45.33 1.08 0 1.91-.27.82-.27 1.15-.45l.33 2.04q-.06.06-.55.27-.5.21-1.26.39-.77.18-1.67.18m-4.41-18.75q-.84 0-1.44-.59-.6-.58-.6-1.54 0-.99.6-1.56.6-.57 1.44-.57.87 0 1.44.57t.57 1.56q0 .96-.57 1.54-.57.59-1.44.59"/>
    <rect width="12.96" height="23.01" x="-6.48" y="-11.51" fill="none" rx="0" ry="0" transform="translate(274.16 122.12)"/>
    <path fill="#000000" d="M289.108 138.404q-1.47 0-2.68-.23-1.22-.22-2.03-.52l.39-2.1q.87.36 2 .57 1.12.21 2.38.21 1.65 0 2.72-.44 1.06-.43 1.57-1.41.51-.97.51-2.56v-.51q-.36.21-1.42.57-1.07.36-2.48.36-1.74 0-3.27-.8-1.53-.79-2.46-2.49-.93-1.69-.93-4.33 0-2.16.81-3.95.81-1.78 2.39-2.85 1.57-1.06 3.82-1.06 2.16 0 3.63.3 1.47.3 2.25.54v14.07q0 3.54-1.81 5.08-1.82 1.55-5.39 1.55m1.02-8.25q1.14 0 2.19-.33t1.65-.78v-9.57q-.39-.15-1.21-.29-.83-.13-2.24-.13-1.47 0-2.52.72t-1.59 2.01q-.54 1.29-.54 2.97 0 1.92.63 3.12.63 1.2 1.61 1.74.97.54 2.02.54"/>
    <rect width="12.9" height="21.54" x="-6.45" y="-10.77" fill="none" rx="0" ry="0" transform="translate(290.36 128.13)"/>
    <path fill="#000000" d="M301.288 132.764v-15.12q1.59-.42 3.06-.59 1.47-.16 2.58-.16 1.95 0 3.36.64 1.41.65 2.18 2.1.76 1.46.76 3.92v9.21h-2.34v-8.73q0-2.16-.54-3.23-.54-1.06-1.45-1.42-.92-.36-2.06-.36-.75 0-1.59.09-.84.09-1.62.24v13.41Z"/>
    <rect width="11.94" height="15.87" x="-5.97" y="-7.93" fill="none" rx="0" ry="0" transform="translate(307.76 125.33)"/>
    <path fill="#000000" d="M327.058 133.124q-1.92 0-2.98-.69-1.07-.69-1.49-2.06-.42-1.36-.42-3.46v-7.68h-4.59v-2.01h6.87v9.54q0 1.71.32 2.62.31.92.93 1.25.61.33 1.45.33 1.08 0 1.91-.27.82-.27 1.15-.45l.33 2.04q-.06.06-.55.27-.5.21-1.26.39-.77.18-1.67.18m-4.41-18.75q-.84 0-1.44-.59-.6-.58-.6-1.54 0-.99.6-1.56.6-.57 1.44-.57.87 0 1.44.57t.57 1.56q0 .96-.57 1.54-.57.59-1.44.59"/>
    <rect width="12.96" height="23.01" x="-6.48" y="-11.51" fill="none" rx="0" ry="0" transform="translate(324.56 122.12)"/>
    <path fill="#000000" d="M334.888 132.764v-15.12q1.59-.42 3.06-.59 1.47-.16 2.58-.16 1.95 0 3.36.64 1.41.65 2.18 2.1.76 1.46.76 3.92v9.21h-2.34v-8.73q0-2.16-.54-3.23-.54-1.06-1.45-1.42-.92-.36-2.06-.36-.75 0-1.59.09-.84.09-1.62.24v13.41Z"/>
    <rect width="11.94" height="15.87" x="-5.97" y="-7.93" fill="none" rx="0" ry="0" transform="translate(341.36 125.33)"/>
    <path fill="#000000" d="M356.308 138.404q-1.47 0-2.68-.23-1.22-.22-2.03-.52l.39-2.1q.87.36 2 .57 1.12.21 2.38.21 1.65 0 2.72-.44 1.06-.43 1.57-1.41.51-.97.51-2.56v-.51q-.36.21-1.42.57-1.07.36-2.48.36-1.74 0-3.27-.8-1.53-.79-2.46-2.49-.93-1.69-.93-4.33 0-2.16.81-3.95.81-1.78 2.39-2.85 1.57-1.06 3.82-1.06 2.16 0 3.63.3 1.47.3 2.25.54v14.07q0 3.54-1.81 5.08-1.82 1.55-5.39 1.55m1.02-8.25q1.14 0 2.19-.33t1.65-.78v-9.57q-.39-.15-1.21-.29-.83-.13-2.24-.13-1.47 0-2.52.72t-1.59 2.01q-.54 1.29-.54 2.97 0 1.92.63 3.12.63 1.2 1.61 1.74.97.54 2.02.54"/>
    <rect width="12.9" height="21.54" x="-6.45" y="-10.77" fill="none" rx="0" ry="0" transform="translate(357.56 128.13)"/>
    <path fill="#000000" d="M386.038 132.764q-.63-3-1.12-5.81-.5-2.8-.84-5.28-.35-2.47-.56-4.45h2.37q.09 1.29.23 2.5.13 1.22.31 2.57.18 1.35.44 3.01.25 1.67.55 3.89.57-1.35.96-2.36.39-1 .71-1.87.31-.87.61-1.82.3-.94.69-2.2h1.77q.39 1.26.69 2.2.3.95.59 1.8.28.86.66 1.85.37.99.88 2.31.42-2.61.75-4.62.33-2.01.57-3.77.24-1.75.39-3.49h2.19q-.18 1.95-.55 4.54-.38 2.6-.87 5.43-.5 2.84-1.13 5.57h-1.8q-.54-1.2-.93-2.18-.39-.97-.75-1.9-.36-.93-.75-2.01l-.9-2.49q-.48 1.41-.87 2.49-.39 1.08-.76 2.02-.38.95-.8 1.92-.42.98-.96 2.15Z"/>
    <rect width="15.36" height="15.54" x="-7.68" y="-7.77" fill="none" rx="0" ry="0" transform="translate(391.7 125.5)"/>
    <path fill="#000000" d="M411.058 133.124q-1.92 0-2.98-.69-1.07-.69-1.49-2.06-.42-1.36-.42-3.46v-7.68h-4.59v-2.01h6.87v9.54q0 1.71.32 2.62.31.92.93 1.25.61.33 1.45.33 1.08 0 1.91-.27.82-.27 1.15-.45l.33 2.04q-.06.06-.55.27-.5.21-1.26.39-.77.18-1.67.18m-4.41-18.75q-.84 0-1.44-.59-.6-.58-.6-1.54 0-.99.6-1.56.6-.57 1.44-.57.87 0 1.44.57t.57 1.56q0 .96-.57 1.54-.57.59-1.44.59"/>
    <rect width="12.96" height="23.01" x="-6.48" y="-11.51" fill="none" rx="0" ry="0" transform="translate(408.56 122.12)"/>
    <path fill="#000000" d="M427.588 133.124q-2.43 0-3.63-.8-1.2-.79-1.59-2.23-.39-1.44-.39-3.36v-7.5h-3.18v-2.01h3.18v-4.47l2.34-.42v4.89h6.6v2.01h-6.6v7.53q0 1.65.33 2.56.33.92 1.1 1.28.76.36 2.05.36 1.2 0 1.91-.23.7-.22 1.24-.46l.36 1.98q-.24.12-1.2.49-.96.38-2.52.38"/>
    <rect width="12.51" height="20.79" x="-6.25" y="-10.39" fill="none" rx="0" ry="0" transform="translate(425.55 123.23)"/>
    <path fill="#000000" d="M435.688 132.764v-22.86l2.34-.42v8.01q.78-.3 1.65-.45.87-.15 1.74-.15 2.4 0 3.75.88 1.35.89 1.91 2.49.55 1.61.55 3.74v8.76h-2.34v-8.13q0-2.1-.37-3.32-.38-1.21-1.26-1.75-.89-.54-2.45-.54-.93 0-1.86.21t-1.32.36v13.17Z"/>
    <rect width="11.94" height="23.28" x="-5.97" y="-11.64" fill="none" rx="0" ry="0" transform="translate(442.16 121.62)"/>
    <path fill="#000000" d="M469.288 138.314v-20.61q.57-.15 1.35-.35.78-.19 1.82-.33 1.03-.13 2.29-.13 2.19 0 3.86.97 1.66.98 2.61 2.81.94 1.83.94 4.35 0 2.34-.82 4.17-.83 1.83-2.36 2.88-1.53 1.05-3.63 1.05-1.38 0-2.35-.33-.98-.33-1.37-.69v6.21Zm5.88-7.38q1.62 0 2.63-.8 1-.79 1.47-2.14.46-1.35.46-3 0-2.91-1.41-4.44-1.41-1.53-3.54-1.53-1.35 0-2.07.12-.72.12-1.08.27v10.2q.51.48 1.52.9 1 .42 2.02.42"/>
    <rect width="12.87" height="21.42" x="-6.43" y="-10.71" fill="none" rx="0" ry="0" transform="translate(476.22 128.1)"/>
    <path fill="#000000" d="M492.118 133.094q-2.25 0-3.6-.9t-1.95-2.51q-.6-1.6-.6-3.67v-8.79h2.34v8.13q0 2.04.42 3.28.42 1.25 1.32 1.79.9.54 2.34.54 1.05 0 2.01-.12.96-.12 1.17-.21v-13.41h2.34v15.12q-.84.21-2.29.48-1.46.27-3.5.27"/>
    <rect width="11.94" height="15.87" x="-5.97" y="-7.93" fill="none" rx="0" ry="0" transform="translate(492.44 125.66)"/>
    <path fill="#000000" d="M504.178 132.764v-14.76q1.71-.54 3.44-.84 1.72-.3 3.34-.3.78 0 1.38.03.6.03 1.2.12t1.38.24l-.42 2.01q-.75-.21-1.3-.3-.56-.09-1.08-.11-.53-.01-1.22-.01-1.11 0-2.2.15-1.1.15-2.18.48v13.29Z"/>
    <rect width="10.74" height="15.9" x="-5.37" y="-7.95" fill="none" rx="0" ry="0" transform="translate(510.05 125.31)"/>
    <path fill="#000000" d="M519.688 138.314v-20.61q.57-.15 1.35-.35.78-.19 1.82-.33 1.03-.13 2.29-.13 2.19 0 3.86.97 1.66.98 2.61 2.81.94 1.83.94 4.35 0 2.34-.82 4.17-.83 1.83-2.36 2.88-1.53 1.05-3.63 1.05-1.38 0-2.35-.33-.98-.33-1.37-.69v6.21Zm5.88-7.38q1.62 0 2.63-.8 1-.79 1.47-2.14.46-1.35.46-3 0-2.91-1.41-4.44-1.41-1.53-3.54-1.53-1.35 0-2.07.12-.72.12-1.08.27v10.2q.51.48 1.52.9 1 .42 2.02.42"/>
    <rect width="12.87" height="21.42" x="-6.43" y="-10.71" fill="none" rx="0" ry="0" transform="translate(526.62 128.1)"/>
    <path fill="#000000" d="M542.338 133.094q-1.98 0-3.52-1.01-1.55-1-2.45-2.82-.9-1.81-.9-4.27 0-2.46.89-4.28.88-1.81 2.44-2.83t3.54-1.02q2.04 0 3.62 1.02 1.57 1.02 2.47 2.83.9 1.82.9 4.28t-.9 4.27q-.9 1.82-2.47 2.82-1.58 1.01-3.62 1.01m.03-2.16q1.35 0 2.37-.71 1.02-.7 1.59-2.04.57-1.33.57-3.19 0-1.86-.57-3.21-.57-1.35-1.6-2.07-1.04-.72-2.39-.72-1.32 0-2.32.72-1.01.72-1.56 2.07-.56 1.35-.56 3.21 0 1.86.57 3.19.57 1.34 1.59 2.04 1.02.71 2.31.71"/>
    <rect width="13.86" height="16.23" x="-6.93" y="-8.12" fill="none" rx="0" ry="0" transform="translate(542.9 125.48)"/>
    <path fill="#000000" d="M558.568 133.124q-.96 0-1.87-.09-.92-.09-1.79-.32-.87-.22-1.77-.61l.51-2.22q1.17.57 2.48.9 1.3.33 2.8.33 1.98 0 2.97-.53.99-.52.99-1.63 0-.81-.61-1.37-.62-.55-1.59-.97-.98-.42-2.09-.78-.93-.33-1.86-.74-.93-.4-1.68-.93-.75-.52-1.2-1.27-.45-.75-.45-1.77 0-1.23.68-2.19.67-.96 2.05-1.52 1.38-.55 3.48-.55 1.23 0 2.58.18t2.28.42l-.42 2.19q-.36-.24-1.09-.41-.74-.16-1.61-.27-.87-.1-1.71-.1-1.92 0-2.92.51-1.01.51-1.01 1.71 0 .63.51 1.09.51.47 1.35.81.84.35 1.83.71 1.02.39 2.06.82 1.03.44 1.9 1.01.87.57 1.4 1.36.52.8.52 1.88 0 1.44-.73 2.41-.74.98-2.22 1.46-1.49.48-3.77.48"/>
    <rect width="12.15" height="16.26" x="-6.08" y="-8.13" fill="none" rx="0" ry="0" transform="translate(559.71 125.5)"/>
    <path fill="#000000" d="M576.958 133.124q-2.73 0-4.48-1.1-1.76-1.09-2.6-2.95-.84-1.86-.84-4.08 0-2.07.63-3.6.63-1.53 1.7-2.54 1.06-1 2.35-1.5 1.29-.49 2.64-.49 2.01 0 3.45.85 1.44.86 2.22 2.61.78 1.76.78 4.43v.81h-11.43q.24 2.67 1.73 4.03 1.48 1.37 4.21 1.37 1.53 0 2.55-.24 1.02-.24 1.47-.45l.33 1.98q-.36.27-1.69.57-1.34.3-3.02.3m-5.49-9.63h8.85q0-1.47-.52-2.49-.53-1.02-1.43-1.58-.9-.55-2.07-.55-1.35 0-2.38.67-1.04.68-1.67 1.74-.63 1.07-.78 2.21"/>
    <rect width="13.77" height="16.26" x="-6.88" y="-8.13" fill="none" rx="0" ry="0" transform="translate(576.42 125.5)"/>
  </svg>
</svg>