<svg xmlns="http://www.w3.org/2000/svg" version="1.1" xmlns:xlink="http://www.w3.org/1999/xlink" width="2000" height="184" viewBox="0 0 2000 184"><svg xml:space="preserve" width="2000" height="184" data-version="2" data-id="lg_qXGbZ05cNB2got1IA0" viewBox="0 0 774 184" x="0" y="0"><rect width="100%" height="100%" fill="transparent"></rect><path fill="#000000" d="M85.185 1.904C43.661 4.84 10.488 38.014 7.552 79.538c-.23 3.24 2.328 5.999 5.577 5.999h72.467a5.59 5.59 0 0 0 5.59-5.591V7.481c0-3.249-2.758-5.805-5.999-5.577Zm102.781 78.123c-2.936-41.524-36.11-74.697-77.634-77.633-3.24-.23-5.999 2.328-5.999 5.577v72.467a5.59 5.59 0 0 0 5.591 5.59h72.465c3.249 0 5.805-2.758 5.577-5.999Zm-7.909 17.023c-41.525 2.936-74.698 36.11-77.634 77.633-.23 3.241 2.328 6 5.577 6h72.467a5.59 5.59 0 0 0 5.59-5.591v-72.465c0-3.249-2.758-5.805-5.999-5.577ZM7.552 104.463c2.936 41.524 36.11 74.697 77.633 77.633 3.241.23 6-2.328 6-5.577v-72.467a5.59 5.59 0 0 0-5.591-5.59H13.129c-3.249 0-5.805 2.758-5.577 5.999Zm213.306-28.059v-42.97h4.84v38.81h20.33v4.16Z"></path><rect width="25.17" height="42.97" x="-12.59" y="-21.48" fill="none" rx="0" ry="0" transform="translate(233.94 55.42)"></rect><path fill="#000000" d="M266.248 77.334q-4.9 0-7.97-1.9-3.07-1.89-4.5-5.39-1.42-3.5-1.42-8.21v-28.4h4.83v27.71q0 4.59 1.15 7.2 1.15 2.6 3.19 3.68 2.05 1.09 4.65 1.09 2.67 0 4.68-1.05 2.02-1.06 3.17-3.66 1.14-2.61 1.14-7.19v-27.78h4.84v28.4q0 4.71-1.4 8.21-1.39 3.5-4.4 5.39-3 1.9-7.96 1.9"></path><rect width="27.65" height="43.9" x="-13.82" y="-21.95" fill="none" rx="0" ry="0" transform="translate(266.68 55.88)"></rect><path fill="#000000" d="M285.958 76.404q.19-5.34.5-10.79.31-5.46.71-10.91.4-5.46.93-10.82.53-5.37 1.21-10.45h4.77q1.24 4.03 2.39 7.66 1.15 3.62 2.29 7.16 1.15 3.53 2.27 7.25 1.11-3.66 2.2-7.19 1.08-3.53 2.23-7.19 1.15-3.66 2.39-7.69h4.83q1 6.45 1.55 13.42.56 6.98.9 14.36.34 7.37.72 15.19h-4.84q-.19-4.84-.34-11.01-.16-6.17-.34-12.8-.19-6.64-.5-12.84l-6.51 20.03h-4.59l-6.82-20.03q-.06 6.14-.31 12.78-.24 6.63-.46 12.83-.22 6.2-.34 11.04Z"></path><rect width="29.89" height="42.97" x="-14.95" y="-21.48" fill="none" rx="0" ry="0" transform="translate(301.4 55.42)"></rect><path fill="#000000" d="M325.208 76.404v-4.16h8v-34.66h-8v-4.15h20.83v4.15h-8v34.66h8v4.16Z"></path><rect width="20.83" height="42.97" x="-10.41" y="-21.48" fill="none" rx="0" ry="0" transform="translate(336.12 55.42)"></rect><path fill="#000000" d="M357.008 76.404v-42.97h5.52q2.54 4.65 4.37 8.15 1.83 3.51 3.32 6.45 1.49 2.95 2.85 5.89 1.37 2.95 2.82 6.42 1.46 3.47 3.32 8.12v-35.03h4.46v42.97h-5.51q-2.61-6.45-4.84-11.51-2.23-5.05-4.22-9.23-1.98-4.19-3.87-7.88-1.89-3.69-3.75-7.41v36.03Z"></path><rect width="26.66" height="42.97" x="-13.33" y="-21.48" fill="none" rx="0" ry="0" transform="translate(370.84 55.42)"></rect><path fill="#000000" d="M388.318 76.404q1.12-4.03 2.55-9.24 1.42-5.21 3.16-11.01 1.73-5.79 3.72-11.62 1.98-5.83 4.21-11.1h6.45q2.17 5.27 4.09 11.1 1.93 5.83 3.63 11.59 1.71 5.77 3.13 10.98 1.43 5.2 2.54 9.3h-5.14l-2.73-11.6h-18.04l-2.67 11.6Zm8.87-15.69h15.5q-1.24-4.46-2.6-8.84-1.37-4.37-2.7-8.12-1.33-3.75-2.39-6.35-1.05 2.73-2.39 6.51-1.33 3.78-2.72 8.09-1.4 4.31-2.7 8.71"></path><rect width="33.48" height="42.97" x="-16.74" y="-21.48" fill="none" rx="0" ry="0" transform="translate(405.56 55.42)"></rect><path fill="#000000" d="M473.448 77.334q-2.98 0-5.43-.53-2.44-.53-4.18-1.24-1.74-.71-2.54-1.21l1.55-4.03q1.18.68 3.93 1.7 2.76 1.03 6.67 1.03 2.91 0 5.02-.75 2.11-.74 3.29-2.29 1.18-1.55 1.18-3.97 0-2.97-1.49-4.8-1.49-1.83-3.82-3.07-2.32-1.24-4.86-2.23-2.11-.87-4-1.96-1.89-1.08-3.32-2.45-1.42-1.36-2.23-3.19-.81-1.83-.81-4.18 0-5.52 3.44-8.62 3.45-3.1 9.65-3.1 3.47 0 6.47.77 3.01.78 4.31 1.83l-1.61 4.22q-1.36-.81-3.87-1.68-2.51-.86-5.49-.86-2.05 0-3.88.74-1.82.74-3 2.2-1.18 1.46-1.18 3.63 0 2.6 1.12 4.21 1.11 1.62 3.13 2.73 2.01 1.12 4.55 2.3 2.79 1.17 4.96 2.35 2.17 1.18 3.66 2.64 1.49 1.45 2.26 3.47.78 2.01.78 4.87 0 5.45-3.75 8.46-3.75 3.01-10.51 3.01"></path><rect width="26.41" height="44.89" x="-13.21" y="-22.45" fill="none" rx="0" ry="0" transform="translate(475 55.39)"></rect><path fill="#000000" d="M509.218 77.334q-4.46 0-7.9-2.36-3.44-2.36-5.43-7.32-1.98-4.96-1.98-12.77t1.95-12.77q1.96-4.96 5.4-7.32 3.44-2.35 7.96-2.35 4.47 0 7.94 2.35 3.47 2.36 5.49 7.32 2.01 4.96 2.01 12.77t-1.98 12.77q-1.99 4.96-5.49 7.32-3.5 2.36-7.97 2.36m-.18-4.22q3.35 0 5.73-2.05 2.39-2.04 3.66-6.1t1.27-10.08q0-6.07-1.27-10.14-1.27-4.06-3.66-6.07-2.38-2.02-5.73-2.02-3.23 0-5.49 2.02-2.26 2.01-3.44 6.04-1.18 4.03-1.18 10.17 0 6.02 1.18 10.08 1.18 4.06 3.44 6.1 2.26 2.05 5.49 2.05"></path><rect width="30.75" height="44.89" x="-15.38" y="-22.45" fill="none" rx="0" ry="0" transform="translate(509.78 55.39)"></rect><path fill="#000000" d="M533.338 76.404v-42.97h4.84v38.81h20.33v4.16Z"></path><rect width="25.17" height="42.97" x="-12.59" y="-21.48" fill="none" rx="0" ry="0" transform="translate(546.42 55.42)"></rect><path fill="#000000" d="M578.728 77.334q-4.9 0-7.97-1.9-3.07-1.89-4.5-5.39-1.42-3.5-1.42-8.21v-28.4h4.83v27.71q0 4.59 1.15 7.2 1.15 2.6 3.19 3.68 2.05 1.09 4.65 1.09 2.67 0 4.68-1.05 2.02-1.06 3.17-3.66 1.14-2.61 1.14-7.19v-27.78h4.84v28.4q0 4.71-1.4 8.21-1.39 3.5-4.4 5.39-3 1.9-7.96 1.9"></path><rect width="27.65" height="43.9" x="-13.82" y="-21.95" fill="none" rx="0" ry="0" transform="translate(579.16 55.88)"></rect><path fill="#000000" d="M610.968 76.404v-38.82h-11.91v-4.15h28.65v4.15h-11.91v38.82Z"></path><rect width="28.65" height="42.97" x="-14.32" y="-21.48" fill="none" rx="0" ry="0" transform="translate(613.88 55.42)"></rect><path fill="#000000" d="M637.688 76.404v-4.16h8v-34.66h-8v-4.15h20.83v4.15h-8v34.66h8v4.16Z"></path><rect width="20.83" height="42.97" x="-10.41" y="-21.48" fill="none" rx="0" ry="0" transform="translate(648.6 55.42)"></rect><path fill="#000000" d="M682.818 77.334q-4.46 0-7.9-2.36-3.44-2.36-5.43-7.32-1.98-4.96-1.98-12.77t1.95-12.77q1.96-4.96 5.4-7.32 3.44-2.35 7.96-2.35 4.47 0 7.94 2.35 3.47 2.36 5.49 7.32 2.01 4.96 2.01 12.77t-1.98 12.77q-1.99 4.96-5.49 7.32-3.5 2.36-7.97 2.36m-.18-4.22q3.35 0 5.73-2.05 2.39-2.04 3.66-6.1t1.27-10.08q0-6.07-1.27-10.14-1.27-4.06-3.66-6.07-2.38-2.02-5.73-2.02-3.23 0-5.49 2.02-2.26 2.01-3.44 6.04-1.18 4.03-1.18 10.17 0 6.02 1.18 10.08 1.18 4.06 3.44 6.1 2.26 2.05 5.49 2.05"></path><rect width="30.75" height="44.89" x="-15.38" y="-22.45" fill="none" rx="0" ry="0" transform="translate(683.38 55.39)"></rect><path fill="#000000" d="M704.208 76.404v-42.97h5.52q2.54 4.65 4.37 8.15 1.83 3.51 3.32 6.45 1.49 2.95 2.85 5.89 1.37 2.95 2.82 6.42 1.46 3.47 3.32 8.12v-35.03h4.46v42.97h-5.51q-2.61-6.45-4.84-11.51-2.23-5.05-4.22-9.23-1.98-4.19-3.87-7.88-1.89-3.69-3.75-7.41v36.03Z"></path><rect width="26.66" height="42.97" x="-13.33" y="-21.48" fill="none" rx="0" ry="0" transform="translate(718.04 55.42)"></rect><path fill="#000000" d="M751.208 77.334q-2.98 0-5.43-.53-2.44-.53-4.18-1.24-1.74-.71-2.54-1.21l1.55-4.03q1.18.68 3.93 1.7 2.76 1.03 6.67 1.03 2.91 0 5.02-.75 2.11-.74 3.29-2.29 1.18-1.55 1.18-3.97 0-2.97-1.49-4.8-1.49-1.83-3.82-3.07-2.32-1.24-4.86-2.23-2.11-.87-4-1.96-1.89-1.08-3.32-2.45-1.42-1.36-2.23-3.19-.81-1.83-.81-4.18 0-5.52 3.44-8.62 3.45-3.1 9.65-3.1 3.47 0 6.47.77 3.01.78 4.31 1.83l-1.61 4.22q-1.36-.81-3.87-1.68-2.51-.86-5.49-.86-2.05 0-3.88.74-1.82.74-3 2.2-1.18 1.46-1.18 3.63 0 2.6 1.12 4.21 1.11 1.62 3.13 2.73 2.01 1.12 4.55 2.3 2.79 1.17 4.96 2.35 2.17 1.18 3.66 2.64 1.49 1.45 2.26 3.47.78 2.01.78 4.87 0 5.45-3.75 8.46-3.75 3.01-10.51 3.01"></path><rect width="26.41" height="44.89" x="-13.21" y="-22.45" fill="none" rx="0" ry="0" transform="translate(752.76 55.39)"></rect><path fill="#000000" d="M229.078 139.814q-3.03 0-5.38-1.39-2.35-1.38-3.69-3.94-1.35-2.57-1.35-6.09 0-3.32 1.18-5.86 1.17-2.54 3.32-4.01 2.14-1.47 5.04-1.47 1.89 0 3.25.46 1.37.46 2 .92v-11.13l3.27-.59v31.97q-.75.21-1.85.48-1.09.27-2.52.46-1.42.19-3.27.19m-.04-3.07q1.68 0 2.83-.14 1.16-.15 1.58-.32v-14.36q-.68-.67-2.06-1.28-1.39-.61-2.9-.61-2.27 0-3.68 1.13-1.4 1.14-2.05 3.05-.65 1.91-.65 4.26 0 4.07 1.99 6.17 2 2.1 4.94 2.1"></path><rect width="18.06" height="33.1" x="-9.03" y="-16.55" fill="none" rx="0" ry="0" transform="translate(228.19 123.76)"></rect><path fill="#000000" d="M253.228 139.814q-3.82 0-6.28-1.53-2.46-1.54-3.63-4.14-1.18-2.6-1.18-5.71 0-2.9.88-5.04t2.37-3.55q1.5-1.41 3.3-2.1 1.81-.69 3.7-.69 2.81 0 4.83 1.19 2.01 1.2 3.11 3.66 1.09 2.45 1.09 6.19v1.14h-16q.33 3.73 2.41 5.65 2.08 1.91 5.9 1.91 2.14 0 3.57-.34 1.43-.34 2.06-.63l.46 2.77q-.5.38-2.37.8-1.87.42-4.22.42m-7.69-13.48h12.39q0-2.06-.73-3.49-.74-1.43-2-2.2-1.26-.78-2.9-.78-1.89 0-3.34.95-1.44.94-2.33 2.43-.88 1.49-1.09 3.09"></path><rect width="19.28" height="22.76" x="-9.64" y="-11.38" fill="none" rx="0" ry="0" transform="translate(252.28 128.93)"></rect><path fill="#000000" d="M274.518 139.814q-1.34 0-2.62-.13-1.28-.12-2.5-.44-1.22-.31-2.48-.86l.71-3.11q1.64.8 3.47 1.26 1.83.47 3.93.47 2.77 0 4.15-.74 1.39-.73 1.39-2.29 0-1.13-.86-1.91t-2.23-1.36q-1.36-.59-2.92-1.1-1.3-.46-2.6-1.02-1.3-.57-2.35-1.31-1.05-.73-1.68-1.78-.63-1.05-.63-2.48 0-1.72.94-3.07.95-1.34 2.88-2.12 1.93-.77 4.87-.77 1.72 0 3.61.25t3.2.59l-.59 3.06q-.51-.33-1.54-.56-1.02-.24-2.24-.38-1.22-.15-2.4-.15-2.68 0-4.09.71-1.41.72-1.41 2.4 0 .88.72 1.53.71.65 1.89 1.14 1.17.48 2.56.98 1.43.55 2.87 1.16 1.45.61 2.67 1.4 1.22.8 1.95 1.92.74 1.11.74 2.62 0 2.02-1.03 3.38-1.03 1.37-3.11 2.04-2.08.67-5.27.67"></path><rect width="17.01" height="22.76" x="-8.51" y="-11.38" fill="none" rx="0" ry="0" transform="translate(275.92 128.93)"></rect><path fill="#000000" d="M303.208 139.814q-2.69 0-4.18-.97-1.49-.96-2.08-2.87-.59-1.91-.59-4.85v-10.76h-6.42v-2.81h9.61v13.36q0 2.39.44 3.67.45 1.28 1.31 1.74.86.47 2.03.47 1.52 0 2.67-.38 1.16-.38 1.62-.63l.46 2.85q-.08.09-.78.38-.69.3-1.76.55-1.07.25-2.33.25m-6.18-26.25q-1.17 0-2.01-.82-.84-.82-.84-2.16 0-1.39.84-2.19.84-.79 2.01-.79 1.22 0 2.02.79.8.8.8 2.19 0 1.34-.8 2.16-.8.82-2.02.82"></path><rect width="18.14" height="32.21" x="-9.07" y="-16.11" fill="none" rx="0" ry="0" transform="translate(299.5 124.2)"></rect><path fill="#000000" d="M320.638 147.204q-2.06 0-3.76-.31-1.7-.32-2.84-.74l.55-2.94q1.22.51 2.79.8 1.58.29 3.34.29 2.31 0 3.8-.6 1.49-.61 2.21-1.98.71-1.36.71-3.59v-.71q-.5.29-1.99.79-1.49.51-3.47.51-2.43 0-4.58-1.11-2.14-1.12-3.44-3.49-1.3-2.37-1.3-6.07 0-3.02 1.13-5.52 1.14-2.5 3.34-3.99 2.21-1.49 5.36-1.49 3.02 0 5.08.42t3.15.75v19.7q0 4.96-2.54 7.12t-7.54 2.16m1.43-11.55q1.59 0 3.06-.46t2.31-1.09v-13.4q-.54-.21-1.7-.4-1.15-.19-3.13-.19-2.06 0-3.53 1.01-1.47 1.01-2.22 2.81-.76 1.81-.76 4.16 0 2.69.88 4.37.89 1.68 2.25 2.44 1.37.75 2.84.75"></path><rect width="18.06" height="30.15" x="-9.03" y="-15.07" fill="none" rx="0" ry="0" transform="translate(322.19 132.63)"></rect><path fill="#000000" d="M337.688 139.314v-21.17q2.23-.59 4.28-.82 2.06-.23 3.62-.23 2.73 0 4.7.9 1.97.9 3.04 2.94 1.08 2.04 1.08 5.48v12.9h-3.28v-12.23q0-3.02-.76-4.51-.75-1.49-2.03-2-1.28-.5-2.88-.5-1.05 0-2.23.13-1.17.12-2.26.33v18.78Z"></path><rect width="16.72" height="22.22" x="-8.36" y="-11.11" fill="none" rx="0" ry="0" transform="translate(346.55 128.7)"></rect><path fill="#000000" d="M385.778 139.314q-.88-4.2-1.58-8.13-.69-3.93-1.17-7.39-.48-3.47-.78-6.24h3.32q.13 1.81.31 3.51.19 1.7.45 3.59.25 1.89.6 4.22.36 2.33.78 5.44.8-1.89 1.35-3.3.54-1.41.98-2.62.44-1.22.86-2.54.42-1.33.97-3.09h2.48q.54 1.76.96 3.09.42 1.32.82 2.52.4 1.19.93 2.58.52 1.38 1.24 3.23.58-3.65 1.05-6.47.46-2.81.79-5.27.34-2.45.55-4.89h3.07q-.26 2.73-.78 6.36-.53 3.64-1.22 7.61-.69 3.96-1.57 7.79h-2.52q-.76-1.68-1.31-3.05-.54-1.36-1.05-2.67-.5-1.3-1.05-2.81-.54-1.51-1.26-3.49-.67 1.98-1.21 3.49-.55 1.51-1.08 2.84-.52 1.32-1.11 2.68-.59 1.37-1.34 3.01Z"></path><rect width="21.51" height="21.76" x="-10.76" y="-10.88" fill="none" rx="0" ry="0" transform="translate(393.5 128.93)"></rect><path fill="#000000" d="M420.808 139.814q-2.69 0-4.18-.97-1.49-.96-2.08-2.87-.59-1.91-.59-4.85v-10.76h-6.42v-2.81h9.61v13.36q0 2.39.44 3.67.45 1.28 1.31 1.74.86.47 2.03.47 1.52 0 2.67-.38 1.16-.38 1.62-.63l.46 2.85q-.08.09-.78.38-.69.3-1.76.55-1.07.25-2.33.25m-6.18-26.25q-1.17 0-2.01-.82-.84-.82-.84-2.16 0-1.39.84-2.19.84-.79 2.01-.79 1.22 0 2.02.79.8.8.8 2.19 0 1.34-.8 2.16-.8.82-2.02.82"></path><rect width="18.14" height="32.21" x="-9.07" y="-16.11" fill="none" rx="0" ry="0" transform="translate(417.1 124.2)"></rect><path fill="#000000" d="M443.948 139.814q-3.4 0-5.08-1.11-1.68-1.12-2.23-3.13-.54-2.02-.54-4.71v-10.5h-4.46v-2.81h4.46v-6.26l3.27-.59v6.85h9.24v2.81h-9.24v10.55q0 2.31.46 3.59.47 1.28 1.54 1.78 1.07.51 2.87.51 1.68 0 2.67-.32.99-.31 1.74-.65l.51 2.77q-.34.17-1.68.7-1.35.52-3.53.52"></path><rect width="17.52" height="29.11" x="-8.76" y="-14.55" fill="none" rx="0" ry="0" transform="translate(440.9 125.76)"></rect><path fill="#000000" d="M455.288 139.314v-32.01l3.28-.59v11.22q1.09-.42 2.31-.63 1.21-.21 2.43-.21 3.36 0 5.25 1.24 1.89 1.24 2.67 3.48.78 2.25.78 5.23v12.27h-3.28v-11.39q0-2.94-.53-4.64-.52-1.7-1.76-2.45-1.24-.76-3.42-.76-1.3 0-2.61.29-1.3.3-1.84.51v18.44Z"></path><rect width="16.72" height="32.6" x="-8.36" y="-16.3" fill="none" rx="0" ry="0" transform="translate(464.15 123.51)"></rect><path fill="#000000" d="M502.328 147.084v-28.86q.8-.21 1.89-.48 1.09-.27 2.54-.46t3.21-.19q3.07 0 5.4 1.36 2.33 1.37 3.65 3.93 1.33 2.56 1.33 6.09 0 3.28-1.16 5.84-1.15 2.56-3.29 4.03-2.15 1.47-5.09 1.47-1.93 0-3.29-.46-1.37-.46-1.91-.97v8.7Zm8.23-10.34q2.27 0 3.68-1.11 1.4-1.11 2.05-3 .66-1.89.66-4.2 0-4.08-1.98-6.22-1.97-2.14-4.95-2.14-1.89 0-2.9.17t-1.51.38v14.28q.71.67 2.12 1.26 1.4.58 2.83.58"></path><rect width="18.02" height="29.99" x="-9.01" y="-14.99" fill="none" rx="0" ry="0" transform="translate(511.84 132.59)"></rect><path fill="#000000" d="M534.288 139.774q-3.15 0-5.04-1.26-1.89-1.26-2.73-3.51-.84-2.25-.84-5.14v-12.31h3.28v11.38q0 2.86.59 4.6.58 1.74 1.84 2.5 1.26.76 3.28.76 1.47 0 2.81-.17 1.35-.17 1.64-.3v-18.77h3.28v21.17q-1.18.29-3.22.67-2.03.38-4.89.38"></path><rect width="16.72" height="22.22" x="-8.36" y="-11.11" fill="none" rx="0" ry="0" transform="translate(534.54 129.16)"></rect><path fill="#000000" d="M551.178 139.314v-20.67q2.39-.75 4.8-1.17 2.42-.42 4.69-.42 1.09 0 1.93.04.84.04 1.68.17.84.12 1.93.33l-.59 2.82q-1.05-.3-1.82-.42-.78-.13-1.52-.15-.73-.02-1.7-.02-1.55 0-3.08.21-1.54.21-3.05.67v18.61Z"></path><rect width="15.03" height="22.26" x="-7.51" y="-11.13" fill="none" rx="0" ry="0" transform="translate(559.2 128.68)"></rect><path fill="#000000" d="M572.888 147.084v-28.86q.8-.21 1.89-.48 1.09-.27 2.54-.46t3.21-.19q3.07 0 5.4 1.36 2.33 1.37 3.65 3.93 1.33 2.56 1.33 6.09 0 3.28-1.16 5.84-1.15 2.56-3.29 4.03-2.15 1.47-5.09 1.47-1.93 0-3.29-.46-1.37-.46-1.91-.97v8.7Zm8.23-10.34q2.27 0 3.68-1.11 1.4-1.11 2.05-3 .66-1.89.66-4.2 0-4.08-1.98-6.22-1.97-2.14-4.95-2.14-1.89 0-2.9.17t-1.51.38v14.28q.71.67 2.12 1.26 1.4.58 2.83.58"></path><rect width="18.02" height="29.99" x="-9.01" y="-14.99" fill="none" rx="0" ry="0" transform="translate(582.4 132.59)"></rect><path fill="#000000" d="M604.598 139.774q-2.77 0-4.94-1.41-2.16-1.41-3.42-3.95-1.26-2.54-1.26-5.98 0-3.45 1.24-5.99t3.42-3.97q2.19-1.42 4.96-1.42 2.86 0 5.06 1.42 2.21 1.43 3.47 3.97 1.26 2.54 1.26 5.99 0 3.44-1.26 5.98-1.26 2.54-3.47 3.95-2.2 1.41-5.06 1.41m.04-3.03q1.89 0 3.32-.98 1.43-.99 2.23-2.86.79-1.87.79-4.47 0-2.61-.79-4.5-.8-1.89-2.25-2.89-1.45-1.01-3.34-1.01-1.85 0-3.26 1.01-1.4 1-2.18 2.89-.78 1.89-.78 4.5 0 2.6.8 4.47.8 1.87 2.23 2.86 1.43.98 3.23.98"></path><rect width="19.41" height="22.72" x="-9.71" y="-11.36" fill="none" rx="0" ry="0" transform="translate(605.18 128.91)"></rect><path fill="#000000" d="M627.318 139.814q-1.34 0-2.62-.13-1.28-.12-2.5-.44-1.22-.31-2.48-.86l.71-3.11q1.64.8 3.47 1.26 1.83.47 3.93.47 2.77 0 4.15-.74 1.39-.73 1.39-2.29 0-1.13-.86-1.91t-2.23-1.36q-1.36-.59-2.92-1.1-1.3-.46-2.6-1.02-1.3-.57-2.35-1.31-1.05-.73-1.68-1.78-.63-1.05-.63-2.48 0-1.72.94-3.07.95-1.34 2.88-2.12 1.93-.77 4.87-.77 1.72 0 3.61.25t3.2.59l-.59 3.06q-.51-.33-1.54-.56-1.02-.24-2.24-.38-1.22-.15-2.4-.15-2.68 0-4.09.71-1.41.72-1.41 2.4 0 .88.72 1.53.71.65 1.89 1.14 1.17.48 2.56.98 1.43.55 2.87 1.16 1.45.61 2.67 1.4 1.22.8 1.95 1.92.74 1.11.74 2.62 0 2.02-1.03 3.38-1.03 1.37-3.11 2.04-2.08.67-5.27.67"></path><rect width="17.01" height="22.76" x="-8.51" y="-11.38" fill="none" rx="0" ry="0" transform="translate(628.72 128.93)"></rect><path fill="#000000" d="M653.068 139.814q-3.82 0-6.28-1.53-2.46-1.54-3.63-4.14-1.18-2.6-1.18-5.71 0-2.9.88-5.04t2.37-3.55q1.5-1.41 3.3-2.1 1.81-.69 3.7-.69 2.81 0 4.83 1.19 2.01 1.2 3.11 3.66 1.09 2.45 1.09 6.19v1.14h-16q.33 3.73 2.41 5.65 2.08 1.91 5.9 1.91 2.14 0 3.57-.34 1.43-.34 2.06-.63l.46 2.77q-.5.38-2.37.8-1.87.42-4.22.42m-7.69-13.48h12.39q0-2.06-.73-3.49-.74-1.43-2-2.2-1.26-.78-2.9-.78-1.89 0-3.34.95-1.44.94-2.33 2.43-.88 1.49-1.09 3.09"></path><rect width="19.28" height="22.76" x="-9.64" y="-11.38" fill="none" rx="0" ry="0" transform="translate(652.12 128.93)"></rect></svg></svg>