<?xml version="1.0" encoding="utf-8"?>
<svg xmlns="http://www.w3.org/2000/svg" version="1.1" width="5000" height="500" viewBox="29.051 0 1970.949 868.565">
  <g transform="matrix(2.494503, 0, 0, 2.494503, -1486.681152, 170.807419)" style="">
    <svg width="2000" height="187" data-version="2" data-id="lg_qXGbZ05cNB2got1IA0" viewBox="0 0 785 187" x="0" y="0" transform="matrix(1, 0, 0, 1, 607.5, 0)" style="">
      <rect width="100%" height="100%" fill="transparent"/>
      <path fill="#1d597d" d="M85.93 2.246C43.863 5.22 10.256 38.828 7.282 80.895c-.233 3.282 2.359 6.077 5.65 6.077h73.414a5.664 5.664 0 0 0 5.664-5.664V7.896c0-3.29-2.795-5.881-6.078-5.65ZM190.014 81.39c-2.974-42.067-36.582-75.674-78.649-78.648-3.282-.233-6.077 2.359-6.077 5.65v73.414a5.664 5.664 0 0 0 5.664 5.664h73.412c3.29 0 5.881-2.795 5.65-6.078Zm-8.011 17.208c-42.066 2.974-75.674 36.582-78.648 78.649-.233 3.282 2.359 6.077 5.65 6.077h73.414a5.664 5.664 0 0 0 5.664-5.664v-73.412c0-3.29-2.795-5.881-6.078-5.65ZM7.282 106.105c2.974 42.067 36.581 75.675 78.648 78.649 3.283.233 6.078-2.36 6.078-5.65V105.69a5.664 5.664 0 0 0-5.664-5.664H12.932c-3.291 0-5.881 2.795-5.65 6.078Zm216.039-28.219v-43.66h4.92v39.44h20.66v4.22Z"/>
      <rect width="25.58" height="43.66" x="-12.79" y="-21.83" fill="none" rx="0" ry="0" transform="translate(236.61 56.56)"/>
      <path fill="#1d597d" d="M269.441 78.826q-4.98 0-8.09-1.92-3.12-1.92-4.57-5.48-1.45-3.56-1.45-8.35v-28.85h4.91v28.16q0 4.66 1.17 7.31 1.16 2.64 3.24 3.75 2.08 1.1 4.73 1.1 2.71 0 4.75-1.07 2.05-1.07 3.22-3.72 1.16-2.65 1.16-7.31v-28.22h4.92v28.85q0 4.79-1.42 8.35-1.42 3.56-4.47 5.48-3.06 1.92-8.1 1.92"/>
      <rect width="28.1" height="44.6" x="-14.05" y="-22.3" fill="none" rx="0" ry="0" transform="translate(269.88 57.03)"/>
      <path fill="#1d597d" d="M289.471 77.886q.19-5.42.51-10.96.31-5.55.72-11.09.41-5.55.95-11 .53-5.45 1.23-10.61h4.85q1.26 4.09 2.42 7.78 1.17 3.68 2.33 7.28 1.17 3.59 2.3 7.37l2.24-7.31q1.1-3.59 2.27-7.31 1.16-3.72 2.42-7.81h4.92q1.01 6.55 1.57 13.64.57 7.09.92 14.58.34 7.5.72 15.44h-4.91q-.19-4.92-.35-11.18-.16-6.27-.35-13.01-.19-6.75-.5-13.05l-6.62 20.35h-4.66l-6.93-20.35q-.06 6.24-.31 12.98t-.47 13.04q-.23 6.3-.35 11.22Z"/>
      <rect width="30.37" height="43.66" x="-15.19" y="-21.83" fill="none" rx="0" ry="0" transform="translate(305.16 56.56)"/>
      <path fill="#1d597d" d="M329.351 77.886v-4.22h8.13v-35.22h-8.13v-4.22h21.17v4.22h-8.13v35.22h8.13v4.22Z"/>
      <rect width="21.17" height="43.66" x="-10.59" y="-21.83" fill="none" rx="0" ry="0" transform="translate(340.44 56.56)"/>
      <path fill="#1d597d" d="M361.671 77.886v-43.66h5.61q2.58 4.72 4.44 8.28 1.86 3.56 3.37 6.56 1.51 2.99 2.9 5.98t2.87 6.52q1.48 3.53 3.37 8.25v-35.59h4.53v43.66h-5.6q-2.65-6.55-4.92-11.69-2.27-5.13-4.28-9.39-2.02-4.25-3.94-8t-3.81-7.53v36.61Z"/>
      <rect width="27.09" height="43.66" x="-13.54" y="-21.83" fill="none" rx="0" ry="0" transform="translate(375.72 56.56)"/>
      <path fill="#1d597d" d="M393.491 77.886q1.13-4.1 2.58-9.39 1.45-5.29 3.21-11.18 1.77-5.89 3.78-11.81 2.02-5.93 4.29-11.28h6.55q2.2 5.35 4.16 11.28 1.95 5.92 3.68 11.78 1.74 5.86 3.18 11.15l2.59 9.45h-5.23l-2.77-11.78h-18.34l-2.71 11.78Zm9.01-15.94h15.75q-1.26-4.54-2.65-8.98t-2.74-8.25q-1.35-3.81-2.43-6.46-1.07 2.77-2.42 6.62-1.36 3.84-2.77 8.22-1.42 4.38-2.74 8.85"/>
      <rect width="34.02" height="43.66" x="-17.01" y="-21.83" fill="none" rx="0" ry="0" transform="translate(411 56.56)"/>
      <path fill="#1d597d" d="M479.991 78.826q-3.03 0-5.52-.53-2.48-.54-4.25-1.26-1.76-.73-2.58-1.23l1.57-4.1q1.2.7 4 1.74 2.81 1.04 6.78 1.04 2.96 0 5.1-.76 2.14-.76 3.34-2.33 1.2-1.58 1.2-4.03 0-3.03-1.52-4.89-1.51-1.85-3.87-3.11-2.36-1.26-4.95-2.27-2.14-.88-4.06-1.99-1.92-1.1-3.37-2.49-1.45-1.38-2.27-3.24-.82-1.86-.82-4.25 0-5.61 3.5-8.76 3.5-3.15 9.8-3.15 3.52 0 6.58.79 3.05.79 4.38 1.86l-1.64 4.28q-1.39-.82-3.94-1.7t-5.57-.88q-2.08 0-3.94.75-1.86.76-3.06 2.24-1.19 1.48-1.19 3.69 0 2.64 1.13 4.28 1.13 1.64 3.18 2.77 2.05 1.14 4.63 2.33 2.84 1.2 5.04 2.4 2.21 1.19 3.72 2.67 1.51 1.48 2.3 3.53.79 2.05.79 4.95 0 5.54-3.81 8.6-3.82 3.05-10.68 3.05"/>
      <rect width="26.84" height="45.61" x="-13.42" y="-22.8" fill="none" rx="0" ry="0" transform="translate(481.56 56.52)"/>
      <path fill="#1d597d" d="M516.341 78.826q-4.54 0-8.03-2.39-3.5-2.4-5.52-7.44-2.01-5.04-2.01-12.97 0-7.94 1.98-12.98 1.99-5.04 5.48-7.44 3.5-2.39 8.1-2.39 4.53 0 8.06 2.39 3.53 2.4 5.58 7.44 2.04 5.04 2.04 12.98 0 7.93-2.01 12.97-2.02 5.04-5.58 7.44-3.56 2.39-8.09 2.39m-.19-4.28q3.4 0 5.83-2.08 2.42-2.08 3.71-6.21 1.29-4.12 1.29-10.23 0-6.18-1.29-10.3-1.29-4.13-3.71-6.18-2.43-2.05-5.83-2.05-3.28 0-5.58 2.05-2.3 2.05-3.49 6.14-1.2 4.1-1.2 10.34 0 6.11 1.2 10.23 1.19 4.13 3.49 6.21 2.3 2.08 5.58 2.08"/>
      <rect width="31.24" height="45.61" x="-15.62" y="-22.8" fill="none" rx="0" ry="0" transform="translate(516.9 56.52)"/>
      <path fill="#1d597d" d="M540.841 77.886v-43.66h4.92v39.44h20.66v4.22Z"/>
      <rect width="25.58" height="43.66" x="-12.79" y="-21.83" fill="none" rx="0" ry="0" transform="translate(554.13 56.56)"/>
      <path fill="#1d597d" d="M586.961 78.826q-4.98 0-8.09-1.92-3.12-1.92-4.57-5.48-1.45-3.56-1.45-8.35v-28.85h4.91v28.16q0 4.66 1.17 7.31 1.16 2.64 3.24 3.75 2.08 1.1 4.73 1.1 2.71 0 4.75-1.07 2.05-1.07 3.22-3.72 1.16-2.65 1.16-7.31v-28.22h4.92v28.85q0 4.79-1.42 8.35-1.42 3.56-4.47 5.48-3.06 1.92-8.1 1.92"/>
      <rect width="28.1" height="44.6" x="-14.05" y="-22.3" fill="none" rx="0" ry="0" transform="translate(587.4 57.03)"/>
      <path fill="#1d597d" d="M619.721 77.886v-39.44h-12.1v-4.22h29.11v4.22h-12.1v39.44Z"/>
      <rect width="29.11" height="43.66" x="-14.55" y="-21.83" fill="none" rx="0" ry="0" transform="translate(622.68 56.56)"/>
      <path fill="#1d597d" d="M646.871 77.886v-4.22h8.13v-35.22h-8.13v-4.22h21.17v4.22h-8.13v35.22h8.13v4.22Z"/>
      <rect width="21.17" height="43.66" x="-10.59" y="-21.83" fill="none" rx="0" ry="0" transform="translate(657.96 56.56)"/>
      <path fill="#1d597d" d="M692.741 78.826q-4.54 0-8.03-2.39-3.5-2.4-5.52-7.44-2.01-5.04-2.01-12.97 0-7.94 1.98-12.98 1.99-5.04 5.48-7.44 3.5-2.39 8.1-2.39 4.53 0 8.06 2.39 3.53 2.4 5.58 7.44 2.04 5.04 2.04 12.98 0 7.93-2.01 12.97-2.02 5.04-5.58 7.44-3.56 2.39-8.09 2.39m-.19-4.28q3.4 0 5.83-2.08 2.42-2.08 3.71-6.21 1.29-4.12 1.29-10.23 0-6.18-1.29-10.3-1.29-4.13-3.71-6.18-2.43-2.05-5.83-2.05-3.28 0-5.58 2.05-2.3 2.05-3.49 6.14-1.2 4.1-1.2 10.34 0 6.11 1.2 10.23 1.19 4.13 3.49 6.21 2.3 2.08 5.58 2.08"/>
      <rect width="31.24" height="45.61" x="-15.62" y="-22.8" fill="none" rx="0" ry="0" transform="translate(693.3 56.52)"/>
      <path fill="#1d597d" d="M714.471 77.886v-43.66h5.61q2.58 4.72 4.44 8.28 1.86 3.56 3.37 6.56 1.51 2.99 2.9 5.98t2.87 6.52q1.48 3.53 3.37 8.25v-35.59h4.53v43.66h-5.6q-2.65-6.55-4.92-11.69-2.27-5.13-4.28-9.39-2.02-4.25-3.94-8t-3.81-7.53v36.61Z"/>
      <rect width="27.09" height="43.66" x="-13.54" y="-21.83" fill="none" rx="0" ry="0" transform="translate(728.52 56.56)"/>
      <path fill="#1d597d" d="M762.231 78.826q-3.03 0-5.52-.53-2.48-.54-4.25-1.26-1.76-.73-2.58-1.23l1.57-4.1q1.2.7 4 1.74 2.81 1.04 6.78 1.04 2.96 0 5.1-.76 2.14-.76 3.34-2.33 1.2-1.58 1.2-4.03 0-3.03-1.52-4.89-1.51-1.85-3.87-3.11-2.36-1.26-4.95-2.27-2.14-.88-4.06-1.99-1.92-1.1-3.37-2.49-1.45-1.38-2.27-3.24-.82-1.86-.82-4.25 0-5.61 3.5-8.76 3.5-3.15 9.8-3.15 3.52 0 6.58.79 3.05.79 4.38 1.86l-1.64 4.28q-1.39-.82-3.94-1.7t-5.57-.88q-2.08 0-3.94.75-1.86.76-3.06 2.24-1.19 1.48-1.19 3.69 0 2.64 1.13 4.28 1.13 1.64 3.18 2.77 2.05 1.14 4.63 2.33 2.84 1.2 5.04 2.4 2.21 1.19 3.72 2.67 1.51 1.48 2.3 3.53.79 2.05.79 4.95 0 5.54-3.81 8.6-3.82 3.05-10.68 3.05"/>
      <rect width="26.84" height="45.61" x="-13.42" y="-22.8" fill="none" rx="0" ry="0" transform="translate(763.8 56.52)"/>
      <path fill="#1d597d" d="M231.771 142.336q-3.1 0-5.51-1.42-2.41-1.42-3.78-4.04-1.38-2.62-1.38-6.24 0-3.39 1.21-5.99 1.2-2.61 3.39-4.11 2.2-1.51 5.16-1.51 1.94 0 3.34.48 1.39.47 2.04.94v-11.39l3.35-.6v32.72q-.77.21-1.89.49-1.12.28-2.58.48-1.46.19-3.35.19m-.05-3.14q1.72 0 2.91-.15 1.18-.15 1.61-.32v-14.71q-.69-.69-2.11-1.31-1.42-.62-2.97-.62-2.32 0-3.76 1.16t-2.1 3.12q-.67 1.95-.67 4.36 0 4.17 2.04 6.32 2.04 2.15 5.05 2.15"/>
      <rect width="18.49" height="33.88" x="-9.24" y="-16.94" fill="none" rx="0" ry="0" transform="translate(230.85 125.9)"/>
      <path fill="#1d597d" d="M256.491 142.336q-3.91 0-6.43-1.57-2.51-1.57-3.72-4.23-1.2-2.67-1.2-5.85 0-2.97.9-5.16.91-2.2 2.43-3.64 1.53-1.44 3.38-2.15 1.85-.71 3.78-.71 2.88 0 4.95 1.23 2.06 1.23 3.18 3.74 1.12 2.52 1.12 6.34v1.16h-16.39q.35 3.83 2.48 5.79 2.12 1.95 6.04 1.95 2.19 0 3.65-.34t2.11-.64l.47 2.83q-.51.39-2.43.82-1.91.43-4.32.43m-7.87-13.8h12.69q0-2.11-.75-3.57-.76-1.46-2.05-2.26-1.29-.79-2.96-.79-1.94 0-3.42.96-1.49.97-2.39 2.5-.9 1.52-1.12 3.16"/>
      <rect width="19.74" height="23.31" x="-9.87" y="-11.65" fill="none" rx="0" ry="0" transform="translate(255.51 131.18)"/>
      <path fill="#1d597d" d="M278.291 142.336q-1.37 0-2.68-.13-1.32-.13-2.56-.45-1.25-.32-2.54-.88l.73-3.18q1.68.81 3.55 1.29 1.87.47 4.02.47 2.84 0 4.26-.75 1.41-.76 1.41-2.35 0-1.16-.88-1.95-.88-.8-2.28-1.4-1.39-.6-2.98-1.12-1.34-.47-2.67-1.05-1.33-.58-2.41-1.33-1.07-.76-1.72-1.83-.64-1.08-.64-2.54 0-1.76.96-3.14.97-1.37 2.95-2.17 1.98-.8 4.99-.8 1.76 0 3.7.26 1.93.26 3.26.6l-.6 3.14q-.51-.34-1.57-.58-1.05-.23-2.3-.38-1.25-.15-2.45-.15-2.75 0-4.19.73-1.44.73-1.44 2.45 0 .9.73 1.57.73.66 1.93 1.16 1.21.49 2.63 1.01 1.46.56 2.94 1.18 1.49.62 2.73 1.44 1.25.82 2 1.96.75 1.14.75 2.69 0 2.06-1.05 3.46-1.05 1.39-3.18 2.08-2.13.69-5.4.69"/>
      <rect width="17.41" height="23.31" x="-8.71" y="-11.65" fill="none" rx="0" ry="0" transform="translate(279.72 131.18)"/>
      <path fill="#1d597d" d="M307.661 142.336q-2.75 0-4.28-.99-1.52-.99-2.13-2.94-.6-1.96-.6-4.97v-11.01h-6.58v-2.88h9.85v13.67q0 2.46.45 3.77t1.34 1.78q.88.47 2.08.47 1.55 0 2.73-.38 1.18-.39 1.66-.65l.47 2.93q-.09.08-.8.38-.71.3-1.8.56-1.1.26-2.39.26m-6.32-26.87q-1.2 0-2.06-.84-.86-.84-.86-2.22 0-1.42.86-2.23.86-.82 2.06-.82 1.25 0 2.06.82.82.81.82 2.23 0 1.38-.82 2.22-.81.84-2.06.84"/>
      <rect width="18.58" height="32.98" x="-9.29" y="-16.49" fill="none" rx="0" ry="0" transform="translate(303.86 126.35)"/>
      <path fill="#1d597d" d="M325.511 149.906q-2.11 0-3.85-.32-1.74-.33-2.9-.76l.55-3.01q1.25.52 2.86.82 1.62.3 3.42.3 2.37 0 3.89-.62 1.53-.63 2.26-2.02.73-1.4.73-3.68v-.73q-.51.3-2.04.82-1.53.51-3.55.51-2.49 0-4.68-1.14-2.2-1.14-3.53-3.57-1.33-2.43-1.33-6.21 0-3.1 1.16-5.65 1.16-2.56 3.42-4.09 2.25-1.53 5.48-1.53 3.09 0 5.2.43 2.11.43 3.23.78v20.17q0 5.07-2.6 7.28-2.61 2.22-7.72 2.22m1.46-11.83q1.63 0 3.14-.47 1.5-.47 2.36-1.12v-13.71q-.56-.22-1.74-.41-1.18-.2-3.2-.2-2.11 0-3.61 1.04-1.51 1.03-2.28 2.88-.78 1.85-.78 4.25 0 2.76.91 4.48.9 1.72 2.3 2.49 1.39.77 2.9.77"/>
      <rect width="18.49" height="30.88" x="-9.24" y="-15.44" fill="none" rx="0" ry="0" transform="translate(327.09 134.97)"/>
      <path fill="#1d597d" d="M342.961 141.816v-21.67q2.28-.6 4.39-.84 2.11-.23 3.7-.23 2.79 0 4.81.92 2.03.93 3.12 3.01 1.1 2.09 1.1 5.61v13.2h-3.36v-12.51q0-3.09-.77-4.62-.77-1.53-2.08-2.04-1.32-.52-2.95-.52-1.08 0-2.28.13-1.2.13-2.32.34v19.22Z"/>
      <rect width="17.12" height="22.74" x="-8.56" y="-11.37" fill="none" rx="0" ry="0" transform="translate(352.02 130.95)"/>
      <path fill="#1d597d" d="M392.201 141.816q-.9-4.3-1.61-8.32-.71-4.02-1.21-7.56-.49-3.55-.79-6.39h3.39q.13 1.85.33 3.59.19 1.74.45 3.68.26 1.93.62 4.32.37 2.39.8 5.57.81-1.94 1.37-3.38t1.01-2.69q.46-1.24.89-2.6.43-1.35.98-3.16h2.54q.56 1.81.99 3.16.43 1.36.84 2.58.41 1.23.95 2.65.53 1.42 1.26 3.31l1.08-6.62q.47-2.88.82-5.4.34-2.52.55-5.01h3.14q-.25 2.8-.79 6.52-.54 3.71-1.25 7.78-.71 4.06-1.61 7.97h-2.58q-.78-1.72-1.33-3.11-.56-1.4-1.08-2.73-.52-1.34-1.07-2.88l-1.29-3.57q-.69 2.02-1.25 3.57-.56 1.54-1.1 2.9-.54 1.35-1.14 2.75-.6 1.4-1.37 3.07Z"/>
      <rect width="22.01" height="22.27" x="-11.01" y="-11.13" fill="none" rx="0" ry="0" transform="translate(400.1 131.18)"/>
      <path fill="#1d597d" d="M428.061 142.336q-2.75 0-4.28-.99-1.52-.99-2.13-2.94-.6-1.96-.6-4.97v-11.01h-6.58v-2.88h9.85v13.67q0 2.46.45 3.77t1.34 1.78q.88.47 2.08.47 1.55 0 2.73-.38 1.18-.39 1.66-.65l.47 2.93q-.09.08-.8.38-.71.3-1.8.56-1.1.26-2.39.26m-6.32-26.87q-1.2 0-2.06-.84-.86-.84-.86-2.22 0-1.42.86-2.23.86-.82 2.06-.82 1.25 0 2.06.82.82.81.82 2.23 0 1.38-.82 2.22-.81.84-2.06.84"/>
      <rect width="18.58" height="32.98" x="-9.29" y="-16.49" fill="none" rx="0" ry="0" transform="translate(424.26 126.35)"/>
      <path fill="#1d597d" d="M451.751 142.336q-3.48 0-5.2-1.14-1.72-1.14-2.28-3.2-.56-2.07-.56-4.82v-10.75h-4.55v-2.88h4.55v-6.41l3.36-.6v7.01h9.46v2.88h-9.46v10.79q0 2.37.47 3.68t1.57 1.83q1.1.51 2.95.51 1.72 0 2.73-.32t1.78-.66l.52 2.83q-.35.18-1.72.71-1.38.54-3.62.54"/>
      <rect width="17.93" height="29.8" x="-8.96" y="-14.9" fill="none" rx="0" ry="0" transform="translate(448.63 127.94)"/>
      <path fill="#1d597d" d="M463.361 141.816v-32.76l3.36-.6v11.48q1.12-.43 2.36-.65 1.25-.21 2.5-.21 3.44 0 5.37 1.27 1.94 1.26 2.73 3.57.8 2.3.8 5.35v12.55h-3.36v-11.65q0-3.01-.53-4.75-.54-1.74-1.81-2.52-1.27-.77-3.5-.77-1.34 0-2.67.3-1.33.3-1.89.52v18.87Z"/>
      <rect width="17.12" height="33.36" x="-8.56" y="-16.68" fill="none" rx="0" ry="0" transform="translate(472.42 125.64)"/>
      <path fill="#1d597d" d="M511.521 149.776v-29.54q.82-.22 1.94-.5t2.6-.47q1.48-.19 3.29-.19 3.14 0 5.53 1.4 2.38 1.39 3.74 4.02 1.35 2.62 1.35 6.23 0 3.35-1.18 5.98-1.18 2.62-3.38 4.13-2.19 1.5-5.2 1.5-1.98 0-3.37-.47-1.4-.48-1.96-.99v8.9Zm8.43-10.58q2.32 0 3.77-1.14 1.44-1.14 2.1-3.07.67-1.94.67-4.3 0-4.17-2.02-6.37-2.02-2.19-5.08-2.19-1.93 0-2.96.17-1.04.17-1.55.39v14.62q.73.69 2.17 1.29 1.44.6 2.9.6"/>
      <rect width="18.45" height="30.7" x="-9.22" y="-15.35" fill="none" rx="0" ry="0" transform="translate(521.25 134.93)"/>
      <path fill="#1d597d" d="M544.251 142.296q-3.23 0-5.16-1.29-1.94-1.29-2.8-3.59-.86-2.3-.86-5.27v-12.6h3.36v11.65q0 2.93.6 4.71.6 1.79 1.89 2.56t3.35.77q1.51 0 2.89-.17 1.37-.17 1.67-.3v-19.22h3.36v21.67q-1.21.3-3.29.69-2.09.39-5.01.39"/>
      <rect width="17.12" height="22.75" x="-8.56" y="-11.38" fill="none" rx="0" ry="0" transform="translate(544.5 131.42)"/>
      <path fill="#1d597d" d="M561.531 141.816v-21.15q2.45-.78 4.93-1.21 2.47-.43 4.79-.43 1.12 0 1.98.05.86.04 1.72.17t1.98.34l-.6 2.88q-1.08-.3-1.87-.43-.8-.12-1.55-.15-.76-.02-1.74-.02-1.6 0-3.16.22-1.57.21-3.12.69v19.04Z"/>
      <rect width="15.4" height="22.79" x="-7.7" y="-11.39" fill="none" rx="0" ry="0" transform="translate(569.73 130.92)"/>
      <path fill="#1d597d" d="M583.761 149.776v-29.54q.82-.22 1.94-.5t2.6-.47q1.48-.19 3.29-.19 3.14 0 5.53 1.4 2.38 1.39 3.74 4.02 1.35 2.62 1.35 6.23 0 3.35-1.18 5.98-1.18 2.62-3.38 4.13-2.19 1.5-5.2 1.5-1.98 0-3.37-.47-1.4-.48-1.96-.99v8.9Zm8.43-10.58q2.32 0 3.77-1.14 1.44-1.14 2.1-3.07.67-1.94.67-4.3 0-4.17-2.02-6.37-2.02-2.19-5.08-2.19-1.93 0-2.96.17-1.04.17-1.55.39v14.62q.73.69 2.17 1.29 1.44.6 2.9.6"/>
      <rect width="18.45" height="30.7" x="-9.22" y="-15.35" fill="none" rx="0" ry="0" transform="translate(593.49 134.93)"/>
      <path fill="#1d597d" d="M616.231 142.296q-2.84 0-5.05-1.44-2.22-1.44-3.51-4.04-1.29-2.61-1.29-6.13 0-3.53 1.27-6.13t3.51-4.06q2.23-1.47 5.07-1.47 2.92 0 5.18 1.47 2.26 1.46 3.55 4.06 1.29 2.6 1.29 6.13 0 3.52-1.29 6.13-1.29 2.6-3.55 4.04t-5.18 1.44m.04-3.1q1.94 0 3.4-1.01t2.28-2.92q.82-1.92.82-4.58 0-2.67-.82-4.6-.82-1.94-2.3-2.97-1.49-1.03-3.42-1.03-1.89 0-3.33 1.03-1.44 1.03-2.24 2.97-.79 1.93-.79 4.6 0 2.66.81 4.58.82 1.91 2.28 2.92t3.31 1.01"/>
      <rect width="19.87" height="23.27" x="-9.94" y="-11.63" fill="none" rx="0" ry="0" transform="translate(616.82 131.16)"/>
      <path fill="#1d597d" d="M639.491 142.336q-1.37 0-2.68-.13-1.32-.13-2.56-.45-1.25-.32-2.54-.88l.73-3.18q1.68.81 3.55 1.29 1.87.47 4.02.47 2.84 0 4.26-.75 1.41-.76 1.41-2.35 0-1.16-.88-1.95-.88-.8-2.28-1.4-1.39-.6-2.98-1.12-1.34-.47-2.67-1.05-1.33-.58-2.41-1.33-1.07-.76-1.72-1.83-.64-1.08-.64-2.54 0-1.76.96-3.14.97-1.37 2.95-2.17 1.98-.8 4.99-.8 1.76 0 3.7.26 1.93.26 3.26.6l-.6 3.14q-.51-.34-1.57-.58-1.05-.23-2.3-.38-1.25-.15-2.45-.15-2.75 0-4.19.73-1.44.73-1.44 2.45 0 .9.73 1.57.73.66 1.93 1.16 1.21.49 2.63 1.01 1.46.56 2.94 1.18 1.49.62 2.73 1.44 1.25.82 2 1.96.75 1.14.75 2.69 0 2.06-1.05 3.46-1.05 1.39-3.18 2.08-2.13.69-5.4.69"/>
      <rect width="17.41" height="23.31" x="-8.71" y="-11.65" fill="none" rx="0" ry="0" transform="translate(640.92 131.18)"/>
      <path fill="#1d597d" d="M665.851 142.336q-3.91 0-6.43-1.57-2.51-1.57-3.72-4.23-1.2-2.67-1.2-5.85 0-2.97.9-5.16.91-2.2 2.43-3.64 1.53-1.44 3.38-2.15 1.85-.71 3.78-.71 2.88 0 4.95 1.23 2.06 1.23 3.18 3.74 1.12 2.52 1.12 6.34v1.16h-16.39q.35 3.83 2.48 5.79 2.12 1.95 6.04 1.95 2.19 0 3.65-.34t2.11-.64l.47 2.83q-.51.39-2.43.82-1.91.43-4.32.43m-7.87-13.8h12.69q0-2.11-.75-3.57-.76-1.46-2.05-2.26-1.29-.79-2.96-.79-1.94 0-3.42.96-1.49.97-2.39 2.5-.9 1.52-1.12 3.16"/>
      <rect width="19.74" height="23.31" x="-9.87" y="-11.65" fill="none" rx="0" ry="0" transform="translate(664.87 131.18)"/>
    </svg>
  </g>
</svg>